SplineFontDB: 3.0
FontName: JudsonBoldItalic
FullName: Judson Bold Italic
FamilyName: Judson
Weight: Bold
Copyright: Copyright (c) 2010, 2011, 2013 by Daniel Johnson. Released under the terms of the SIL Open Font License.
Version: 20130906
ItalicAngle: -9.5
UnderlinePosition: -204
UnderlineWidth: 102
Ascent: 1638
Descent: 410
LayerCount: 2
Layer: 0 0 "Back"  1
Layer: 1 1 "Fore"  0
XUID: [1021 338 342 15249987]
FSType: 0
OS2Version: 2
OS2_WeightWidthSlopeOnly: 0
OS2_UseTypoMetrics: 1
CreationTime: 1278388800
ModificationTime: 1378425600
PfmFamily: 17
TTFWeight: 700
TTFWidth: 5
LineGap: 0
VLineGap: 0
Panose: 2 0 8 3 0 0 0 0 0 0
OS2TypoAscent: 1860
OS2TypoAOffset: 0
OS2TypoDescent: -522
OS2TypoDOffset: 0
OS2TypoLinegap: 0
OS2WinAscent: 1860
OS2WinAOffset: 0
OS2WinDescent: 522
OS2WinDOffset: 0
HheadAscent: 1860
HheadAOffset: 0
HheadDescent: -522
HheadDOffset: 0
OS2SubXSize: 1331
OS2SubYSize: 1432
OS2SubXOff: 0
OS2SubYOff: 287
OS2SupXSize: 1331
OS2SupYSize: 1432
OS2SupXOff: 0
OS2SupYOff: 981
OS2StrikeYSize: 100
OS2StrikeYPos: 528
OS2Vendor: 'PfEd'
OS2CodePages: 00000093.00000000
OS2UnicodeRanges: a00000ff.5000000b.00000000.00000000
Lookup: 4 0 0 "'ccmp' Glyph Composition"  {"'ccmp' Glyph Composition subtable"  } ['ccmp' ('DFLT' <'dflt' > 'grek' <'dflt' > 'latn' <'ENG ' 'FOS ' 'ISL ' 'ISM ' 'LSM ' 'NSM ' 'SKS ' 'SVE ' 'dflt' > ) ]
Lookup: 1 0 0 "'ss05' Binocular g"  {"'ss05' Binocular g subtable"  } ['ss05' ('DFLT' <'dflt' > 'latn' <'dflt' > ) ]
Lookup: 1 0 0 "'ss06' T with right-hook"  {"'ss06' T with right-hook subtable"  } ['ss06' ('DFLT' <'dflt' > 'latn' <'dflt' > ) ]
Lookup: 1 0 0 "'ss07' Reversed-Sigma Ezh"  {"'ss07' Reversed-Sigma Ezh subtable"  } ['ss07' ('DFLT' <'dflt' > 'latn' <'dflt' > ) ]
Lookup: 1 0 0 "'ss08' Z with top-hook"  {"'ss08' Z with top-hook subtable"  } ['ss08' ('DFLT' <'dflt' > 'latn' <'dflt' > ) ]
Lookup: 1 0 0 "'ss09' D with stroke through bowl"  {"'ss09' D with stroke through bowl subtable"  } ['ss09' ('DFLT' <'dflt' > 'latn' <'dflt' > ) ]

StartChar: .notdef
Encoding: 65536 -1 0
Width: 1052
Flags: MW
LayerCount: 2
Fore
SplineSet
117 0 m 1,0,-1
 300 1092 l 1,1,-1
 1119 1092 l 1,2,-1
 936 0 l 1,3,-1
 117 0 l 1,0,-1
236 102 m 1,4,-1
 851 102 l 1,5,-1
 1000 989 l 1,6,-1
 385 989 l 1,7,-1
 236 102 l 1,4,-1
EndSplineSet
Validated: 1
EndChar

StartChar: exclam
Encoding: 33 33 2
Width: 481
Flags: W
HStem: -20 258<165.51 351.853> 1270 20G<431 481>
VStem: 116 287<29.8315 189.427> 262 308<970.983 1187.12> 297 273<970.983 1241.94>
LayerCount: 2
Fore
SplineSet
242 -20 m 128,-1,1
 190 -20 190 -20 153 10.5 c 128,-1,2
 116 41 116 41 116 99 c 128,-1,3
 116 157 116 157 170.5 197.5 c 128,-1,4
 225 238 225 238 277 238 c 128,-1,5
 329 238 329 238 366 207.5 c 128,-1,6
 403 177 403 177 403 120 c 128,-1,7
 403 63 403 63 348.5 21.5 c 128,-1,0
 294 -20 294 -20 242 -20 c 128,-1,1
311 422 m 128,-1,9
 287 422 287 422 274.5 470.5 c 128,-1,10
 262 519 262 519 262 563 c 128,-1,11
 262 607 262 607 263 627 c 0,12,13
 274 1018 274 1018 297 1151 c 0,14,15
 309 1220 309 1220 357.5 1255 c 128,-1,16
 406 1290 406 1290 456 1290 c 128,-1,17
 506 1290 506 1290 538 1260 c 128,-1,18
 570 1230 570 1230 570 1185 c 2,19,20
 570 1182 l 2,21,22
 570 1102 570 1102 422 609 c 0,23,24
 398 529 398 529 366.5 475.5 c 128,-1,8
 335 422 335 422 311 422 c 128,-1,9
EndSplineSet
Validated: 1
EndChar

StartChar: quotedbl
Encoding: 34 34 3
Width: 727
Flags: MW
LayerCount: 2
Fore
SplineSet
671 766 m 128,-1,1
 640 766 640 766 628 969 c 0,2,3
 623 1055 623 1055 623 1134 c 128,-1,4
 623 1213 623 1213 631.5 1263.5 c 128,-1,5
 640 1314 640 1314 682 1338 c 128,-1,6
 724 1362 724 1362 771 1362 c 128,-1,7
 818 1362 818 1362 849 1340 c 128,-1,8
 880 1318 880 1318 880 1285 c 0,9,10
 880 1217 880 1217 791 991.5 c 128,-1,0
 702 766 702 766 671 766 c 128,-1,1
312 766 m 128,-1,12
 281 766 281 766 269 969 c 0,13,14
 264 1055 264 1055 264 1134 c 128,-1,15
 264 1213 264 1213 272.5 1263.5 c 128,-1,16
 281 1314 281 1314 323 1338 c 128,-1,17
 365 1362 365 1362 412 1362 c 128,-1,18
 459 1362 459 1362 490 1340 c 128,-1,19
 521 1318 521 1318 521 1285 c 0,20,21
 521 1217 521 1217 432 991.5 c 128,-1,11
 343 766 343 766 312 766 c 128,-1,12
EndSplineSet
Validated: 1
EndChar

StartChar: numbersign
Encoding: 35 35 4
Width: 1024
Flags: MW
LayerCount: 2
Fore
SplineSet
1011 471 m 1,0,-1
 999 401 l 1,1,-1
 774 401 l 1,2,-1
 651 0 l 1,3,-1
 528 0 l 1,4,-1
 651 401 l 1,5,-1
 436 401 l 1,6,-1
 313 0 l 1,7,-1
 190 0 l 1,8,-1
 313 401 l 1,9,-1
 128 401 l 1,10,-1
 140 471 l 1,11,-1
 335 471 l 1,12,-1
 415 729 l 1,13,-1
 214 729 l 1,14,-1
 226 799 l 1,15,-1
 437 799 l 1,16,-1
 558 1198 l 1,17,-1
 681 1198 l 1,18,-1
 560 799 l 1,19,-1
 775 799 l 1,20,-1
 896 1198 l 1,21,-1
 1019 1198 l 1,22,-1
 898 799 l 1,23,-1
 1097 799 l 1,24,-1
 1085 729 l 1,25,-1
 876 729 l 1,26,-1
 796 471 l 1,27,-1
 1011 471 l 1,0,-1
458 471 m 1,28,-1
 673 471 l 1,29,-1
 753 729 l 1,30,-1
 538 729 l 1,31,-1
 458 471 l 1,28,-1
EndSplineSet
Validated: 1
EndChar

StartChar: dollar
Encoding: 36 36 5
Width: 907
Flags: MW
LayerCount: 2
Fore
SplineSet
113 115 m 1,0,-1
 148 324 l 1,1,-1
 193 324 l 1,2,3
 193 252 193 252 231 190 c 0,4,5
 300 77 300 77 425 53 c 1,6,-1
 498 489 l 1,7,-1
 441 532 l 1,8,9
 243 686 243 686 243 853 c 0,10,11
 244 1000 244 1000 382 1118 c 0,12,13
 496 1216 496 1216 620 1219 c 1,14,-1
 632 1290 l 1,15,-1
 714 1290 l 1,16,-1
 701 1212 l 1,17,18
 758 1202 758 1202 810 1178 c 128,-1,19
 862 1154 862 1154 885 1134 c 2,20,-1
 907 1114 l 1,21,-1
 886 889 l 1,22,-1
 841 889 l 1,23,-1
 841 894 l 2,24,25
 841 958 841 958 795 1028 c 128,-1,26
 749 1098 749 1098 687 1130 c 1,27,-1
 622 739 l 1,28,-1
 674 700 l 1,29,30
 825 590 825 590 871 496 c 0,31,32
 903 430 903 430 903 386 c 0,33,34
 903 257 903 257 843 170 c 1,35,36
 802 108 802 108 745 70 c 0,37,38
 628 -8 628 -8 495 -18 c 1,39,-1
 484 -86 l 1,40,-1
 402 -86 l 1,41,-1
 413 -18 l 1,42,43
 255 -8 255 -8 154 72 c 0,44,45
 131 90 131 90 113 115 c 1,0,-1
549 793 m 1,46,-1
 608 1149 l 1,47,48
 530 1146 530 1146 480 1088 c 0,49,50
 420 1019 420 1019 420 967.5 c 128,-1,51
 420 916 420 916 451 879 c 128,-1,52
 482 842 482 842 549 793 c 1,46,-1
571 436 m 1,53,-1
 507 53 l 1,54,55
 581 66 581 66 633 118 c 0,56,57
 698 184 698 184 698 260 c 0,58,59
 698 304 698 304 668 344 c 128,-1,60
 638 384 638 384 571 436 c 1,53,-1
EndSplineSet
Validated: 1
EndChar

StartChar: percent
Encoding: 37 37 6
Width: 1105
Flags: W
HStem: -6 70<767.865 859.5> 424 70<816.36 910.056> 705 69<398.865 490.817> 1134 70<446.89 540.599>
VStem: 215 170<790.748 1055.94> 552 170<849.203 1116.6> 584 170<80.0957 346.384> 920 171<137.812 407.663>
LayerCount: 2
Fore
SplineSet
1134 1157 m 1,0,-1
 257 41 l 1,1,-1
 175 41 l 1,2,-1
 1052 1157 l 1,3,-1
 1134 1157 l 1,0,-1
434 1080 m 0,4,5
 385 994 385 994 385 889 c 0,6,7
 385 856 385 856 392 828 c 0,8,9
 405 774 405 774 439 774 c 128,-1,10
 473 774 473 774 504 828 c 0,11,12
 552 912 552 912 552 1009 c 2,13,14
 552 1020 l 2,15,16
 552 1134 552 1134 499 1134 c 0,17,18
 465 1134 465 1134 434 1080 c 0,4,5
215 915 m 1,19,20
 222 1043 222 1043 321 1123.5 c 128,-1,21
 420 1204 420 1204 510 1204 c 128,-1,22
 600 1204 600 1204 661 1137 c 128,-1,23
 722 1070 722 1070 722 993 c 0,24,25
 722 869 722 869 619.5 787 c 128,-1,26
 517 705 517 705 427 705 c 128,-1,27
 337 705 337 705 276 771.5 c 128,-1,28
 215 838 215 838 215 915 c 1,19,20
868 424 m 0,29,30
 834 424 834 424 803 370 c 0,31,32
 754 285 754 285 754 178 c 0,33,34
 754 146 754 146 761 118 c 0,35,36
 774 64 774 64 808 64 c 128,-1,37
 842 64 842 64 872 118 c 0,38,39
 920 206 920 206 920 315 c 128,-1,40
 920 424 920 424 868 424 c 0,29,30
584 205 m 1,41,42
 591 334 591 334 690.5 414 c 128,-1,43
 790 494 790 494 880 494 c 128,-1,44
 970 494 970 494 1030.5 427 c 128,-1,45
 1091 360 1091 360 1091 283 c 0,46,47
 1091 159 1091 159 988.5 76.5 c 128,-1,48
 886 -6 886 -6 796 -6 c 128,-1,49
 706 -6 706 -6 645 61 c 128,-1,50
 584 128 584 128 584 205 c 1,41,42
EndSplineSet
Validated: 1
EndChar

StartChar: ampersand
Encoding: 38 38 7
Width: 1243
Flags: W
HStem: -20 110<915.621 1110.17> -20 86<407.037 663.291> 664 43<954 1057.42 1181.04 1299> 1147 72<721.232 766 769 841.114>
VStem: 78 249<141.986 357.595> 422 215<732.416 1063.12> 856 89<872.875 1142.39>
LayerCount: 2
Fore
SplineSet
856 1024 m 1,0,1
 856 1147 856 1147 789 1147 c 0,2,3
 747 1147 747 1147 702 1092 c 0,4,5
 637 1013 637 1013 637 886 c 0,6,7
 637 819 637 819 654 731 c 1,8,9
 831 842 831 842 851 961 c 0,10,11
 857 994 857 994 856 1024 c 1,0,1
1306 707 m 1,12,-1
 1299 664 l 1,13,14
 1181 664 1181 664 1163 623 c 1,15,16
 1019 330 1019 330 876 178 c 1,17,18
 943 90 943 90 1010.5 90 c 128,-1,19
 1078 90 1078 90 1111.5 105 c 128,-1,20
 1145 120 1145 120 1185 166 c 1,21,-1
 1206 145 l 1,22,23
 1140 23 1140 23 1052 -7 c 0,24,25
 1014 -20 1014 -20 968 -20 c 0,26,27
 855 -20 855 -20 749 70 c 1,28,29
 613 -20 613 -20 466 -20 c 0,30,31
 78 -20 78 -20 78 208 c 0,32,33
 78 404 78 404 355 565 c 0,34,35
 397 589 397 589 460 623 c 1,36,37
 422 776 422 776 422 854 c 128,-1,38
 422 932 422 932 430 984 c 1,39,40
 440 1036 440 1036 470 1084 c 0,41,42
 522 1166 522 1166 601.5 1192.5 c 128,-1,43
 681 1219 681 1219 766 1219 c 1,44,-1
 769 1218 l 1,45,46
 856 1218 856 1218 900 1156 c 128,-1,47
 944 1094 944 1094 945 1028 c 0,48,49
 945 1007 945 1007 941 985 c 0,50,51
 922 871 922 871 849.5 793.5 c 128,-1,52
 777 716 777 716 674 649 c 1,53,54
 728 422 728 422 835 240 c 1,55,56
 973 402 973 402 1070 625 c 1,57,58
 1060 664 1060 664 947 664 c 1,59,-1
 954 707 l 1,60,-1
 1306 707 l 1,12,-1
702 117 m 1,61,62
 571 264 571 264 485 528 c 1,63,64
 415 480 415 480 371 421.5 c 128,-1,65
 327 363 327 363 327 271.5 c 128,-1,66
 327 180 327 180 388.5 123 c 128,-1,67
 450 66 450 66 538.5 66 c 128,-1,68
 627 66 627 66 702 117 c 1,61,62
EndSplineSet
Validated: 1
EndChar

StartChar: quotesingle
Encoding: 39 39 8
Width: 368
Flags: MW
LayerCount: 2
Fore
SplineSet
312 766 m 128,-1,1
 281 766 281 766 269 969 c 0,2,3
 264 1055 264 1055 264 1134 c 0,4,5
 264 1214 264 1214 272 1264 c 0,6,7
 280 1314 280 1314 322.5 1338 c 128,-1,8
 365 1362 365 1362 412 1362 c 128,-1,9
 459 1362 459 1362 490 1340 c 0,10,11
 521 1318 521 1318 521 1285 c 0,12,13
 521 1217 521 1217 432 991.5 c 128,-1,0
 343 766 343 766 312 766 c 128,-1,1
EndSplineSet
Validated: 1
EndChar

StartChar: parenleft
Encoding: 40 40 9
Width: 514
Flags: W
VStem: 158 216<219.824 724.664>
LayerCount: 2
Fore
SplineSet
419 -80 m 0,0,1
 415 -102 415 -102 392 -102 c 0,2,3
 344 -102 344 -102 253 88 c 0,4,5
 207 184 207 184 182.5 301.5 c 128,-1,6
 158 419 158 419 158 501 c 0,7,8
 158 726 158 726 277 946 c 0,9,10
 360 1100 360 1100 441 1201 c 0,11,12
 597 1393 597 1393 647 1393 c 0,13,14
 662 1393 662 1393 662 1377 c 0,15,16
 662 1369 662 1369 651 1354 c 0,17,18
 577 1256 577 1256 503.5 1031.5 c 128,-1,19
 430 807 430 807 403 645.5 c 128,-1,20
 376 484 376 484 375 385 c 128,-1,21
 374 286 374 286 374 206 c 128,-1,22
 374 126 374 126 383.5 64 c 128,-1,23
 393 2 393 2 400 -24.5 c 128,-1,24
 407 -51 407 -51 413 -64.5 c 128,-1,25
 419 -78 419 -78 419 -80 c 0,0,1
EndSplineSet
Validated: 1
EndChar

StartChar: parenright
Encoding: 41 41 10
Width: 512
Flags: W
VStem: 354 216<565.602 1061.48>
LayerCount: 2
Fore
SplineSet
309 1370 m 0,0,1
 313 1393 313 1393 331 1393 c 0,2,3
 381 1393 381 1393 451 1249 c 0,4,5
 570 1004 570 1004 570 784.5 c 128,-1,6
 570 565 570 565 450 342 c 0,7,8
 365 186 365 186 287 89 c 0,9,10
 132 -102 132 -102 81 -102 c 0,11,12
 66 -102 66 -102 66 -87 c 0,13,14
 66 -79 66 -79 77 -64 c 0,15,16
 151 33 151 33 224.5 258 c 128,-1,17
 298 483 298 483 325 645 c 128,-1,18
 352 807 352 807 353 906.5 c 128,-1,19
 354 1006 354 1006 354 1085 c 128,-1,20
 354 1164 354 1164 344.5 1226.5 c 128,-1,21
 335 1289 335 1289 327.5 1315 c 128,-1,22
 320 1341 320 1341 314.5 1354.5 c 128,-1,23
 309 1368 309 1368 309 1370 c 0,0,1
EndSplineSet
Validated: 1
EndChar

StartChar: asterisk
Encoding: 42 42 11
Width: 720
Flags: W
HStem: 733 213<551.504 658.504> 963 178<282.583 419.531 665.76 801.254>
VStem: 287 203<780.608 864.951> 287 181<753.636 864.951> 469 181.5<1121.85 1249.89> 542.5 166<764.006 841.763>
LayerCount: 2
Fore
SplineSet
577 997 m 1,0,1
 583 974 583 974 551 946 c 1,2,3
 574 946 574 946 634.5 914.5 c 128,-1,4
 695 883 695 883 704 865.5 c 128,-1,5
 713 848 713 848 708.5 821.5 c 128,-1,6
 704 795 704 795 664 764 c 128,-1,7
 624 733 624 733 588.5 733 c 128,-1,8
 553 733 553 733 542.5 752.5 c 128,-1,9
 532 772 532 772 532 844 c 128,-1,10
 532 916 532 916 544 940 c 1,11,12
 532 932 532 932 516 932 c 128,-1,13
 500 932 500 932 489 938 c 1,14,15
 490 935 490 935 490 919.5 c 128,-1,16
 490 904 490 904 468 838.5 c 128,-1,17
 446 773 446 773 427.5 753 c 128,-1,18
 409 733 409 733 374.5 733 c 128,-1,19
 340 733 340 733 313 761 c 128,-1,20
 286 789 286 789 287 813 c 1,21,-1
 287 820 l 1,22,23
 292 848 292 848 307 865.5 c 128,-1,24
 322 883 322 883 390.5 913.5 c 128,-1,25
 459 944 459 944 482 946 c 1,26,27
 460 968 460 968 472 991 c 0,28,29
 474 995 474 995 474 997 c 1,30,31
 455 987 455 987 396.5 975 c 128,-1,32
 338 963 338 963 307 963 c 0,33,34
 254 963 254 963 254 1020 c 0,35,36
 254 1066 254 1066 288.5 1103.5 c 128,-1,37
 323 1141 323 1141 354 1141 c 128,-1,38
 385 1141 385 1141 429 1085.5 c 128,-1,39
 473 1030 473 1030 478 1008 c 1,40,41
 495 1034 495 1034 528 1038 c 1,42,43
 513 1050 513 1050 491 1109 c 128,-1,44
 469 1168 469 1168 469 1197.5 c 128,-1,45
 469 1227 469 1227 500.5 1248.5 c 128,-1,46
 532 1270 532 1270 570.5 1270 c 128,-1,47
 609 1270 609 1270 632 1250.5 c 128,-1,48
 655 1231 655 1231 650.5 1204.5 c 128,-1,49
 646 1178 646 1178 600.5 1114 c 128,-1,50
 555 1050 555 1050 536 1038 c 1,51,52
 568 1035 568 1035 576 1006 c 1,53,54
 584 1025 584 1025 644 1078 c 128,-1,55
 704 1131 704 1131 723 1136 c 128,-1,56
 742 1141 742 1141 748 1141 c 0,57,58
 779 1141 779 1141 796 1112.5 c 128,-1,59
 813 1084 813 1084 813 1067 c 128,-1,60
 813 1050 813 1050 809 1028.5 c 128,-1,61
 805 1007 805 1007 784.5 985 c 128,-1,62
 764 963 764 963 732 963 c 128,-1,63
 700 963 700 963 644 975 c 128,-1,64
 588 987 588 987 577 997 c 1,0,1
EndSplineSet
Validated: 1
EndChar

StartChar: plus
Encoding: 43 43 12
Width: 827
Flags: MW
LayerCount: 2
Fore
SplineSet
567 598 m 1,0,-1
 519 309 l 1,1,-1
 412 309 l 1,2,-1
 460 598 l 1,3,-1
 172 598 l 1,4,-1
 190 705 l 1,5,-1
 478 705 l 1,6,-1
 526 993 l 1,7,-1
 633 993 l 1,8,-1
 585 705 l 1,9,-1
 874 705 l 1,10,-1
 856 598 l 1,11,-1
 567 598 l 1,0,-1
EndSplineSet
Validated: 1
EndChar

StartChar: comma
Encoding: 44 44 13
Width: 458
Flags: W
VStem: 96 292<8.43298 167.092>
LayerCount: 2
Fore
SplineSet
261 6 m 1,0,-1
 226 -14 l 1,1,2
 210 -20 210 -20 176 -20 c 128,-1,3
 142 -20 142 -20 119 6.5 c 128,-1,4
 96 33 96 33 96 58 c 0,5,6
 96 140 96 140 150.5 176.5 c 128,-1,7
 205 213 205 213 245 213 c 0,8,9
 388 213 388 213 388 59.5 c 128,-1,10
 388 -94 388 -94 267 -190 c 0,11,12
 170 -268 170 -268 67 -274 c 1,13,-1
 79 -201 l 1,14,15
 156 -183 156 -183 209 -133.5 c 128,-1,16
 262 -84 262 -84 269.5 -39 c 128,-1,17
 277 6 277 6 261 6 c 1,0,-1
EndSplineSet
Validated: 1
EndChar

StartChar: hyphen
Encoding: 45 45 14
Width: 761
Flags: W
HStem: 489 90<207 732>
VStem: 192 555
LayerCount: 2
Back
SplineSet
310 498 m 5
 130 498 l 5
 142 567 l 5
 322 567 l 5
EndSplineSet
Fore
SplineSet
207 579 m 5,0,-1
 747 579 l 1,1,-1
 732 489 l 1,2,-1
 192 489 l 5,3,-1
 207 579 l 5,0,-1
EndSplineSet
Validated: 1
EndChar

StartChar: period
Encoding: 46 46 15
Width: 450
Flags: W
HStem: -20 258<149.056 335.915>
VStem: 100 288<31.0331 189.752>
LayerCount: 2
Fore
SplineSet
224.5 -20 m 128,-1,1
 172 -20 172 -20 136 10.5 c 128,-1,2
 100 41 100 41 100 99 c 128,-1,3
 100 157 100 157 154 197.5 c 128,-1,4
 208 238 208 238 260 238 c 128,-1,5
 312 238 312 238 350 207 c 128,-1,6
 388 176 388 176 388 119.5 c 128,-1,7
 388 63 388 63 332.5 21.5 c 128,-1,0
 277 -20 277 -20 224.5 -20 c 128,-1,1
EndSplineSet
Validated: 1
EndChar

StartChar: slash
Encoding: 47 47 16
Width: 970
Flags: MW
LayerCount: 2
Fore
SplineSet
34 -20 m 1,0,-1
 1044 1253 l 1,1,-1
 1138 1217 l 1,2,-1
 127 -57 l 1,3,-1
 34 -20 l 1,0,-1
EndSplineSet
Validated: 1
EndChar

StartChar: zero
Encoding: 48 48 17
Width: 1003
VWidth: 0
Flags: W
HStem: -20 63<441.396 591.02> 1155 64<612.777 762.731>
VStem: 147 246<193.237 670.763> 811 245<532.374 1005.77>
LayerCount: 2
Fore
SplineSet
811 920 m 0,0,1
 811 1155 811 1155 695 1155 c 0,2,3
 590 1155 590 1155 522 980 c 0,4,5
 433 750 433 750 398 391 c 0,6,7
 393 333 393 333 393 278 c 0,8,9
 393 43 393 43 509 43 c 0,10,11
 617 43 617 43 682 217 c 1,12,13
 738 364 738 364 774.5 578 c 128,-1,14
 811 792 811 792 811 920 c 0,0,1
264 905 m 0,15,16
 338 1045 338 1045 454 1132 c 1,17,18
 572 1219 572 1219 690 1219 c 0,19,20
 911 1219 911 1219 1000 1032 c 0,21,22
 1056 914 1056 914 1056 764 c 2,23,24
 1056 759 l 2,25,26
 1056 510 1056 510 940 292 c 0,27,28
 866 153 866 153 750 66.5 c 128,-1,29
 634 -20 634 -20 499 -20 c 128,-1,30
 364 -20 364 -20 276 66 c 0,31,32
 147 193 147 193 147 438.5 c 128,-1,33
 147 684 147 684 264 905 c 0,15,16
EndSplineSet
Validated: 1
EndChar

StartChar: one
Encoding: 49 49 18
Width: 1003
VWidth: 0
Flags: MW
LayerCount: 2
Fore
SplineSet
892 1198 m 1,0,-1
 713 125 l 2,1,2
 712 121 712 121 712 116 c 0,3,4
 712 79 712 79 774 61 c 0,5,6
 836 43 836 43 918 43 c 1,7,-1
 911 0 l 1,8,-1
 219 0 l 1,9,-1
 226 43 l 1,10,11
 309 43 309 43 380.5 62 c 128,-1,12
 452 81 452 81 459 125 c 2,13,-1
 587 891 l 1,14,15
 464 817 464 817 382 762 c 1,16,-1
 373 797 l 1,17,-1
 804 1198 l 1,18,-1
 892 1198 l 1,0,-1
EndSplineSet
Validated: 1
EndChar

StartChar: two
Encoding: 50 50 19
Width: 1003
VWidth: 0
Flags: W
HStem: 0 209<428 868> 1096 123<512.012 731.025>
VStem: 775 271<813.368 1051.2>
LayerCount: 2
Fore
SplineSet
82 0 m 1,0,1
 91 56 91 56 322 272 c 0,2,3
 417 362 417 362 513 458 c 128,-1,4
 609 554 609 554 683 659 c 128,-1,5
 757 764 757 764 766 817.5 c 128,-1,6
 775 871 775 871 775 902.5 c 128,-1,7
 775 934 775 934 767.5 975 c 128,-1,8
 760 1016 760 1016 727 1056 c 128,-1,9
 694 1096 694 1096 634 1096 c 128,-1,10
 574 1096 574 1096 512 1075.5 c 128,-1,11
 450 1055 450 1055 410.5 1026.5 c 128,-1,12
 371 998 371 998 342 969 c 128,-1,13
 313 940 313 940 294.5 919.5 c 128,-1,14
 276 899 276 899 265.5 899 c 128,-1,15
 255 899 255 899 255 914 c 128,-1,16
 255 929 255 929 280 969 c 0,17,18
 331 1052 331 1052 446 1135.5 c 128,-1,19
 561 1219 561 1219 728 1219 c 2,20,-1
 732 1219 l 1,21,22
 918 1217 918 1217 994 1122 c 1,23,24
 1046 1054 1046 1054 1046 965 c 0,25,26
 1046 939 1046 939 1041 911 c 0,27,28
 1021 789 1021 789 813 590 c 0,29,30
 726 506 726 506 640 430 c 0,31,32
 434 247 434 247 428 209 c 1,33,-1
 799 209 l 2,34,35
 847 209 847 209 907 283 c 0,36,37
 912 290 912 290 934 315 c 1,38,-1
 975 315 l 1,39,-1
 868 0 l 1,40,-1
 82 0 l 1,0,1
EndSplineSet
Validated: 1
EndChar

StartChar: three
Encoding: 51 51 20
Width: 1003
VWidth: 0
Flags: W
HStem: -20 63<363.751 569.133> 590 41<508.344 571.098> 1096 123<500.792 718.441>
VStem: 122 170.5<105.005 226.026> 725 247<233.311 553.56> 755 254<822.951 1061.24>
LayerCount: 2
Fore
SplineSet
593 590 m 2,0,-1
 533 590 l 2,1,2
 519 590 519 590 508 598 c 0,3,4
 482 618 482 618 516 631 c 1,5,6
 609 658 609 658 671 721 c 0,7,8
 755 806 755 806 755 940 c 0,9,10
 755 1096 755 1096 599 1096 c 0,11,12
 493 1096 493 1096 428 1040 c 0,13,14
 394 1011 394 1011 364.5 973.5 c 128,-1,15
 335 936 335 936 324.5 936 c 128,-1,16
 314 936 314 936 314 951 c 128,-1,17
 314 966 314 966 342.5 1020.5 c 128,-1,18
 371 1075 371 1075 460 1147 c 128,-1,19
 549 1219 549 1219 681 1219 c 0,20,21
 874 1219 874 1219 950 1137 c 0,22,23
 1008 1074 1008 1074 1009 978 c 0,24,25
 1009 949 1009 949 1003 916 c 0,26,27
 980 777 980 777 776 670 c 1,28,29
 870 644 870 644 921 563.5 c 128,-1,30
 972 483 972 483 972 415 c 128,-1,31
 972 347 972 347 944 273 c 0,32,33
 889 128 889 128 782.5 54 c 128,-1,34
 676 -20 676 -20 480 -20 c 0,35,36
 397 -20 397 -20 300 7 c 128,-1,37
 203 34 203 34 143 105 c 0,38,39
 122 129 122 129 122 144 c 0,40,41
 122 196 122 196 147 227 c 128,-1,42
 172 258 172 258 206 258 c 0,43,44
 264 258 264 258 292.5 192.5 c 128,-1,45
 321 127 321 127 341 99 c 1,46,47
 378 43 378 43 462.5 43 c 128,-1,48
 547 43 547 43 621 112 c 0,49,50
 725 210 725 210 725 400 c 128,-1,51
 725 590 725 590 593 590 c 2,0,-1
EndSplineSet
Validated: 1
EndChar

StartChar: four
Encoding: 52 52 21
Width: 1003
VWidth: 0
Flags: MW
LayerCount: 2
Fore
SplineSet
372 43 m 1,0,1
 484 43 484 43 508 84 c 1,2,-1
 554 358 l 1,3,-1
 150 358 l 1,4,-1
 855 1198 l 1,5,-1
 950 1198 l 1,6,-1
 820 420 l 1,7,-1
 985 420 l 1,8,-1
 975 358 l 1,9,-1
 810 358 l 1,10,-1
 764 84 l 1,11,12
 774 43 774 43 886 43 c 1,13,-1
 879 0 l 1,14,-1
 365 0 l 1,15,-1
 372 43 l 1,0,1
564 420 m 1,16,-1
 636 846 l 1,17,-1
 275 420 l 1,18,-1
 564 420 l 1,16,-1
EndSplineSet
Validated: 1
EndChar

StartChar: five
Encoding: 53 53 22
Width: 1003
VWidth: 0
Flags: W
HStem: -20 63<360.591 587.713> 682 106<425 606.189> 1022 176<495 970>
VStem: 122 158.5<106.739 226.026> 733 241<250.004 581.245>
LayerCount: 2
Fore
SplineSet
425 788 m 1,0,1
 799 785 799 785 925 593 c 0,2,3
 974 518 974 518 974 437 c 0,4,5
 974 414 974 414 970 389 c 0,6,7
 901 -20 901 -20 505 -20 c 0,8,9
 294 -20 294 -20 175 72 c 0,10,11
 122 113 122 113 122 142 c 0,12,13
 122 196 122 196 147.5 227 c 128,-1,14
 173 258 173 258 204.5 258 c 128,-1,15
 236 258 236 258 251 236 c 128,-1,16
 266 214 266 214 280.5 182 c 128,-1,17
 295 150 295 150 316 118 c 0,18,19
 366 43 366 43 483 43 c 2,20,-1
 486 43 l 2,21,22
 671 43 671 43 723 352 c 0,23,24
 733 411 733 411 733 453.5 c 128,-1,25
 733 496 733 496 714 541 c 0,26,27
 656 682 656 682 323 682 c 1,28,-1
 476 1198 l 1,29,-1
 1048 1198 l 1,30,-1
 970 1022 l 1,31,-1
 495 1022 l 1,32,-1
 425 788 l 1,0,1
EndSplineSet
Validated: 1
EndChar

StartChar: six
Encoding: 54 54 23
Width: 1003
VWidth: 0
Flags: W
HStem: -20 65<440.24 604.038> 688 70<477.179 717.673> 1165 70<808.385 896.072>
VStem: 146 244<158.727 585.7> 754 245<271.174 636.122>
LayerCount: 2
Fore
SplineSet
475 725 m 1,0,1
 553 758 553 758 633 758 c 0,2,3
 999 758 999 758 999 475 c 0,4,5
 999 433 999 433 990 385 c 0,6,7
 959 199 959 199 827.5 89.5 c 128,-1,8
 696 -20 696 -20 504.5 -20 c 128,-1,9
 313 -20 313 -20 216 116 c 0,10,11
 146 215 146 215 146 350 c 0,12,13
 146 404 146 404 155 459 c 0,14,15
 208 778 208 778 472 1018 c 0,16,17
 602 1136 602 1136 768 1202 c 0,18,19
 837 1229 837 1229 893 1235 c 1,20,-1
 908 1165 l 1,21,22
 603 1092 603 1092 475 725 c 1,0,1
390 249 m 0,23,24
 390 45 390 45 522 45 c 0,25,26
 678 45 678 45 737 401 c 0,27,28
 754 502 754 502 754 526 c 2,29,-1
 754 554 l 1,30,31
 747 629 747 629 717.5 658.5 c 128,-1,32
 688 688 688 688 603.5 688 c 128,-1,33
 519 688 519 688 454 659 c 1,34,35
 431 583 431 583 410.5 457.5 c 128,-1,36
 390 332 390 332 390 249 c 0,23,24
EndSplineSet
Validated: 1
EndChar

StartChar: seven
Encoding: 55 55 24
Width: 1003
VWidth: 0
Flags: MW
LayerCount: 2
Fore
SplineSet
362 33 m 0,0,1
 387 181 387 181 616 568 c 1,2,3
 844 945 844 945 854 1004 c 1,4,-1
 449 1004 l 2,5,6
 423 1004 423 1004 379.5 965 c 128,-1,7
 336 926 336 926 306 872 c 1,8,-1
 265 872 l 1,9,-1
 397 1198 l 1,10,-1
 1085 1198 l 1,11,12
 1077 1158 1077 1158 827 714 c 0,13,14
 733 546 733 546 645.5 349.5 c 128,-1,15
 558 153 558 153 538 33 c 0,16,17
 535 14 535 14 507 -3 c 128,-1,18
 479 -20 479 -20 439 -20 c 128,-1,19
 399 -20 399 -20 379 -2.5 c 128,-1,20
 359 15 359 15 362 33 c 0,0,1
EndSplineSet
Validated: 1
EndChar

StartChar: eight
Encoding: 56 56 25
Width: 1003
VWidth: 0
Flags: MW
LayerCount: 2
Fore
SplineSet
703 698 m 1,0,1
 851 789 851 789 883 979 c 0,2,3
 886 996 886 996 886 1011 c 0,4,5
 886 1070 886 1070 838 1110.5 c 128,-1,6
 790 1151 790 1151 717 1151 c 0,7,8
 512 1151 512 1151 484 985 c 0,9,10
 482 976 482 976 482 967 c 0,11,12
 482 896 482 896 571 812 c 0,13,14
 627 759 627 759 703 698 c 1,0,1
126 239 m 0,15,16
 126 460 126 460 437 614 c 1,17,18
 343 696 343 696 301.5 765.5 c 128,-1,19
 260 835 260 835 260 907 c 0,20,21
 260 1047 260 1047 398 1134 c 0,22,23
 516 1208 516 1208 687 1208 c 0,24,25
 1050 1208 1050 1208 1050 1006 c 0,26,27
 1050 880 1050 880 963 787.5 c 128,-1,28
 876 695 876 695 773 639 c 1,29,30
 957 480 957 480 957 337 c 0,31,32
 957 310 957 310 952 282 c 0,33,34
 934 176 934 176 800.5 78 c 128,-1,35
 667 -20 667 -20 490.5 -20 c 128,-1,36
 314 -20 314 -20 220 58.5 c 128,-1,37
 126 137 126 137 126 239 c 0,15,16
505 555 m 1,38,39
 328 467 328 467 295 266 c 0,40,41
 292 249 292 249 292 219 c 128,-1,42
 292 189 292 189 312 153 c 1,43,44
 398 69 398 69 473 57 c 0,45,46
 475 57 475 57 477 57 c 0,47,48
 599 57 599 57 658 109 c 128,-1,49
 717 161 717 161 734 260 c 0,50,51
 736 273 736 273 736 295.5 c 128,-1,52
 736 318 736 318 716 348 c 0,53,54
 679 404 679 404 628.5 450.5 c 128,-1,55
 578 497 578 497 505 555 c 1,38,39
EndSplineSet
Validated: 1
EndChar

StartChar: nine
Encoding: 57 57 26
Width: 1003
VWidth: 0
Flags: W
HStem: -37 70<308.133 395.67> 440 70<485.131 725.844> 1153 66<600.765 698 700 763.164>
VStem: 206 244<560.639 919.906> 814 245<618.816 1035.4>
LayerCount: 2
Fore
SplineSet
728 473 m 1,0,1
 651 440 651 440 572 440 c 0,2,3
 206 440 206 440 206 723 c 0,4,5
 206 765 206 765 214 813 c 0,6,7
 245 999 245 999 376 1109 c 128,-1,8
 507 1219 507 1219 698 1219 c 1,9,-1
 700 1218 l 1,10,11
 892 1218 892 1218 988 1082 c 0,12,13
 1059 982 1059 982 1059 822.5 c 128,-1,14
 1059 663 1059 663 956.5 463 c 128,-1,15
 854 263 854 263 659.5 121.5 c 128,-1,16
 465 -20 465 -20 311 -37 c 1,17,-1
 297 33 l 1,18,19
 601 106 601 106 728 473 c 1,0,1
814 946 m 2,20,21
 814 1153 814 1153 682 1153 c 0,22,23
 527 1153 527 1153 467 797 c 0,24,25
 450 696 450 696 450 636.5 c 128,-1,26
 450 577 450 577 483 543.5 c 128,-1,27
 516 510 516 510 600 510 c 128,-1,28
 684 510 684 510 749 539 c 1,29,30
 774 623 774 623 794 739.5 c 128,-1,31
 814 856 814 856 814 899 c 2,32,-1
 814 946 l 2,20,21
EndSplineSet
Validated: 1
EndChar

StartChar: colon
Encoding: 58 58 27
Width: 503
Flags: W
HStem: -20 258<176.056 361.853> 656 257<289.056 366 367 478.297>
VStem: 127 286<29.8315 189.427> 240 286<703.25 865.219>
LayerCount: 2
Fore
SplineSet
251.5 -20 m 128,-1,1
 199 -20 199 -20 163 10.5 c 128,-1,2
 127 41 127 41 127 99 c 128,-1,3
 127 157 127 157 181 197.5 c 128,-1,4
 235 238 235 238 287 238 c 128,-1,5
 339 238 339 238 376 207.5 c 128,-1,6
 413 177 413 177 413 120 c 128,-1,7
 413 63 413 63 358.5 21.5 c 128,-1,0
 304 -20 304 -20 251.5 -20 c 128,-1,1
366 656 m 1,8,9
 314 656 314 656 277 687 c 128,-1,10
 240 718 240 718 240 761 c 0,11,12
 240 833 240 833 294 873 c 128,-1,13
 348 913 348 913 400 913 c 128,-1,14
 452 913 452 913 489 882.5 c 128,-1,15
 526 852 526 852 526 794 c 128,-1,16
 526 736 526 736 472 695.5 c 128,-1,17
 418 655 418 655 367 655 c 1,18,-1
 366 656 l 1,8,9
EndSplineSet
Validated: 1
EndChar

StartChar: semicolon
Encoding: 59 59 28
Width: 526
Flags: W
HStem: 656 257<295.056 372 373 484.297>
VStem: 130 291<7.80542 169.239> 246 286<703.25 865.219>
LayerCount: 2
Fore
SplineSet
294 6 m 1,0,-1
 258 -14 l 1,1,2
 242 -20 242 -20 208.5 -20 c 128,-1,3
 175 -20 175 -20 152.5 6 c 128,-1,4
 130 32 130 32 130 56 c 0,5,6
 130 140 130 140 184 176.5 c 128,-1,7
 238 213 238 213 278 213 c 0,8,9
 421 213 421 213 421 59 c 128,-1,10
 421 -95 421 -95 300 -190 c 0,11,12
 202 -268 202 -268 99 -274 c 1,13,-1
 111 -201 l 1,14,15
 188 -183 188 -183 241.5 -133.5 c 128,-1,16
 295 -84 295 -84 302.5 -39 c 128,-1,17
 310 6 310 6 294 6 c 1,0,-1
372 656 m 1,18,19
 320 656 320 656 283 687 c 128,-1,20
 246 718 246 718 246 761 c 0,21,22
 246 833 246 833 300 873 c 128,-1,23
 354 913 354 913 406 913 c 128,-1,24
 458 913 458 913 495 882.5 c 128,-1,25
 532 852 532 852 532 794 c 128,-1,26
 532 736 532 736 478 695.5 c 128,-1,27
 424 655 424 655 373 655 c 1,28,-1
 372 656 l 1,18,19
EndSplineSet
Validated: 1
EndChar

StartChar: less
Encoding: 60 60 29
Width: 962
Flags: MW
LayerCount: 2
Fore
SplineSet
176 702 m 1,0,-1
 1012 1065 l 1,1,-1
 995 961 l 1,2,-1
 302 651 l 1,3,-1
 891 342 l 1,4,-1
 874 238 l 1,5,-1
 159 600 l 1,6,-1
 176 702 l 1,0,-1
EndSplineSet
Validated: 1
EndChar

StartChar: equal
Encoding: 61 61 30
Width: 995
Flags: MW
LayerCount: 2
Fore
SplineSet
223 584 m 1,0,-1
 968 584 l 1,1,-1
 949 473 l 1,2,-1
 204 473 l 1,3,-1
 223 584 l 1,0,-1
264 829 m 1,4,-1
 1009 829 l 1,5,-1
 990 719 l 1,6,-1
 245 719 l 1,7,-1
 264 829 l 1,4,-1
EndSplineSet
Validated: 1
EndChar

StartChar: greater
Encoding: 62 62 31
Width: 962
Flags: MW
LayerCount: 2
Fore
SplineSet
1003 600 m 1,0,-1
 169 238 l 1,1,-1
 186 342 l 1,2,-1
 879 651 l 1,3,-1
 290 961 l 1,4,-1
 307 1065 l 1,5,-1
 1020 702 l 1,6,-1
 1003 600 l 1,0,-1
EndSplineSet
Validated: 1
EndChar

StartChar: question
Encoding: 63 63 32
Width: 872
Flags: W
HStem: -20 258<317.056 503.915> 1229 61<483.51 671.527>
VStem: 223 205<919.389 1058.41> 268 288<31.0331 189.752> 724 255<861.013 1173.4>
LayerCount: 2
Fore
SplineSet
392.5 -20 m 128,-1,1
 340 -20 340 -20 304 10.5 c 128,-1,2
 268 41 268 41 268 99 c 128,-1,3
 268 157 268 157 322 197.5 c 128,-1,4
 376 238 376 238 428 238 c 128,-1,5
 480 238 480 238 518 207 c 128,-1,6
 556 176 556 176 556 119.5 c 128,-1,7
 556 63 556 63 500.5 21.5 c 128,-1,0
 445 -20 445 -20 392.5 -20 c 128,-1,1
412 1066 m 1,8,-1
 428 993 l 1,9,10
 428 954 428 954 391 922 c 128,-1,11
 354 890 354 890 308 890 c 2,12,-1
 306 890 l 2,13,14
 261 890 261 890 242 918.5 c 128,-1,15
 223 947 223 947 223 969 c 0,16,17
 223 1042 223 1042 266 1110 c 0,18,19
 380 1290 380 1290 636 1290 c 0,20,21
 818 1290 818 1290 908 1204 c 0,22,23
 979 1136 979 1136 979 1032 c 0,24,25
 979 882 979 882 862 762 c 0,26,27
 790 688 790 688 710.5 631 c 128,-1,28
 631 574 631 574 592 542 c 0,29,30
 503 470 503 470 493 410 c 0,31,32
 491 400 491 400 475.5 390.5 c 128,-1,33
 460 381 460 381 451 381 c 128,-1,34
 442 381 442 381 429.5 390.5 c 128,-1,35
 417 400 417 400 419 410 c 0,36,37
 437 515 437 515 505.5 595 c 128,-1,38
 574 675 574 675 615 729 c 0,39,40
 724 873 724 873 724 1052 c 0,41,42
 724 1117 724 1117 703 1160 c 0,43,44
 668 1229 668 1229 589 1229 c 128,-1,45
 510 1229 510 1229 466 1183.5 c 128,-1,46
 422 1138 422 1138 417 1111 c 128,-1,47
 412 1084 412 1084 412 1066 c 1,8,-1
EndSplineSet
Validated: 1
EndChar

StartChar: at
Encoding: 64 64 33
Width: 1267
Flags: W
HStem: -20 79<514.45 907.973> 299 74<865.475 1005.85> 326 88<496.532 689.193> 815 80<693.138 827.337> 1133 86<657.885 1069.02>
VStem: 173 89<305.256 728.894> 424 144<415.57 656.219> 1187 88<607.032 1014.74>
LayerCount: 2
Back
SplineSet
885 1219 m 6xdf
 1115 1219 1275 1074 1275 834 c 4
 1275 599 1116 299 859 299 c 4xdf
 810 299 777 309 758 330 c 4
 739 351 730 373 731 396 c 6
 731 401 l 5
 670 351 614 326 560 326 c 4xbf
 477 326 424 388 424 468 c 4
 424 671 597 895 790 895 c 4
 842 895 879 867 900 811 c 5
 926 872 l 5
 1066 872 l 5
 869 416 l 6
 866 409 865 404 865 399 c 4
 865 382 881 373 912 373 c 4
 1051 373 1187 634 1187 806 c 4
 1187 1040 1093 1133 876 1133 c 4
 542 1133 262 848 262 496 c 4
 262 265 449 59 696 59 c 4
 911 59 1091 164 1236 373 c 5
 1266 356 l 5
 1118 111 1000 -20 678 -20 c 4
 390 -20 174 202 173 478 c 5
 173 871 483 1219 882 1219 c 6
 885 1219 l 6xdf
604 414 m 4xbf
 730 414 832 605 832 742 c 4
 832 791 812 815 773 815 c 4
 666 815 568 593 568 484 c 4
 568 437 580 414 604 414 c 4xbf
EndSplineSet
Fore
SplineSet
570 326 m 0,0,1
 424 326 424 326 424 488 c 0,2,3
 424 569 424 569 474.5 668 c 128,-1,4
 525 767 525 767 611 831 c 128,-1,5
 697 895 697 895 782.5 895 c 128,-1,6
 868 895 868 895 900 811 c 1,7,-1
 926 872 l 1,8,-1
 1066 872 l 1,9,-1
 869 416 l 2,10,11
 865 407 865 407 865 399 c 0,12,13
 865 373 865 373 921.5 373 c 128,-1,14
 978 373 978 373 1043.5 445.5 c 128,-1,15
 1109 518 1109 518 1148 619 c 128,-1,16
 1187 720 1187 720 1187 806 c 0,17,18
 1187 980 1187 980 1113.5 1056.5 c 128,-1,19
 1040 1133 1040 1133 896.5 1133 c 128,-1,20
 753 1133 753 1133 639.5 1082.5 c 128,-1,21
 526 1032 526 1032 443.5 947 c 128,-1,22
 361 862 361 862 311.5 743.5 c 128,-1,23
 262 625 262 625 262 496 c 0,24,25
 262 320 262 320 388 189.5 c 128,-1,26
 514 59 514 59 696 59 c 0,27,28
 1018 59 1018 59 1236 373 c 1,29,-1
 1266 356 l 1,30,31
 1171 199 1171 199 1104 134 c 128,-1,32
 1037 69 1037 69 981 41 c 0,33,34
 859 -20 859 -20 661.5 -20 c 128,-1,35
 464 -20 464 -20 319 124.5 c 128,-1,36
 174 269 174 269 173 478 c 0,37,38
 173 623 173 623 228.5 759 c 128,-1,39
 284 895 284 895 377.5 996 c 128,-1,40
 471 1097 471 1097 603.5 1158 c 128,-1,41
 736 1219 736 1219 882 1219 c 2,42,-1
 885 1219 l 2,43,44
 1060 1219 1060 1219 1167.5 1115.5 c 128,-1,45
 1275 1012 1275 1012 1275 830 c 128,-1,46
 1275 648 1275 648 1164 479 c 0,47,48
 1112 400 1112 400 1031.5 349.5 c 128,-1,49
 951 299 951 299 868.5 299 c 128,-1,50
 786 299 786 299 758.5 330 c 128,-1,51
 731 361 731 361 731 394 c 2,52,53
 731 401 l 1,54,55
 640 326 640 326 570 326 c 0,0,1
604 414 m 0,56,57
 664 414 664 414 718 467.5 c 128,-1,58
 772 521 772 521 802 597 c 128,-1,59
 832 673 832 673 832 744 c 128,-1,60
 832 815 832 815 773 815 c 0,61,62
 723 815 723 815 673.5 754.5 c 128,-1,63
 624 694 624 694 596 617 c 128,-1,64
 568 540 568 540 568 477 c 128,-1,65
 568 414 568 414 604 414 c 0,56,57
EndSplineSet
Validated: 1
EndChar

StartChar: A
Encoding: 65 65 34
Width: 1159
Flags: MW
AnchorPoint: "ogonek" 1020 0 basechar 0
AnchorPoint: "cedilla" 909 0 basechar 0
AnchorPoint: "below" 524 0 basechar 0
AnchorPoint: "mid" 607 590 basechar 0
AnchorPoint: "top" 795 1270 basechar 0
LayerCount: 2
Fore
SplineSet
191 80 m 1,0,1
 205 43 205 43 312 43 c 1,2,-1
 305 0 l 1,3,-1
 -31 0 l 1,4,-1
 -24 43 l 1,5,6
 89 43 89 43 112 86 c 2,7,-1
 696 1198 l 1,8,-1
 862 1198 l 1,9,-1
 1077 86 l 2,10,11
 1085 43 1085 43 1201 43 c 1,12,-1
 1194 0 l 1,13,-1
 674 0 l 1,14,-1
 681 43 l 1,15,16
 775 43 775 43 804 68 c 1,17,-1
 742 381 l 1,18,-1
 349 381 l 1,19,-1
 191 80 l 1,0,1
634 926 m 1,20,-1
 384 449 l 1,21,-1
 728 449 l 1,22,-1
 634 926 l 1,20,-1
EndSplineSet
Validated: 1
EndChar

StartChar: B
Encoding: 66 66 35
Width: 1226
Flags: MW
AnchorPoint: "top" 764 1270 basechar 0
AnchorPoint: "below" 563 0 basechar 0
AnchorPoint: "mid" 439 324 basechar 0
LayerCount: 2
Fore
SplineSet
1235 946 m 1,0,1
 1219 706 1219 706 951 627 c 1,2,3
 1097 591 1097 591 1163.5 518 c 128,-1,4
 1230 445 1230 445 1230 378 c 0,5,6
 1230 297 1230 297 1182.5 223.5 c 128,-1,7
 1135 150 1135 150 1069 102 c 0,8,9
 928 0 928 0 678 0 c 2,10,-1
 74 0 l 1,11,-1
 81 43 l 1,12,13
 193 43 193 43 217 84 c 1,14,-1
 389 1114 l 1,15,16
 379 1155 379 1155 267 1155 c 1,17,-1
 274 1198 l 1,18,-1
 763 1198 l 2,19,20
 1066 1198 1066 1198 1182 1074 c 0,21,22
 1235 1016 1235 1016 1235 946 c 1,0,1
652 1128 m 1,23,-1
 572 653 l 1,24,25
 621 653 621 653 670 653 c 0,26,27
 820 653 820 653 877 719 c 128,-1,28
 934 785 934 785 955 907 c 1,29,30
 960 922 960 922 960 955 c 0,31,32
 960 1128 960 1128 681 1128 c 2,33,-1
 652 1128 l 1,23,-1
562 594 m 1,34,-1
 475 70 l 1,35,-1
 618 70 l 2,36,37
 775 70 775 70 852 144 c 0,38,39
 949 237 949 237 956 397 c 1,40,41
 956 533 956 533 806 578 c 0,42,43
 753 594 753 594 681 594 c 2,44,-1
 562 594 l 1,34,-1
EndSplineSet
Validated: 1
EndChar

StartChar: C
Encoding: 67 67 36
Width: 1150
Flags: W
HStem: -20 69<599.95 871.106> 909 21G<1158 1205.15> 1149 70<757.086 1023.04> 1178 20G<1184 1234>
VStem: 162 282<263.489 716.556> 1158 45<909 996.233> 1187 47<1158 1198>
AnchorPoint: "cedilla" 700 0 basechar 0
AnchorPoint: "below" 700 0 basechar 0
AnchorPoint: "top" 918 1270 basechar 0
LayerCount: 2
Fore
SplineSet
909 1149 m 0,0,1
 738 1149 738 1149 620.5 1007 c 128,-1,2
 503 865 503 865 460 607 c 0,3,4
 444 513 444 513 444 404 c 128,-1,5
 444 295 444 295 492 199 c 0,6,7
 568 49 568 49 733 49 c 0,8,9
 833 49 833 49 927.5 117.5 c 128,-1,10
 1022 186 1022 186 1067 270 c 1,11,-1
 1147 246 l 1,12,13
 1088 144 1088 144 974.5 62 c 128,-1,14
 861 -20 861 -20 681 -20 c 0,15,16
 353 -20 353 -20 219 236 c 0,17,18
 162 345 162 345 162 475 c 0,19,20
 162 672 162 672 270 848 c 0,21,22
 346 970 346 970 450 1050 c 0,23,24
 669 1219 669 1219 919 1219 c 0,25,26
 979 1219 979 1219 1062.5 1188 c 128,-1,27
 1146 1157 1146 1157 1157 1157 c 0,28,29
 1181 1157 1181 1157 1187 1198 c 1,30,-1
 1234 1198 l 1,31,-1
 1203 909 l 1,32,-1
 1158 909 l 1,33,34
 1158 911 1158 911 1158 913 c 0,35,36
 1158 995 1158 995 1077.5 1072 c 128,-1,37
 997 1149 997 1149 909 1149 c 0,0,1
EndSplineSet
Validated: 1
EndChar

StartChar: D
Encoding: 68 68 37
Width: 1255
Flags: MW
AnchorPoint: "cedilla" 510 0 basechar 0
AnchorPoint: "below" 510 0 basechar 0
AnchorPoint: "mid" 481 586 basechar 0
AnchorPoint: "top" 780 1270 basechar 0
LayerCount: 2
Fore
SplineSet
389 1112 m 1,0,1
 379 1153 379 1153 267 1153 c 1,2,-1
 274 1196 l 1,3,-1
 745 1196 l 2,4,5
 927 1196 927 1196 1059 1121 c 128,-1,6
 1191 1046 1191 1046 1250 910 c 0,7,8
 1290 818 1290 818 1290 738 c 0,9,10
 1290 478 1290 478 1146 288 c 0,11,12
 1042 150 1042 150 890.5 74 c 128,-1,13
 739 -2 739 -2 569 -2 c 2,14,-1
 74 -2 l 1,15,-1
 81 41 l 1,16,17
 193 41 193 41 217 82 c 1,18,-1
 389 1112 l 1,0,1
653 1137 m 1,19,-1
 474 68 l 1,20,-1
 580 68 l 2,21,22
 750 68 750 68 874 244 c 0,23,24
 966 375 966 375 1003 598 c 0,25,26
 1019 695 1019 695 1019 775 c 0,27,28
 1019 1023 1019 1023 865 1106 c 0,29,30
 808 1137 808 1137 735 1137 c 2,31,-1
 653 1137 l 1,19,-1
EndSplineSet
Validated: 1
EndChar

StartChar: E
Encoding: 69 69 38
Width: 1030
Flags: MW
AnchorPoint: "ogonek" 819 0 basechar 0
AnchorPoint: "cedilla" 571 0 basechar 0
AnchorPoint: "below" 571 0 basechar 0
AnchorPoint: "mid" 390 336 basechar 0
AnchorPoint: "top" 780 1270 basechar 0
LayerCount: 2
Fore
SplineSet
816 459 m 1,0,1
 822 496 822 496 822 536 c 128,-1,2
 822 576 822 576 796 588 c 1,3,-1
 561 588 l 1,4,-1
 475 70 l 1,5,-1
 891 70 l 1,6,7
 943 90 943 90 1004 199 c 1,8,-1
 1045 199 l 1,9,-1
 963 0 l 1,10,-1
 74 0 l 1,11,-1
 81 43 l 1,12,13
 193 43 193 43 217 84 c 1,14,-1
 389 1114 l 1,15,16
 379 1155 379 1155 267 1155 c 1,17,-1
 274 1198 l 1,18,-1
 1120 1198 l 1,19,-1
 1087 999 l 1,20,-1
 1044 999 l 1,21,22
 1050 1036 1050 1036 1050 1076 c 128,-1,23
 1050 1116 1050 1116 1025 1128 c 1,24,-1
 652 1128 l 1,25,-1
 573 657 l 1,26,-1
 808 657 l 1,27,28
 852 674 852 674 871 786 c 1,29,-1
 914 786 l 1,30,-1
 859 459 l 1,31,-1
 816 459 l 1,0,1
EndSplineSet
Validated: 1
EndChar

StartChar: F
Encoding: 70 70 39
Width: 956
Flags: MW
AnchorPoint: "top" 780 1270 basechar 0
LayerCount: 2
Fore
SplineSet
477 84 m 1,0,1
 487 43 487 43 599 43 c 1,2,-1
 592 0 l 1,3,-1
 74 0 l 1,4,-1
 81 43 l 1,5,6
 193 43 193 43 217 84 c 1,7,-1
 389 1114 l 1,8,9
 379 1155 379 1155 267 1155 c 1,10,-1
 274 1198 l 1,11,-1
 1120 1198 l 5,12,-1
 1087 999 l 5,13,-1
 1044 999 l 5,14,15
 1050 1036 1050 1036 1050 1076 c 0,16,17
 1050 1116 1050 1116 1025 1128 c 5,18,-1
 652 1128 l 5,19,-1
 573 657 l 1,20,-1
 808 657 l 1,21,22
 852 674 852 674 871 786 c 1,23,-1
 914 786 l 1,24,-1
 859 459 l 1,25,-1
 816 459 l 1,26,27
 822 496 822 496 822 536 c 0,28,29
 822 576 822 576 796 588 c 1,30,-1
 561 588 l 1,31,-1
 477 84 l 1,0,1
EndSplineSet
Validated: 1
EndChar

StartChar: G
Encoding: 71 71 40
Width: 1275
Flags: W
HStem: -20 69<571.768 878.835> 549 43<838 939.307 1233.46 1349> 901 21G<1195 1242.89> 1149 70<784.809 918 919 1041.46> 1178 20G<1219 1269>
VStem: 158 277<278.592 710.771> 1195 46<901 986> 1222 47<1158.21 1198>
AnchorPoint: "mid" 1067 362 basechar 0
AnchorPoint: "top" 948 1270 basechar 0
AnchorPoint: "below" 696 0 basechar 0
AnchorPoint: "cedilla" 696 0 basechar 0
LayerCount: 2
Fore
SplineSet
435 414 m 1,0,1
 435 49 435 49 712 49 c 0,2,3
 802 49 802 49 879 68 c 1,4,-1
 953 508 l 1,5,6
 943 549 943 549 831 549 c 1,7,-1
 838 592 l 1,8,-1
 1356 592 l 1,9,-1
 1349 549 l 1,10,11
 1237 549 1237 549 1213 508 c 1,12,-1
 1155 164 l 1,13,14
 1093 86 1093 86 1019 52 c 0,15,16
 865 -20 865 -20 719 -20 c 0,17,18
 422 -20 422 -20 272 164 c 1,19,20
 158 306 158 306 158 490 c 0,21,22
 158 535 158 535 165 582 c 0,23,24
 221 917 221 917 549 1108 c 0,25,26
 737 1218 737 1218 943 1219 c 0,27,28
 1003 1219 1003 1219 1091.5 1188 c 128,-1,29
 1180 1157 1180 1157 1191 1157 c 0,30,31
 1216 1157 1216 1157 1222 1198 c 1,32,-1
 1269 1198 l 1,33,-1
 1241 901 l 1,34,-1
 1195 901 l 1,35,36
 1195 903 1195 903 1195 905 c 0,37,38
 1195 986 1195 986 1107 1067 c 128,-1,39
 1019 1148 1019 1148 919 1148 c 1,40,-1
 918 1149 l 1,41,42
 819 1149 819 1149 717.5 1073 c 128,-1,43
 616 997 616 997 546 869 c 0,44,45
 436 665 436 665 435 414 c 1,0,1
EndSplineSet
Validated: 1
EndChar

StartChar: H
Encoding: 72 72 41
Width: 1378
Flags: MW
AnchorPoint: "cedilla" 684 0 basechar 0
AnchorPoint: "below" 684 0 basechar 0
AnchorPoint: "mid" 826 860 basechar 0
AnchorPoint: "top" 899 1270 basechar 0
LayerCount: 2
Fore
SplineSet
477 84 m 1,0,1
 487 43 487 43 599 43 c 1,2,-1
 592 0 l 1,3,-1
 74 0 l 1,4,-1
 81 43 l 1,5,6
 193 43 193 43 217 84 c 1,7,-1
 389 1114 l 1,8,9
 379 1155 379 1155 267 1155 c 1,10,-1
 274 1198 l 1,11,-1
 792 1198 l 1,12,-1
 785 1155 l 1,13,14
 673 1155 673 1155 649 1114 c 1,15,-1
 573 657 l 1,16,-1
 1025 657 l 1,17,-1
 1101 1114 l 1,18,19
 1091 1155 1091 1155 979 1155 c 1,20,-1
 986 1198 l 1,21,-1
 1505 1198 l 1,22,-1
 1498 1155 l 1,23,24
 1386 1155 1386 1155 1362 1114 c 1,25,-1
 1190 84 l 1,26,27
 1200 43 1200 43 1312 43 c 1,28,-1
 1305 0 l 1,29,-1
 786 0 l 1,30,-1
 793 43 l 1,31,32
 905 43 905 43 929 84 c 1,33,-1
 1013 588 l 1,34,-1
 561 588 l 1,35,-1
 477 84 l 1,0,1
EndSplineSet
Validated: 1
EndChar

StartChar: I
Encoding: 73 73 42
Width: 665
Flags: MW
AnchorPoint: "mid" 451 602 basechar 0
AnchorPoint: "ogonek" 449 0 basechar 0
AnchorPoint: "cedilla" 344 0 basechar 0
AnchorPoint: "below" 342 0 basechar 0
AnchorPoint: "top" 555 1270 basechar 0
LayerCount: 2
Fore
SplineSet
477 84 m 1,0,1
 487 43 487 43 599 43 c 1,2,-1
 592 0 l 1,3,-1
 74 0 l 1,4,-1
 81 43 l 1,5,6
 193 43 193 43 217 84 c 1,7,-1
 389 1114 l 1,8,9
 379 1155 379 1155 267 1155 c 1,10,-1
 274 1198 l 1,11,-1
 792 1198 l 1,12,-1
 785 1155 l 1,13,14
 673 1155 673 1155 649 1114 c 1,15,-1
 477 84 l 1,0,1
EndSplineSet
Validated: 1
EndChar

StartChar: J
Encoding: 74 74 43
Width: 868
Flags: W
HStem: -20 72<186.093 380.81> 1155 43<511 612.307 906.461 1022>
VStem: 28 209<119.901 247.937>
AnchorPoint: "top" 791 1270 basechar 0
LayerCount: 2
Fore
SplineSet
1022 1155 m 1,0,1
 910 1155 910 1155 886 1114 c 1,2,-1
 775 446 l 2,3,4
 735 209 735 209 620.5 94.5 c 128,-1,5
 506 -20 506 -20 306 -20 c 0,6,7
 161 -20 161 -20 94.5 34 c 128,-1,8
 28 88 28 88 28 144.5 c 128,-1,9
 28 201 28 201 68.5 244 c 128,-1,10
 109 287 109 287 146 287 c 2,11,12
 149 287 l 2,13,14
 185 287 185 287 211 261.5 c 128,-1,15
 237 236 237 236 237 219 c 0,16,17
 237 129 237 129 170 109 c 1,18,19
 171 108 171 108 177 98 c 0,20,21
 206 52 206 52 275 52 c 128,-1,22
 344 52 344 52 379 81 c 128,-1,23
 414 110 414 110 450.5 196.5 c 128,-1,24
 487 283 487 283 527 520 c 2,25,-1
 626 1114 l 1,26,27
 616 1155 616 1155 504 1155 c 1,28,-1
 511 1198 l 1,29,-1
 1029 1198 l 1,30,-1
 1022 1155 l 1,0,1
EndSplineSet
Validated: 1
EndChar

StartChar: K
Encoding: 75 75 44
Width: 1284
Flags: W
HStem: 0 43<81 196.539 486.693 588 867 943.12 1226.55 1331> 1155 43<274 375.307 665.461 781 1066 1161.18 1279.27 1381>
AnchorPoint: "mid" 537 946 basechar 0
AnchorPoint: "below" 709 0 basechar 0
AnchorPoint: "cedilla" 709 0 basechar 0
AnchorPoint: "top" 940 1270 basechar 0
LayerCount: 2
Fore
SplineSet
473 84 m 1,0,1
 483 43 483 43 595 43 c 1,2,-1
 588 0 l 1,3,-1
 74 0 l 1,4,-1
 81 43 l 1,5,6
 193 43 193 43 217 84 c 1,7,-1
 389 1114 l 1,8,9
 379 1155 379 1155 267 1155 c 1,10,-1
 274 1198 l 1,11,-1
 788 1198 l 1,12,-1
 781 1155 l 1,13,14
 669 1155 669 1155 645 1114 c 1,15,-1
 473 84 l 1,0,1
860 0 m 1,16,-1
 867 43 l 1,17,18
 916 43 916 43 944 49 c 1,19,-1
 577 643 l 1,20,-1
 1162 1141 l 1,21,22
 1136 1155 1136 1155 1059 1155 c 1,23,-1
 1066 1198 l 1,24,-1
 1388 1198 l 1,25,-1
 1381 1155 l 1,26,27
 1338 1155 l 2,28,29
 1299 1155 1299 1155 1246 1108 c 1,30,-1
 812 741 l 1,31,-1
 1215 76 l 2,32,33
 1235 43 1235 43 1338 43 c 1,34,-1
 1331 0 l 1,35,-1
 860 0 l 1,16,-1
EndSplineSet
Validated: 1
EndChar

StartChar: L
Encoding: 76 76 45
Width: 1019
Flags: MW
AnchorPoint: "mid" 455 698 basechar 0
AnchorPoint: "cedilla" 569 0 basechar 0
AnchorPoint: "below" 569 0 basechar 0
AnchorPoint: "top" 547 1270 basechar 0
LayerCount: 2
Fore
SplineSet
785 1155 m 1,0,1
 673 1155 673 1155 649 1114 c 1,2,-1
 475 70 l 1,3,-1
 901 70 l 1,4,5
 953 90 953 90 1014 199 c 1,6,-1
 1055 199 l 1,7,-1
 973 0 l 1,8,-1
 74 0 l 1,9,-1
 81 43 l 1,10,11
 193 43 193 43 217 84 c 1,12,-1
 389 1114 l 1,13,14
 379 1155 379 1155 267 1155 c 1,15,-1
 274 1198 l 1,16,-1
 792 1198 l 1,17,-1
 785 1155 l 1,0,1
EndSplineSet
Validated: 1
EndChar

StartChar: M
Encoding: 77 77 46
Width: 1765
Flags: MW
AnchorPoint: "below" 793 0 basechar 0
AnchorPoint: "cedilla" 793 0 basechar 0
AnchorPoint: "top" 1071 1270 basechar 0
LayerCount: 2
Fore
SplineSet
286 84 m 1,0,1
 296 43 296 43 408 43 c 1,2,-1
 401 0 l 1,3,-1
 74 0 l 1,4,-1
 81 43 l 1,5,6
 193 43 193 43 217 84 c 1,7,-1
 389 1114 l 1,8,9
 379 1155 379 1155 267 1155 c 1,10,-1
 274 1198 l 1,11,-1
 644 1198 l 1,12,-1
 922 246 l 1,13,-1
 1517 1198 l 1,14,-1
 1892 1198 l 1,15,-1
 1885 1155 l 1,16,17
 1773 1155 1773 1155 1749 1114 c 1,18,-1
 1577 84 l 1,19,20
 1587 43 1587 43 1699 43 c 1,21,-1
 1692 0 l 1,22,-1
 1174 0 l 1,23,-1
 1181 43 l 1,24,25
 1293 43 1293 43 1317 84 c 1,26,-1
 1471 1004 l 1,27,-1
 844 0 l 1,28,-1
 741 0 l 1,29,-1
 442 1016 l 1,30,-1
 286 84 l 1,0,1
EndSplineSet
Validated: 1
EndChar

StartChar: N
Encoding: 78 78 47
Width: 1275
Flags: MW
AnchorPoint: "mid" 775 676 basechar 0
AnchorPoint: "cedilla" 639 0 basechar 0
AnchorPoint: "below" 639 0 basechar 0
AnchorPoint: "top" 852 1270 basechar 0
LayerCount: 2
Fore
SplineSet
286 84 m 1,0,1
 296 43 296 43 408 43 c 1,2,-1
 401 0 l 1,3,-1
 74 0 l 1,4,-1
 81 43 l 1,5,6
 193 43 193 43 217 84 c 1,7,-1
 389 1114 l 1,8,9
 379 1155 379 1155 267 1155 c 1,10,-1
 274 1198 l 1,11,-1
 620 1198 l 1,12,-1
 1088 369 l 1,13,-1
 1212 1114 l 1,14,15
 1202 1155 1202 1155 1090 1155 c 1,16,-1
 1097 1198 l 1,17,-1
 1425 1198 l 1,18,-1
 1418 1155 l 1,19,20
 1306 1155 1306 1155 1282 1114 c 1,21,-1
 1096 0 l 1,22,-1
 1006 0 l 1,23,-1
 442 1014 l 1,24,-1
 286 84 l 1,0,1
EndSplineSet
Validated: 1
EndChar

StartChar: O
Encoding: 79 79 48
Width: 1359
Flags: W
HStem: -20 69<570.634 834.451> 1149 70<723.096 882 884 988.672>
VStem: 160 275<285.058 716.029> 1124 272<462.5 919.984>
AnchorPoint: "ogonek" 750 0 basechar 0
AnchorPoint: "cedilla" 690 0 basechar 0
AnchorPoint: "below" 690 0 basechar 0
AnchorPoint: "mid" 801 602 basechar 0
AnchorPoint: "top" 901 1270 basechar 0
LayerCount: 2
Fore
SplineSet
435 458 m 1,0,1
 435 408 l 2,2,3
 435 370 435 370 447 300 c 128,-1,4
 459 230 459 230 487 174.5 c 128,-1,5
 515 119 515 119 568.5 84 c 128,-1,6
 622 49 622 49 704.5 49 c 128,-1,7
 787 49 787 49 861.5 97.5 c 128,-1,8
 936 146 936 146 984 228 c 0,9,10
 1124 464 1124 464 1124 766 c 0,11,12
 1124 862 1124 862 1098.5 953.5 c 128,-1,13
 1073 1045 1073 1045 1013.5 1097 c 128,-1,14
 954 1149 954 1149 872 1149 c 0,15,16
 720 1149 720 1149 626 1038 c 128,-1,17
 532 927 532 927 485.5 766 c 128,-1,18
 439 605 439 605 435 458 c 1,0,1
168 580 m 0,19,20
 216 852 216 852 422 1034 c 0,21,22
 517 1118 517 1118 638 1168.5 c 128,-1,23
 759 1219 759 1219 882 1219 c 1,24,-1
 884 1218 l 1,25,26
 1008 1218 1008 1218 1112 1168 c 0,27,28
 1321 1067 1321 1067 1380 836 c 0,29,30
 1396 774 1396 774 1396 709 c 128,-1,31
 1396 644 1396 644 1385 578 c 0,32,33
 1361 434 1361 434 1255.5 291.5 c 128,-1,34
 1150 149 1150 149 995.5 64.5 c 128,-1,35
 841 -20 841 -20 675.5 -20 c 128,-1,36
 510 -20 510 -20 383.5 65 c 128,-1,37
 257 150 257 150 200 294 c 0,38,39
 160 394 160 394 160 465.5 c 128,-1,40
 160 537 160 537 168 580 c 0,19,20
EndSplineSet
Validated: 1
EndChar

StartChar: P
Encoding: 80 80 49
Width: 1157
Flags: MW
AnchorPoint: "cedilla" 334 0 basechar 0
AnchorPoint: "mid" 395 328 basechar 0
AnchorPoint: "below" 334 0 basechar 0
AnchorPoint: "top" 735 1270 basechar 0
LayerCount: 2
Fore
SplineSet
477 84 m 1,0,1
 487 43 487 43 599 43 c 1,2,-1
 592 0 l 1,3,-1
 74 0 l 1,4,-1
 81 43 l 1,5,6
 193 43 193 43 217 84 c 1,7,-1
 389 1114 l 1,8,9
 379 1155 379 1155 267 1155 c 1,10,-1
 274 1198 l 1,11,-1
 818 1198 l 2,12,13
 949 1198 949 1198 1048 1169 c 128,-1,14
 1147 1140 1147 1140 1199 1094 c 0,15,16
 1287 1016 1287 1016 1287 923 c 0,17,18
 1287 906 1287 906 1284 889 c 0,19,20
 1256 733 1256 733 1118 639 c 0,21,22
 980 545 980 545 734 545 c 2,23,-1
 554 545 l 1,24,-1
 477 84 l 1,0,1
652 1128 m 1,25,-1
 566 614 l 1,26,-1
 674 614 l 2,27,28
 831 614 831 614 906.5 677 c 128,-1,29
 982 740 982 740 1006 885 c 0,30,31
 1011 913 1011 913 1011 938 c 0,32,33
 1011 1128 1011 1128 736 1128 c 2,34,-1
 652 1128 l 1,25,-1
EndSplineSet
Validated: 1
EndChar

StartChar: Q
Encoding: 81 81 50
Width: 1359
Flags: W
HStem: -209 73<1031.67 1199.6> -20 69<571.121 767.32> 209 90<517.398 724.25> 1149 70<725.227 882 884 988.672>
VStem: 160 275<283.852 717.066> 1124 272<468.435 919.984>
LayerCount: 2
Fore
SplineSet
168 580 m 0,0,1
 216 852 216 852 422 1034 c 0,2,3
 517 1118 517 1118 638 1168.5 c 128,-1,4
 759 1219 759 1219 882 1219 c 1,5,-1
 884 1218 l 1,6,7
 1008 1218 1008 1218 1112 1168 c 0,8,9
 1321 1067 1321 1067 1380 836 c 0,10,11
 1396 776 1396 776 1396 710 c 0,12,13
 1396 476 1396 476 1248 284 c 0,14,15
 1136 138 1136 138 981 57 c 1,16,17
 984 46 984 46 996 -10.5 c 128,-1,18
 1008 -67 1008 -67 1019.5 -84.5 c 128,-1,19
 1031 -102 1031 -102 1045.5 -119 c 128,-1,20
 1060 -136 1060 -136 1094 -136 c 0,21,22
 1203 -134 1203 -134 1277 -41 c 1,23,-1
 1304 -63 l 1,24,25
 1277 -113 1277 -113 1216.5 -161 c 128,-1,26
 1156 -209 1156 -209 1084 -209 c 0,27,28
 941 -209 941 -209 878.5 -151.5 c 128,-1,29
 816 -94 816 -94 786 -10 c 1,30,31
 726 -20 726 -20 677 -20 c 0,32,33
 510 -20 510 -20 383.5 65 c 128,-1,34
 257 150 257 150 200 294 c 0,35,36
 160 394 160 394 160 465.5 c 128,-1,37
 160 537 160 537 168 580 c 0,0,1
768 57 m 1,38,39
 740 158 740 158 723 174 c 0,40,41
 687 209 687 209 647 209 c 0,42,43
 565 209 565 209 493 166 c 1,44,45
 559 49 559 49 696 49 c 0,46,47
 740 49 740 49 768 57 c 1,38,39
939 168 m 1,48,49
 1064 313 1064 313 1109 582 c 0,50,51
 1124 670 1124 670 1124 766 c 128,-1,52
 1124 862 1124 862 1098.5 953.5 c 128,-1,53
 1073 1045 1073 1045 1013.5 1097 c 128,-1,54
 954 1149 954 1149 872 1149 c 0,55,56
 720 1149 720 1149 619 1030 c 1,57,58
 493 876 493 876 451 614 c 0,59,60
 435 519 435 519 435 417 c 128,-1,61
 435 315 435 315 469 219 c 1,62,63
 562 299 562 299 675 299 c 0,64,65
 867 299 867 299 939 168 c 1,48,49
EndSplineSet
Validated: 1
EndChar

StartChar: R
Encoding: 82 82 51
Width: 1206
Flags: W
HStem: 0 43<81 196.539 490.693 592 1130.01 1233> 545 69<566 634> 1128 70<652 878.143> 1155 43<274 375.307>
VStem: 971 276<772.056 1051.37>
AnchorPoint: "top" 825 1270 basechar 0
AnchorPoint: "below" 690 0 basechar 0
AnchorPoint: "mid" 395 328 basechar 0
AnchorPoint: "cedilla" 690 0 basechar 0
LayerCount: 2
Fore
SplineSet
477 84 m 1,0,1
 487 43 487 43 599 43 c 1,2,-1
 592 0 l 1,3,-1
 74 0 l 1,4,-1
 81 43 l 1,5,6
 193 43 193 43 217 84 c 1,7,-1
 389 1114 l 1,8,9
 379 1155 379 1155 267 1155 c 1,10,-1
 274 1198 l 1,11,-1
 778 1198 l 2,12,13
 1042 1198 1042 1198 1158 1098 c 0,14,15
 1247 1021 1247 1021 1247 928 c 0,16,17
 1247 805 1247 805 1154 708 c 128,-1,18
 1061 611 1061 611 921 573 c 1,19,-1
 1112 86 l 1,20,21
 1126 43 1126 43 1240 43 c 1,22,-1
 1233 0 l 1,23,-1
 1145 0 l 2,24,25
 983 0 983 0 909.5 18.5 c 128,-1,26
 836 37 836 37 809 106 c 2,27,-1
 634 545 l 1,28,-1
 554 545 l 1,29,-1
 477 84 l 1,0,1
652 1128 m 1,30,-1
 566 614 l 1,31,-1
 633 614 l 2,32,33
 771 614 771 614 856 676 c 0,34,35
 971 761 971 761 971 943 c 0,36,37
 971 1024 971 1024 905.5 1076 c 128,-1,38
 840 1128 840 1128 695 1128 c 2,39,-1
 652 1128 l 1,30,-1
EndSplineSet
Validated: 1
EndChar

StartChar: S
Encoding: 83 83 52
Width: 962
Flags: W
HStem: -20 69<364.499 634.834> 0 21G<94 142.5> 1149 70<531.198 755.445> 1178 20G<924 974>
VStem: 94 47<0 30.4551> 148 45<237.984 324> 243 188<769.5 1006.49> 757 201<191.884 353.219> 899 45<889 979.524> 927 47<1158.21 1198>
AnchorPoint: "cedilla" 496 0 basechar 0
AnchorPoint: "below" 496 0 basechar 0
AnchorPoint: "mid" 607 602 basechar 0
AnchorPoint: "top" 684 1270 basechar 0
LayerCount: 2
Fore
SplineSet
896 1157 m 0,0,1
 921 1157 921 1157 927 1198 c 1,2,-1
 974 1198 l 1,3,-1
 944 889 l 1,4,-1
 899 889 l 1,5,6
 899 891 899 891 899 893 c 0,7,8
 899 976 899 976 816 1062.5 c 128,-1,9
 733 1149 733 1149 658.5 1149 c 128,-1,10
 584 1149 584 1149 535 1117 c 0,11,12
 431 1050 431 1050 431 956 c 0,13,14
 431 885 431 885 596 780 c 128,-1,15
 761 675 761 675 811 629.5 c 128,-1,16
 861 584 861 584 909.5 522 c 128,-1,17
 958 460 958 460 958 365 c 0,18,19
 958 363 958 363 958 361 c 0,20,21
 958 249 958 249 902 173.5 c 128,-1,22
 846 98 846 98 782 60 c 0,23,24
 648 -20 648 -20 508.5 -20 c 128,-1,25
 369 -20 369 -20 247 26 c 0,26,27
 206 42 206 42 193 41.5 c 128,-1,28
 180 41 180 41 162 29 c 128,-1,29
 144 17 144 17 141 0 c 1,30,-1
 94 0 l 1,31,-1
 148 324 l 1,32,-1
 193 324 l 1,33,34
 194 261 194 261 225 207 c 128,-1,35
 256 153 256 153 302 120 c 0,36,37
 401 49 401 49 499 49 c 128,-1,38
 597 49 597 49 677 109 c 128,-1,39
 757 169 757 169 757 262 c 0,40,41
 757 315 757 315 699 366 c 128,-1,42
 641 417 641 417 564 466.5 c 128,-1,43
 487 516 487 516 464 532 c 0,44,45
 243 684 243 684 243 855 c 0,46,47
 243 960 243 960 315 1044 c 128,-1,48
 387 1128 387 1128 478 1173.5 c 128,-1,49
 569 1219 569 1219 644 1219 c 128,-1,50
 719 1219 719 1219 802 1188 c 128,-1,51
 885 1157 885 1157 896 1157 c 0,0,1
EndSplineSet
Validated: 1
EndChar

StartChar: T
Encoding: 84 84 53
Width: 1112
Flags: MW
AnchorPoint: "below" 561 0 basechar 0
AnchorPoint: "cedilla" 561 0 basechar 0
AnchorPoint: "mid" 667 647 basechar 0
AnchorPoint: "top" 774 1270 basechar 0
LayerCount: 2
Fore
SplineSet
304 43 m 1,0,1
 416 43 416 43 440 84 c 1,2,-1
 615 1128 l 1,3,-1
 330 1128 l 1,4,5
 254 1099 254 1099 237 999 c 1,6,-1
 194 999 l 1,7,-1
 227 1198 l 1,8,-1
 1285 1198 l 1,9,-1
 1252 999 l 1,10,-1
 1209 999 l 1,11,12
 1212 1019 1212 1019 1213 1036 c 1,13,14
 1213 1104 1213 1104 1160 1128 c 1,15,-1
 875 1128 l 1,16,-1
 700 84 l 1,17,18
 710 43 710 43 822 43 c 1,19,-1
 815 0 l 1,20,-1
 297 0 l 1,21,-1
 304 43 l 1,0,1
EndSplineSet
Validated: 1
EndChar

StartChar: U
Encoding: 85 85 54
Width: 1236
Flags: MW
AnchorPoint: "mid" 823 694 basechar 0
AnchorPoint: "ogonek" 662 0 basechar 0
AnchorPoint: "below" 662 0 basechar 0
AnchorPoint: "cedilla" 662 0 basechar 0
AnchorPoint: "top" 932 1270 basechar 0
LayerCount: 2
Fore
SplineSet
748 1155 m 1,0,1
 636 1155 636 1155 612 1114 c 1,2,-1
 506 479 l 2,3,4
 492 396 492 396 492 310 c 128,-1,5
 492 224 492 224 525 159 c 0,6,7
 579 49 579 49 715 49 c 128,-1,8
 851 49 851 49 949 161.5 c 128,-1,9
 1047 274 1047 274 1079 467 c 2,10,-1
 1187 1114 l 1,11,12
 1177 1155 1177 1155 1065 1155 c 1,13,-1
 1072 1198 l 1,14,-1
 1400 1198 l 1,15,-1
 1393 1155 l 1,16,17
 1281 1155 1281 1155 1257 1114 c 1,18,-1
 1156 508 l 2,19,20
 1090 118 1090 118 816 10 c 0,21,22
 739 -20 739 -20 654 -20 c 0,23,24
 238 -20 238 -20 238 359 c 0,25,26
 238 427 238 427 251 508 c 2,27,-1
 352 1114 l 1,28,29
 342 1155 342 1155 230 1155 c 1,30,-1
 237 1198 l 1,31,-1
 755 1198 l 1,32,-1
 748 1155 l 1,0,1
EndSplineSet
Validated: 1
EndChar

StartChar: V
Encoding: 86 86 55
Width: 1159
Flags: MW
AnchorPoint: "mid" 827 901 basechar 0
AnchorPoint: "cedilla" 588 0 basechar 0
AnchorPoint: "below" 588 0 basechar 0
AnchorPoint: "top" 891 1270 basechar 0
LayerCount: 2
Fore
SplineSet
1168 1118 m 1,0,1
 1154 1155 1154 1155 1047 1155 c 1,2,-1
 1054 1198 l 1,3,-1
 1390 1198 l 1,4,-1
 1383 1155 l 1,5,6
 1270 1155 1270 1155 1247 1112 c 2,7,-1
 664 0 l 1,8,-1
 498 0 l 1,9,-1
 282 1112 l 2,10,11
 274 1155 274 1155 158 1155 c 1,12,-1
 165 1198 l 1,13,-1
 685 1198 l 1,14,-1
 678 1155 l 1,15,16
 585 1155 585 1155 556 1130 c 1,17,-1
 726 272 l 1,18,-1
 1168 1118 l 1,0,1
EndSplineSet
Validated: 1
EndChar

StartChar: W
Encoding: 87 87 56
Width: 1837
Flags: MW
AnchorPoint: "mid" 1023 602 basechar 0
AnchorPoint: "ogonek" 1255 0 basechar 0
AnchorPoint: "cedilla" 934 0 basechar 0
AnchorPoint: "below" 934 0 basechar 0
AnchorPoint: "top" 1092 1270 basechar 0
LayerCount: 2
Fore
SplineSet
1848 1118 m 1,0,1
 1834 1155 1834 1155 1727 1155 c 1,2,-1
 1734 1198 l 1,3,-1
 2070 1198 l 1,4,-1
 2063 1155 l 1,5,6
 1950 1155 1950 1155 1927 1112 c 2,7,-1
 1343 0 l 1,8,-1
 1174 0 l 1,9,-1
 1038 715 l 1,10,-1
 664 0 l 1,11,-1
 494 0 l 1,12,-1
 282 1112 l 2,13,14
 274 1155 274 1155 158 1155 c 1,15,-1
 165 1198 l 1,16,-1
 685 1198 l 1,17,-1
 678 1155 l 1,18,19
 585 1155 585 1155 556 1130 c 1,20,-1
 726 274 l 1,21,-1
 1016 829 l 1,22,-1
 962 1112 l 2,23,24
 954 1155 954 1155 838 1155 c 1,25,-1
 845 1198 l 1,26,-1
 1365 1198 l 1,27,-1
 1358 1155 l 1,28,29
 1265 1155 1265 1155 1236 1130 c 1,30,-1
 1406 272 l 1,31,-1
 1848 1118 l 1,0,1
EndSplineSet
Validated: 1
EndChar

StartChar: X
Encoding: 88 88 57
Width: 1095
Flags: MW
LayerCount: 2
Fore
SplineSet
712 1198 m 1,0,-1
 705 1155 l 1,1,2
 608 1155 608 1155 582 1130 c 1,3,-1
 730 764 l 1,4,-1
 1036 1124 l 1,5,6
 1022 1155 1022 1155 918 1155 c 1,7,-1
 925 1198 l 1,8,-1
 1261 1198 l 1,9,-1
 1254 1155 l 1,10,11
 1192 1155 1192 1155 1163 1146 c 128,-1,12
 1134 1137 1134 1137 1116 1114 c 1,13,-1
 759 694 l 1,14,-1
 1005 86 l 1,15,16
 1020 43 1020 43 1129 43 c 1,17,-1
 1122 0 l 1,18,-1
 602 0 l 1,19,-1
 609 43 l 1,20,21
 706 43 706 43 732 68 c 1,22,-1
 571 471 l 1,23,-1
 231 72 l 1,24,25
 249 43 249 43 349 43 c 1,26,-1
 342 0 l 1,27,-1
 6 0 l 1,28,-1
 13 43 l 1,29,30
 120 43 120 43 151 82 c 1,31,-1
 542 541 l 1,32,-1
 309 1114 l 2,33,34
 292 1155 292 1155 185 1155 c 1,35,-1
 192 1198 l 1,36,-1
 712 1198 l 1,0,-1
EndSplineSet
Validated: 1
EndChar

StartChar: Y
Encoding: 89 89 58
Width: 1196
Flags: MW
AnchorPoint: "ogonek" 684 0 basechar 0
AnchorPoint: "cedilla" 623 0 basechar 0
AnchorPoint: "mid" 683 410 basechar 0
AnchorPoint: "below" 618 0 basechar 0
AnchorPoint: "top" 913 1270 basechar 0
LayerCount: 2
Fore
SplineSet
355 43 m 1,0,1
 467 43 467 43 491 84 c 1,2,-1
 552 451 l 1,3,-1
 284 1114 l 2,4,5
 268 1155 268 1155 160 1155 c 1,6,-1
 167 1198 l 1,7,-1
 687 1198 l 1,8,-1
 680 1155 l 1,9,10
 584 1155 584 1155 558 1130 c 1,11,-1
 782 575 l 1,12,-1
 1201 1118 l 1,13,14
 1186 1155 1186 1155 1080 1155 c 1,15,-1
 1087 1198 l 1,16,-1
 1423 1198 l 1,17,-1
 1416 1155 l 1,18,19
 1315 1155 1315 1155 1295 1128 c 2,20,-1
 823 516 l 1,21,-1
 751 84 l 1,22,23
 761 43 761 43 873 43 c 1,24,-1
 866 0 l 1,25,-1
 348 0 l 1,26,-1
 355 43 l 1,0,1
EndSplineSet
Validated: 1
EndChar

StartChar: Z
Encoding: 90 90 59
Width: 1007
Flags: MW
AnchorPoint: "mid" 576 602 basechar 0
AnchorPoint: "cedilla" 520 0 basechar 0
AnchorPoint: "below" 520 0 basechar 0
AnchorPoint: "top" 713 1270 basechar 0
LayerCount: 2
Fore
SplineSet
913 0 m 1,0,-1
 29 0 l 1,1,-1
 798 1137 l 1,2,-1
 403 1137 l 1,3,4
 377 1127 377 1127 345 1077 c 128,-1,5
 313 1027 313 1027 303 967 c 1,6,-1
 260 967 l 1,7,-1
 298 1198 l 1,8,-1
 1124 1198 l 1,9,-1
 354 61 l 1,10,-1
 809 61 l 1,11,12
 835 71 835 71 885.5 130.5 c 128,-1,13
 936 190 936 190 964 250 c 1,14,-1
 1007 250 l 1,15,-1
 913 0 l 1,0,-1
EndSplineSet
Validated: 1
EndChar

StartChar: bracketleft
Encoding: 91 91 60
Width: 567
Flags: MW
LayerCount: 2
Fore
SplineSet
558 1186 m 1,0,-1
 319 -246 l 1,1,-1
 485 -246 l 1,2,-1
 473 -319 l 1,3,-1
 72 -319 l 1,4,-1
 336 1260 l 1,5,-1
 737 1260 l 1,6,-1
 724 1186 l 1,7,-1
 558 1186 l 1,0,-1
EndSplineSet
Validated: 1
EndChar

StartChar: backslash
Encoding: 92 92 61
Width: 970
Flags: MW
LayerCount: 2
Fore
SplineSet
931 -20 m 1,0,-1
 824 -57 l 1,1,-1
 241 1217 l 1,2,-1
 347 1253 l 1,3,-1
 931 -20 l 1,0,-1
EndSplineSet
Validated: 1
EndChar

StartChar: bracketright
Encoding: 93 93 62
Width: 567
Flags: MW
LayerCount: 2
Fore
SplineSet
166 -246 m 1,0,-1
 405 1186 l 1,1,-1
 239 1186 l 1,2,-1
 252 1260 l 1,3,-1
 653 1260 l 1,4,-1
 389 -319 l 1,5,-1
 -12 -319 l 1,6,-1
 -0 -246 l 1,7,-1
 166 -246 l 1,0,-1
EndSplineSet
Validated: 1
EndChar

StartChar: asciicircum
Encoding: 94 94 63
Width: 933
Flags: MW
LayerCount: 2
Fore
SplineSet
682 1122 m 1,0,-1
 952 721 l 1,1,-1
 868 631 l 1,2,-1
 631 983 l 1,3,-1
 278 631 l 1,4,-1
 223 721 l 1,5,-1
 626 1122 l 1,6,-1
 682 1122 l 1,0,-1
EndSplineSet
Validated: 1
EndChar

StartChar: underscore
Encoding: 95 95 64
Width: 933
Flags: MW
LayerCount: 2
Fore
SplineSet
77 -102 m 1,0,-1
 823 -102 l 1,1,-1
 808 -193 l 1,2,-1
 62 -193 l 1,3,-1
 77 -102 l 1,0,-1
EndSplineSet
Validated: 1
EndChar

StartChar: grave
Encoding: 96 96 65
Width: 614
Flags: MW
LayerCount: 2
Fore
SplineSet
608 1356 m 1,0,-1
 663 1024 l 1,1,-1
 568 1024 l 1,2,-1
 350 1356 l 1,3,-1
 608 1356 l 1,0,-1
EndSplineSet
Validated: 1
EndChar

StartChar: a
Encoding: 97 97 66
Width: 1030
Flags: W
HStem: -16 61<377.678 543.789 779.5 1014.11> 848 74<448.184 678.64>
VStem: 85 262<61.1599 305.816> 215 213<613.596 749.988> 662 248<118.851 413.062> 734 253<434.601 788.389>
AnchorPoint: "mid" 507 242 basechar 0
AnchorPoint: "ogonek" 864 0 basechar 0
AnchorPoint: "cedilla" 426 0 basechar 0
AnchorPoint: "below" 506 0 basechar 0
AnchorPoint: "top" 652 1055 basechar 0
LayerCount: 2
Back
SplineSet
734 100 m 5
 676 25 503 -20 393 -20 c 4
 165 -20 51 63 51 229 c 4
 51 413 474 473 645 506 c 5
 643 461 l 5
 485 422 313 371 313 234 c 132
 313 129 352 49 438 49 c 4
 502 49 630 74 689 136 c 5
 734 100 l 5
1004 58 m 5
 990 50 972 45 956 45 c 132
 904 45 885 108 885 172 c 6
 885 578 l 6
 885 791 709 922 488 922 c 132
 298 922 100 865 100 696 c 4
 100 640 149 594 204 594 c 132
 253 594 313 617 313 666 c 4
 313 722 297 750 266 750 c 5
 281 817 375 848 464 848 c 132
 606 848 629 744 629 506 c 5
 629 229 l 6
 629 62 724 -16 840 -16 c 4
 924 -16 985 -4 1022 19 c 5
 1004 58 l 5
EndSplineSet
Fore
SplineSet
910 128 m 0,0,1
 910 45 910 45 958 45 c 0,2,3
 988 45 988 45 1014 58 c 1,4,-1
 1025 19 l 1,5,6
 963 -16 963 -16 854 -16 c 0,7,8
 705 -16 705 -16 671 96 c 1,9,10
 539 -20 539 -20 390 -20 c 0,11,12
 85 -20 85 -20 85 178 c 0,13,14
 85 202 85 202 89 229 c 0,15,16
 99 291 99 291 167.5 337.5 c 128,-1,17
 236 384 236 384 299 405 c 0,18,19
 470 461 470 461 713 503 c 1,20,21
 734 628 734 628 734 687 c 0,22,23
 734 848 734 848 606 848 c 0,24,25
 533 848 533 848 471.5 822.5 c 128,-1,26
 410 797 410 797 392 750 c 1,27,28
 428 750 428 750 428 700 c 0,29,30
 428 685 428 685 423.5 658.5 c 128,-1,31
 419 632 419 632 382 613 c 128,-1,32
 345 594 345 594 303 594 c 128,-1,33
 261 594 261 594 238 620.5 c 128,-1,34
 215 647 215 647 215 668 c 0,35,36
 215 732 215 732 261 793.5 c 128,-1,37
 307 855 307 855 411.5 888.5 c 128,-1,38
 516 922 516 922 642 922 c 0,39,40
 812 922 812 922 910 828 c 0,41,42
 987 754 987 754 987 641 c 0,43,44
 987 611 987 611 982 578 c 2,45,-1
 914 172 l 2,46,47
 910 148 910 148 910 128 c 0,0,1
441 360 m 1,48,49
 347 296 347 296 347 172.5 c 128,-1,50
 347 49 347 49 440 49 c 0,51,52
 558 49 558 49 662 159 c 1,53,54
 662 164 662 164 662 180 c 128,-1,55
 662 196 662 196 667 229 c 2,56,-1
 706 458 l 1,57,58
 517 413 517 413 441 360 c 1,48,49
EndSplineSet
Validated: 1
EndChar

StartChar: b
Encoding: 98 98 67
Width: 1132
Flags: W
HStem: -20 69<387.469 674.469> 860 70<567.754 822.078> 1155 47<189 304.55> 1270 20G<566.5 585.651>
VStem: 895 261<332.479 739.459>
AnchorPoint: "mid" 460 1044 basechar 0
AnchorPoint: "below" 526 0 basechar 0
AnchorPoint: "top" 777 1055 basechar 0
LayerCount: 2
Back
SplineSet
117 1147 m 1
 44 1152 1 1155 -12 1155 c 1
 -12 1202 l 1
 14 1202 76 1217 176 1246 c 128
 276 1275 342 1290 373 1290 c 1
 373 872 l 5
 435 911 511 930 602 930 c 4
 738 930 875 863 952 784 c 132
 1018 717 1071 595 1071 462 c 132
 1071 163 859 -20 572 -20 c 132
 389 -20 209 -7 117 56 c 5
 117 1147 l 1
805 451 m 132
 805 655 755 860 572 860 c 132
 494 860 428 842 373 807 c 5
 373 80 l 5
 421 63 480 49 550 49 c 132
 725 49 805 252 805 451 c 132
EndSplineSet
Fore
SplineSet
309 1147 m 1,0,1
 193 1155 193 1155 181 1155 c 1,2,-1
 189 1202 l 1,3,4
 225 1202 225 1202 384.5 1246 c 128,-1,5
 544 1290 544 1290 589 1290 c 1,6,-1
 519 872 l 1,7,8
 621 930 621 930 738.5 930 c 128,-1,9
 856 930 856 930 945 888 c 128,-1,10
 1034 846 1034 846 1080 788 c 0,11,12
 1153 696 1153 696 1156 548 c 0,13,14
 1156 506 1156 506 1148 462 c 0,15,16
 1111 242 1111 242 949.5 111 c 128,-1,17
 788 -20 788 -20 569 -20 c 0,18,19
 225 -20 225 -20 126 56 c 1,20,-1
 309 1147 l 1,0,1
895 607 m 1,21,22
 895 860 895 860 716 860 c 0,23,24
 600 860 600 860 508 807 c 1,25,-1
 386 80 l 1,26,27
 469 49 469 49 554.5 49 c 128,-1,28
 640 49 640 49 710 109 c 0,29,30
 842 223 842 223 880 451 c 0,31,32
 894 536 894 536 895 607 c 1,21,22
EndSplineSet
Validated: 1
EndChar

StartChar: c
Encoding: 99 99 68
Width: 985
Flags: W
HStem: -20 77<500.039 762.501> 588 170<833.241 897> 860 62<599.744 852.284>
VStem: 134 270<163.152 605.633> 809.5 220.5<628.743 745.183>
AnchorPoint: "top" 728 1055 basechar 0
AnchorPoint: "below" 543 0 basechar 0
AnchorPoint: "cedilla" 543 0 basechar 0
LayerCount: 2
Fore
SplineSet
612 57 m 2,0,1
 778 57 778 57 890 205 c 1,2,-1
 960 168 l 1,3,4
 884 71 884 71 782 25.5 c 128,-1,5
 680 -20 680 -20 535.5 -20 c 128,-1,6
 391 -20 391 -20 289 43 c 0,7,8
 134 138 134 138 134 358 c 0,9,10
 134 422 134 422 150 516 c 128,-1,11
 166 610 166 610 241.5 707 c 128,-1,12
 317 804 317 804 437 863 c 128,-1,13
 557 922 557 922 709 922 c 128,-1,14
 861 922 861 922 945.5 870.5 c 128,-1,15
 1030 819 1030 819 1030 743 c 128,-1,16
 1030 667 1030 667 993.5 627.5 c 128,-1,17
 957 588 957 588 906.5 588 c 128,-1,18
 856 588 856 588 832.5 609.5 c 128,-1,19
 809 631 809 631 809.5 649.5 c 128,-1,20
 810 668 810 668 814 692 c 128,-1,21
 818 716 818 716 843 737 c 128,-1,22
 868 758 868 758 897 758 c 1,23,24
 888 860 888 860 705 860 c 0,25,26
 608 860 608 860 524 763 c 0,27,28
 404 623 404 623 404 368 c 0,29,30
 404 208 404 208 476 120 c 0,31,32
 527 57 527 57 609 57 c 2,33,34
 612 57 l 2,0,1
EndSplineSet
Validated: 1
EndChar

StartChar: d
Encoding: 100 100 69
Width: 1181
Flags: W
HStem: -16 61<484.447 657.213 913.5 1153.11> 860 70<620.559 889.505> 1155 47<840 956.4> 1270 20G<1218 1236.65>
VStem: 130 268<157.637 356 358 586.036>
AnchorPoint: "mid" 995 1040 basechar 0
AnchorPoint: "below" 543 0 basechar 0
AnchorPoint: "top" 671 1055 basechar 0
LayerCount: 2
Back
SplineSet
835 100 m 4
 776 34 665 -20 522 -20 c 4
 242 -20 63 172 63 451 c 4
 63 756 279 930 567 930 c 4
 709 930 773 879 828 846 c 4
 828 780 l 5
 777 810 719 860 580 860 c 4
 423 860 330 642 330 466 c 132
 330 296 401 49 543 49 c 4
 681 49 758 93 806 157 c 5
 835 100 l 4
768 1147 m 1
 695 1152 652 1155 639 1155 c 1
 639 1202 l 1
 665 1202 728 1217 828 1246 c 128
 928 1275 993 1290 1024 1290 c 1
 1024 172 l 6
 1024 108 1043 45 1095 45 c 132
 1111 45 1129 50 1143 58 c 5
 1161 19 l 5
 1124 -4 1063 -16 979 -16 c 4
 863 -16 768 62 768 229 c 6
 768 1147 l 1
EndSplineSet
Fore
SplineSet
1049 128 m 0,0,1
 1049 45 1049 45 1097 45 c 0,2,3
 1127 45 1127 45 1153 58 c 1,4,-1
 1164 19 l 1,5,6
 1102 -16 1102 -16 993 -16 c 0,7,8
 834 -16 834 -16 806 110 c 1,9,10
 749 52 749 52 673.5 16 c 128,-1,11
 598 -20 598 -20 519 -20 c 0,12,13
 310 -20 310 -20 206 110 c 0,14,15
 130 206 130 206 130 350 c 0,16,17
 130 639 130 639 338 802 c 0,18,19
 501 930 501 930 723 930 c 0,20,21
 836 930 836 930 916 882 c 1,22,-1
 960 1147 l 1,23,24
 844 1155 844 1155 832 1155 c 1,25,-1
 840 1202 l 1,26,27
 877 1202 877 1202 1036.5 1246 c 128,-1,28
 1196 1290 1196 1290 1240 1290 c 1,29,-1
 1053 172 l 2,30,31
 1049 148 1049 148 1049 128 c 0,0,1
905 817 m 1,32,33
 832 860 832 860 741 860 c 128,-1,34
 650 860 650 860 580.5 797.5 c 128,-1,35
 511 735 511 735 467 646 c 0,36,37
 397 506 397 506 397 358 c 2,38,-1
 398 356 l 2,39,40
 398 207 398 207 441 128 c 128,-1,41
 484 49 484 49 553 49 c 128,-1,42
 622 49 622 49 689 93 c 128,-1,43
 756 137 756 137 801 194 c 1,44,45
 803 211 803 211 806 229 c 2,46,-1
 905 817 l 1,32,33
EndSplineSet
Validated: 1
EndChar

StartChar: e
Encoding: 101 101 70
Width: 1026
Flags: W
HStem: -20 77<513.381 774.703> 860 62<588.554 758.718>
VStem: 135 269<177.645 401 464 601.794> 821 229<548.787 772.099>
AnchorPoint: "top" 692 1055 basechar 0
AnchorPoint: "mid" 609 673 basechar 0
AnchorPoint: "ogonek" 718 9 basechar 0
AnchorPoint: "cedilla" 641 0 basechar 0
AnchorPoint: "below" 641 0 basechar 0
LayerCount: 2
Back
SplineSet
812 485.38 m 6
 273 390 l 5
 262.025 452.24 l 5
 648 520.301 l 6
 706.94 530.694 716.017 567.192 716.017 605.087 c 4
 716.017 704.197 658.338 860 532 860 c 4
 408 860 328 674.504 328 519.8 c 4
 328 282 440 57 613 57 c 4
 726 57 820 102 893 193 c 5
 942 168 l 5
 862 38 747 -20 537 -20 c 4
 236.607 -20 63 186.553 63 496 c 4
 63 741.912 263.119 922 516 922 c 4
 736.348 922 828 837.8 904 739.8 c 4
 929.597 706.793 941.073 670.853 941.073 636.592 c 4
 941.073 564.1 889.696 499.129 812 485.38 c 6
EndSplineSet
Fore
SplineSet
407 464 m 1,0,-1
 735 520 l 1,1,2
 821 536 821 536 821 659.5 c 128,-1,3
 821 783 821 783 754 834 c 1,4,5
 722 860 722 860 669.5 860 c 128,-1,6
 617 860 617 860 560 806 c 0,7,8
 425 680 425 680 407 464 c 1,0,-1
404 401 m 1,9,-1
 404 394 l 2,10,11
 404 220 404 220 484 124 c 0,12,13
 539 58 539 58 623 57 c 1,14,15
 794 57 794 57 925 193 c 1,16,-1
 970 168 l 1,17,18
 892 69 892 69 791 24.5 c 128,-1,19
 690 -20 690 -20 534 -20 c 0,20,21
 312 -20 312 -20 209 120 c 0,22,23
 135 222 135 222 135 373 c 0,24,25
 135 644 135 644 328 800 c 0,26,27
 479 922 479 922 653.5 922 c 128,-1,28
 828 922 828 922 903 871 c 128,-1,29
 978 820 978 820 1028 740 c 0,30,31
 1050 704 1050 704 1050 677 c 0,32,33
 1050 593 1050 593 1001 544 c 128,-1,34
 952 495 952 495 893 485 c 2,35,-1
 404 401 l 1,9,-1
EndSplineSet
Validated: 1
EndChar

StartChar: f
Encoding: 102 102 71
Width: 616
Flags: MW
AnchorPoint: "top" 705 1341 basechar 0
LayerCount: 2
Back
SplineSet
509 1290 m 132
 601 1290 727 1248 727 1169 c 4
 727 1106 699 1077 642 1077 c 4
 570 1077 559 1113 554 1176 c 4
 551 1212 534 1229 502 1229 c 4
 453 1229 428 1152 428 999 c 6
 428 901 l 5
 586 901 l 5
 586 840 l 5
 428 840 l 5
 427 -156 l 5
 342 -243 l 5
 173 -243 l 5
 172 840 l 5
 70 840 l 5
 70 901 l 5
 172 901 l 5
 172 971 l 6
 172 1192 281 1290 509 1290 c 132
EndSplineSet
Fore
SplineSet
725 1290 m 0,0,1
 803 1290 803 1290 867 1257 c 0,2,3
 923 1228 923 1228 924 1182 c 0,4,5
 924 1175 924 1175 923 1169 c 0,6,7
 908 1077 908 1077 822 1077 c 0,8,9
 772 1077 772 1077 759 1100 c 0,10,11
 749 1117 749 1117 749 1150 c 0,12,13
 749 1162 749 1162 751 1176 c 0,14,15
 751 1181 751 1181 751 1185 c 0,16,17
 751 1229 751 1229 708 1229 c 0,18,19
 634 1229 634 1229 595 999 c 2,20,-1
 579 901 l 1,21,-1
 737 901 l 1,22,-1
 727 840 l 1,23,-1
 569 840 l 1,24,-1
 401 -156 l 1,25,-1
 301 -243 l 1,26,-1
 131 -243 l 1,27,-1
 313 840 l 1,28,-1
 211 840 l 1,29,-1
 221 901 l 1,30,-1
 323 901 l 1,31,-1
 334 971 l 2,32,33
 362 1136 362 1136 457.5 1213 c 128,-1,34
 553 1290 553 1290 725 1290 c 0,0,1
EndSplineSet
Validated: 1
EndChar

StartChar: g
Encoding: 103 103 72
Width: 1149
Flags: W
HStem: -410 74<270.667 607.25> -20 70<459.288 673.178> 861 69<621.551 915.013>
VStem: 95 214<-270.031 -132.829> 135 262<177.883 578.389>
AnchorPoint: "mid" 934 467 basechar 0
AnchorPoint: "below" 508 0 basechar 0
AnchorPoint: "top" 746 1055 basechar 0
LayerCount: 2
Back
SplineSet
340 -194 m 128
 340 -247 328 -267 289 -281 c 1
 341 -318 432 -336 512 -336 c 128
 709.098 -336 768.909 -198.317 777 25 c 5
 716 -6 635 -20 544 -20 c 4
 275 -20 66 168 66 448 c 132
 66 747 287 930 574 930 c 132
 757 930 941 917 1033 854 c 5
 1033 59 l 2
 1033 -203 835 -410 575 -410 c 128
 446 -410 320 -393 246 -360 c 128
 172 -327 135 -284 135 -229 c 0
 135 -142 172 -98 246 -98 c 0
 299 -98 340 -142 340 -194 c 128
332 459 m 132
 332 255 391 50 574 50 c 132
 652 50 724 63 777 90 c 5
 777 830 l 5
 729 847 666 861 596 861 c 132
 421 861 332 658 332 459 c 132
EndSplineSet
Fore
SplineSet
524 50 m 0,0,1
 703 50 703 50 812 212 c 1,2,-1
 917 839 l 1,3,4
 835 861 835 861 745.5 861 c 128,-1,5
 656 861 656 861 584 801 c 0,6,7
 397 643 397 643 397 285 c 0,8,9
 397 190 397 190 435.5 120 c 128,-1,10
 474 50 474 50 524 50 c 0,0,1
309 -177 m 0,11,12
 309 -257 309 -257 242 -281 c 1,13,14
 308 -336 308 -336 461.5 -336 c 128,-1,15
 615 -336 615 -336 687 -222.5 c 128,-1,16
 759 -109 759 -109 793 94 c 1,17,18
 787 88 787 88 765.5 65.5 c 128,-1,19
 744 43 744 43 707 25 c 0,20,21
 613 -20 613 -20 513 -20 c 128,-1,22
 413 -20 413 -20 344 14 c 0,23,24
 194 90 194 90 149 258 c 0,25,26
 136 307 136 307 135 360 c 1,27,28
 135 554 135 554 251 704 c 0,29,30
 337 814 337 814 461.5 872 c 128,-1,31
 586 930 586 930 723 930 c 128,-1,32
 860 930 860 930 981 893.5 c 128,-1,33
 1102 857 1102 857 1168 806 c 1,34,-1
 1043 59 l 2,35,36
 1010 -138 1010 -138 855 -274 c 128,-1,37
 700 -410 700 -410 494.5 -410 c 128,-1,38
 289 -410 289 -410 192 -363 c 128,-1,39
 95 -316 95 -316 95 -247 c 0,40,41
 95 -238 95 -238 97 -229 c 0,42,43
 119 -98 119 -98 230 -98 c 0,44,45
 269 -98 269 -98 289 -123 c 128,-1,46
 309 -148 309 -148 309 -177 c 0,11,12
EndSplineSet
Validated: 1
Substitution2: "'ss05' Binocular g subtable" g.ss05
EndChar

StartChar: h
Encoding: 104 104 73
Width: 1220
Flags: W
HStem: -16 61<983.5 1198.11> 0 21G<158 417.333> 852 70<726.663 908.294> 1155 47<230 346.359> 1270 20G<606.5 626.649>
VStem: 845 249<46.0088 253.989> 931 256<441.406 833.011>
AnchorPoint: "cedilla" 909 0 basechar 0
AnchorPoint: "below" 610 0 basechar 0
AnchorPoint: "mid" 560 1057 basechar 0
AnchorPoint: "top" 500 1341 basechar 0
LayerCount: 2
Back
SplineSet
158 0 m 5x7e
 158 1147 l 5
 85 1152 42 1155 29 1155 c 5
 29 1202 l 5
 55 1202 118 1217 217 1246 c 4
 316 1275 382 1290 414 1290 c 5
 414 842 l 5
 496 895 577 922 657 922 c 4
 792 922 894 900 964 856 c 4
 1034 812 1069 740 1069 639 c 6
 1069 172 l 6
 1069 108 1088 45 1140 45 c 4
 1156 45 1174 50 1188 58 c 5
 1206 19 l 5
 1169 -4 1108 -16 1024 -16 c 4xbe
 908 -16 813 62 813 229 c 6
 813 590 l 6
 813 685 799 752 771 792 c 4
 743 832 701 852 645 852 c 4
 563 852 486 827 414 778 c 5
 414 0 l 5
 158 0 l 5x7e
EndSplineSet
Fore
SplineSet
1094 128 m 4,0,1
 1094 45 1094 45 1142 45 c 4,2,3
 1172 45 1172 45 1198 58 c 5,4,-1
 1209 19 l 5,5,6
 1147 -16 1147 -16 1038 -16 c 132,-1,7
 929 -16 929 -16 880 46 c 4,8,9
 845 90 845 90 845 142 c 132,-1,10
 845 194 845 194 851 229 c 6,11,-1
 927 680 l 6,12,13
 931 706 931 706 931 738 c 132,-1,14
 931 770 931 770 917 802 c 4,15,16
 895 852 895 852 839 852 c 4,17,18
 702 852 702 852 518 624 c 5,19,-1
 414 0 l 5,20,-1
 158 0 l 5,21,-1
 350 1147 l 1,22,23
 234 1155 234 1155 222 1155 c 1,24,-1
 230 1202 l 1,25,26
 268 1202 268 1202 425.5 1246 c 128,-1,27
 583 1290 583 1290 630 1290 c 1,28,-1
 537 735 l 5,29,30
 694 922 694 922 851.5 922 c 132,-1,31
 1009 922 1009 922 1098 868 c 132,-1,32
 1187 814 1187 814 1187 722 c 4,33,34
 1187 702 1187 702 1183 681 c 6,35,-1
 1098 172 l 6,36,37
 1094 148 1094 148 1094 128 c 4,0,1
EndSplineSet
Validated: 1
EndChar

StartChar: i
Encoding: 105 105 74
Width: 591
Flags: W
HStem: 0 21G<178 437.341> 786 48<189 304.739> 902 20G<564 584.659> 1052 238<397.817 589.902>
VStem: 347 293<1100.86 1176 1178 1241.18>
AnchorPoint: "mid" 390 532 basechar 0
AnchorPoint: "ogonek" 410 0 basechar 0
AnchorPoint: "cedilla" 289 0 basechar 0
AnchorPoint: "below" 289 0 basechar 0
AnchorPoint: "top" 506 1270 basechar 0
LayerCount: 2
Fore
SplineSet
178 0 m 1,0,-1
 308 778 l 1,1,2
 203 786 203 786 181 786 c 1,3,-1
 189 834 l 1,4,5
 228 834 228 834 384 878 c 128,-1,6
 540 922 540 922 588 922 c 1,7,-1
 434 0 l 1,8,9
 178 0 l 1,0,-1
510 1290 m 128,-1,11
 560 1290 560 1290 600.5 1256.5 c 128,-1,12
 641 1223 641 1223 641 1178 c 1,13,-1
 640 1176 l 1,14,15
 640 1130 640 1130 583 1091 c 128,-1,16
 526 1052 526 1052 476 1052 c 128,-1,17
 426 1052 426 1052 386.5 1085 c 128,-1,18
 347 1118 347 1118 347 1164 c 128,-1,19
 347 1210 347 1210 403.5 1250 c 128,-1,10
 460 1290 460 1290 510 1290 c 128,-1,11
EndSplineSet
Validated: 1
EndChar

StartChar: j
Encoding: 106 106 75
Width: 528
Flags: W
HStem: -408 62<-53.3013 61.7542> 788 48<167 283.739> 1055 237<373.539 569.708>
VStem: -221 161<-343.341 -211.324> 324 295<1102.61 1243.18>
AnchorPoint: "top" 485 1270 basechar 0
LayerCount: 2
Fore
SplineSet
486 1292 m 128,-1,1
 536 1292 536 1292 577.5 1258.5 c 128,-1,2
 619 1225 619 1225 619 1178 c 0,3,4
 619 1177 619 1177 619 1176 c 0,5,6
 619 1131 619 1131 561 1093 c 128,-1,7
 503 1055 503 1055 453 1055 c 128,-1,8
 403 1055 403 1055 363.5 1087.5 c 128,-1,9
 324 1120 324 1120 324 1166 c 128,-1,10
 324 1212 324 1212 380 1252 c 128,-1,0
 436 1292 436 1292 486 1292 c 128,-1,1
18 -408 m 0,11,12
 -221 -408 -221 -408 -221 -263 c 0,13,14
 -221 -195 -221 -195 -186 -158.5 c 128,-1,15
 -151 -122 -151 -122 -105 -122 c 0,16,17
 -29 -122 -29 -122 -29 -204 c 0,18,19
 -29 -251 -29 -251 -58 -276 c 1,20,21
 -60 -285 -60 -285 -60 -293 c 0,22,23
 -60 -346 -60 -346 8 -346 c 0,24,25
 47 -346 47 -346 82.5 -287.5 c 128,-1,26
 118 -229 118 -229 136 -117 c 2,27,-1
 287 780 l 1,28,29
 182 788 182 788 159 788 c 1,30,-1
 167 836 l 1,31,32
 206 836 206 836 362.5 880 c 128,-1,33
 519 924 519 924 567 924 c 1,34,-1
 397 -88 l 2,35,36
 368 -260 368 -260 243 -338 c 1,37,38
 134 -408 134 -408 18 -408 c 0,11,12
EndSplineSet
Validated: 1
EndChar

StartChar: k
Encoding: 107 107 76
Width: 1126
Flags: W
HStem: 0 43<1050.92 1163> 858 43<690 790.052 908.173 1012> 1155 47<29 141.889> 1270 20G<390 414>
VStem: 158 256<0 1150.12>
AnchorPoint: "below" 602 0 basechar 0
AnchorPoint: "cedilla" 274 0 basechar 0
AnchorPoint: "mid" 368 532 basechar 0
AnchorPoint: "top" 505 1341 basechar 0
LayerCount: 2
Back
SplineSet
158 0 m 5
 158 1147 l 5
 84.6667 1152.33 41.6667 1155 29 1155 c 5
 29 1202 l 5
 55 1202 117.667 1216.67 217 1246 c 132
 316.333 1275.33 382 1290 414 1290 c 5
 414 0 l 5
 158 0 l 5
806 0 m 5
 428 520 l 5
 791 846 l 5
 771 854 737.333 858 690 858 c 5
 690 901 l 5
 1012 901 l 5
 1012 858 l 5
 958 858 921 849 901 831 c 6
 653 610 l 5
 1034 82 l 6
 1044 67.3333 1058.33 57.1667 1077 51.5 c 132
 1095.67 45.8333 1124.33 43 1163 43 c 5
 1163 0 l 5
 806 0 l 5
EndSplineSet
Fore
SplineSet
158 0 m 1,0,-1
 350 1147 l 1,1,2
 241 1155 241 1155 222 1155 c 1,3,-1
 230 1202 l 1,4,5
 269 1202 269 1202 425.5 1246 c 128,-1,6
 582 1290 582 1290 630 1290 c 1,7,-1
 414 0 l 1,8,9
 158 0 l 1,0,-1
806 0 m 1,10,-1
 515 520 l 1,11,-1
 933 846 l 1,12,13
 905 858 905 858 834 858 c 1,14,-1
 841 901 l 1,15,-1
 1163 901 l 1,16,-1
 1156 858 l 1,17,18
 1075 858 1075 858 1040 831 c 2,19,-1
 755 610 l 1,20,-1
 1048 82 l 1,21,22
 1059 60 1059 60 1085.5 51.5 c 128,-1,23
 1112 43 1112 43 1170 43 c 1,24,-1
 1163 0 l 1,25,-1
 806 0 l 1,10,-1
EndSplineSet
Validated: 1
EndChar

StartChar: l
Encoding: 108 108 77
Width: 571
Flags: W
HStem: -16 61<323 537.052> 1155 47<29 141.597> 1270 20G<392 414>
VStem: 158 256<65.2152 1149.92>
AnchorPoint: "mid" 398 698 basechar 0
AnchorPoint: "below" 302 0 basechar 0
AnchorPoint: "cedilla" 302 0 basechar 0
AnchorPoint: "top" 505 1341 basechar 0
LayerCount: 2
Back
SplineSet
158 1147 m 5
 85 1152 42 1155 29 1155 c 5
 29 1202 l 5
 55 1202 118 1217 218 1246 c 132
 318 1275 383 1290 414 1290 c 5
 414 172 l 6
 414 108 433 45 485 45 c 132
 501 45 519 50 533 58 c 5
 551 19 l 5
 514 -4 453 -16 369 -16 c 4
 253 -16 158 62 158 229 c 6
 158 1147 l 5
EndSplineSet
Fore
SplineSet
439 128 m 0,0,1
 439 46 439 46 493 45 c 0,2,3
 518 45 518 45 543 58 c 1,4,-1
 554 19 l 1,5,6
 492 -16 492 -16 383 -16 c 128,-1,7
 274 -16 274 -16 225 46 c 0,8,9
 190 90 190 90 190 142 c 128,-1,10
 190 194 190 194 196 229 c 2,11,-1
 350 1147 l 1,12,13
 234 1155 234 1155 222 1155 c 1,14,-1
 230 1202 l 1,15,16
 267 1202 267 1202 426.5 1246 c 128,-1,17
 586 1290 586 1290 630 1290 c 1,18,-1
 443 172 l 2,19,20
 439 148 439 148 439 128 c 0,0,1
EndSplineSet
Validated: 1
EndChar

StartChar: m
Encoding: 109 109 78
Width: 1794
Flags: W
HStem: -16 61<1569.5 1784.11> 0 21G<178 437.358 788 1047.34> 786 48<189 304.401> 852 70<704.647 881.752 1312.06 1492.67>
VStem: 1431 249<46.0088 253.989> 1517 256<441.406 833.387>
AnchorPoint: "mid" 992 455 basechar 0
AnchorPoint: "cedilla" 916 0 basechar 0
AnchorPoint: "below" 916 0 basechar 0
AnchorPoint: "top" 1098 1055 basechar 0
LayerCount: 2
Back
SplineSet
1255 922 m 0
 1543 922 1655 760 1655 464 c 2
 1655 172 l 6
 1655 108 1675 45 1727 45 c 132
 1743 45 1761 50 1775 58 c 5
 1793 19 l 5
 1756 -4 1695 -16 1611 -16 c 4
 1495 -16 1399 62 1399 229 c 6
 1399 481 l 2
 1399 608 1388 702 1365 762 c 128
 1342 822 1302 852 1243 852 c 0
 1169 852 1099 818 1034 750 c 1
 1041 731 1044 705 1044 672 c 2
 1044 0 l 1
 788 0 l 1
 788 553 l 2
 788 664 776 742 752 786 c 128
 728 830 687 852 630 852 c 128
 573 852 508 819 434 754 c 1
 434 0 l 1
 178 0 l 1
 178 778 l 1
 105 783 62 786 49 786 c 1
 49 834 l 1
 75 834 138 849 237 878 c 128
 336 907 402 922 434 922 c 1
 434 850 l 1
 489 898 560 922 645 922 c 0
 828 922 947 884 1004 807 c 1
 1065 884 1149 922 1255 922 c 0
EndSplineSet
Fore
SplineSet
1680 128 m 0,0,1
 1680 45 1680 45 1728 45 c 0,2,3
 1758 45 1758 45 1784 58 c 1,4,-1
 1795 19 l 1,5,6
 1733 -16 1733 -16 1624 -16 c 128,-1,7
 1515 -16 1515 -16 1466 46 c 0,8,9
 1431 90 1431 90 1431 142 c 128,-1,10
 1431 194 1431 194 1437 229 c 2,11,-1
 1513 680 l 2,12,13
 1517 705 1517 705 1517 737 c 128,-1,14
 1517 769 1517 769 1502 802 c 0,15,16
 1479 852 1479 852 1424 852 c 0,17,18
 1333 852 1333 852 1239 758 c 0,19,20
 1184 702 1184 702 1155 664 c 1,21,-1
 1044 0 l 1,22,-1
 788 0 l 1,23,-1
 902 680 l 2,24,25
 906 706 906 706 906 738 c 128,-1,26
 906 770 906 770 891 802 c 0,27,28
 868 852 868 852 813 852 c 0,29,30
 689 852 689 852 546 667 c 1,31,-1
 434 0 l 1,32,-1
 178 0 l 1,33,-1
 308 778 l 1,34,35
 192 786 192 786 181 786 c 1,36,-1
 189 834 l 1,37,38
 227 834 227 834 384 878 c 128,-1,39
 541 922 541 922 588 922 c 1,40,-1
 564 778 l 1,41,42
 691 922 691 922 837 922 c 128,-1,43
 983 922 983 922 1077 865 c 0,44,45
 1142 826 1142 826 1158 756 c 1,46,47
 1204 818 1204 818 1279 870 c 128,-1,48
 1354 922 1354 922 1436 922 c 0,49,50
 1592 922 1592 922 1682.5 868.5 c 128,-1,51
 1773 815 1773 815 1773 723 c 0,52,53
 1773 703 1773 703 1769 681 c 2,54,-1
 1684 172 l 2,55,56
 1680 148 1680 148 1680 128 c 0,0,1
EndSplineSet
Validated: 1
EndChar

StartChar: n
Encoding: 110 110 79
Width: 1222
Flags: W
HStem: -16 61<983.5 1198.11> 0 21G<178 437.333> 786 48<189 304.616> 852 70<729.494 906.765>
VStem: 845 249<46.0088 253.989> 931 256<441.406 833.011>
AnchorPoint: "below" 616 0 basechar 0
AnchorPoint: "cedilla" 1015 0 basechar 0
AnchorPoint: "mid" 692 455 basechar 0
AnchorPoint: "top" 816 1057 basechar 0
LayerCount: 2
Back
SplineSet
178 0 m 1
 178 778 l 1
 104.667 783.333 61.6667 786 49 786 c 1
 49 834 l 1
 75 834 137.667 848.667 237 878 c 128
 336.333 907.333 402 922 434 922 c 1
 434 836 l 1
 502 893.333 577 922 659 922 c 0
 791 922 893 897.667 965 849 c 128
 1037 800.333 1073 727.667 1073 631 c 2
 1073 172 l 6
 1073 108 1093 45 1145 45 c 132
 1161 45 1179 50 1193 58 c 5
 1211 19 l 5
 1174 -4 1113 -16 1029 -16 c 4
 913 -16 817 62 817 229 c 6
 817 645 l 2
 817 705.667 803 755.334 775 794 c 128
 747 832.667 704.333 852 647 852 c 0
 562.333 852 491.333 824.667 434 770 c 1
 434 0 l 1
 178 0 l 1
EndSplineSet
Fore
SplineSet
1094 128 m 0,0,1
 1094 45 1094 45 1142 45 c 0,2,3
 1172 45 1172 45 1198 58 c 1,4,-1
 1209 19 l 1,5,6
 1147 -16 1147 -16 1038 -16 c 128,-1,7
 929 -16 929 -16 880 46 c 0,8,9
 845 90 845 90 845 142 c 128,-1,10
 845 194 845 194 851 229 c 2,11,-1
 927 680 l 2,12,13
 931 706 931 706 931 738 c 128,-1,14
 931 770 931 770 917 802 c 0,15,16
 895 852 895 852 839 852 c 0,17,18
 713 852 713 852 543 654 c 1,19,-1
 434 0 l 1,20,-1
 178 0 l 1,21,-1
 308 778 l 1,22,23
 199 786 199 786 181 786 c 1,24,-1
 189 834 l 1,25,26
 228 834 228 834 384 878 c 128,-1,27
 540 922 540 922 588 922 c 1,28,-1
 562 763 l 1,29,30
 711 922 711 922 860 922 c 128,-1,31
 1009 922 1009 922 1098 868 c 128,-1,32
 1187 814 1187 814 1187 722 c 0,33,34
 1187 702 1187 702 1183 681 c 2,35,-1
 1098 172 l 2,36,37
 1094 148 1094 148 1094 128 c 0,0,1
EndSplineSet
Validated: 1
EndChar

StartChar: o
Encoding: 111 111 80
Width: 1116
Flags: W
HStem: -20 61<492.938 572 573 693.017> 858 64<572.935 792.264>
VStem: 132 265<174.828 596.969> 871 265<312.769 740.887>
AnchorPoint: "top" 738 1055 basechar 0
AnchorPoint: "ogonek" 573 0 basechar 0
AnchorPoint: "cedilla" 573 0 basechar 0
AnchorPoint: "below" 573 0 basechar 0
AnchorPoint: "mid" 636 471 basechar 0
LayerCount: 2
Fore
SplineSet
601 41 m 0,0,1
 693 41 693 41 758 138 c 128,-1,2
 823 235 823 235 847 378.5 c 128,-1,3
 871 522 871 522 871 613.5 c 128,-1,4
 871 705 871 705 852 754 c 0,5,6
 812 858 812 858 662 858 c 0,7,8
 603 858 603 858 551 808 c 0,9,10
 451 710 451 710 414 488 c 0,11,12
 397 389 397 389 397 311 c 0,13,14
 397 41 397 41 601 41 c 0,0,1
218 114 m 0,15,16
 132 216 132 216 132 366 c 0,17,18
 132 618 132 618 311 785 c 0,19,20
 458 922 458 922 704 922 c 128,-1,21
 950 922 950 922 1057 792 c 0,22,23
 1136 696 1136 696 1136 547 c 0,24,25
 1136 290 1136 290 958 120 c 0,26,27
 811 -21 811 -21 573 -21 c 1,28,-1
 572 -20 l 1,29,30
 331 -20 331 -20 218 114 c 0,15,16
EndSplineSet
Validated: 1
EndChar

StartChar: p
Encoding: 112 112 81
Width: 1173
Flags: W
HStem: -393 43<-30 85.5391 375.693 477> -20 69<430.095 714.68> 786 48<169 284.308> 852 70<660.08 842.741>
VStem: 925 269<321.025 758.772>
AnchorPoint: "mid" 380 446 basechar 0
AnchorPoint: "below" 643 0 basechar 0
AnchorPoint: "top" 808 1055 basechar 0
LayerCount: 2
Fore
SplineSet
591 -20 m 0,0,1
 499 -20 499 -20 417 15 c 1,2,-1
 362 -309 l 1,3,4
 372 -350 372 -350 484 -350 c 1,5,-1
 477 -393 l 1,6,-1
 -37 -393 l 1,7,-1
 -30 -350 l 1,8,9
 82 -350 82 -350 106 -309 c 1,10,-1
 288 776 l 1,11,12
 169 786 169 786 161 786 c 1,13,-1
 169 834 l 1,14,15
 207 834 207 834 364 878 c 128,-1,16
 521 922 521 922 568 922 c 1,17,-1
 549 808 l 1,18,19
 672 922 672 922 793 922 c 0,20,21
 1020 922 1020 922 1121 800 c 0,22,23
 1194 712 1194 712 1194 567 c 0,24,25
 1194 510 1194 510 1183 446 c 0,26,27
 1144 214 1144 214 990 97 c 128,-1,28
 836 -20 836 -20 591 -20 c 0,0,1
761 852 m 0,29,30
 659 852 659 852 533 713 c 1,31,-1
 428 83 l 1,32,33
 502 49 502 49 592 49 c 128,-1,34
 682 49 682 49 750 108 c 0,35,36
 878 218 878 218 917 446 c 0,37,38
 925 496 925 496 925 560 c 128,-1,39
 925 624 925 624 907 697 c 0,40,41
 889 769 889 769 851.5 810.5 c 128,-1,42
 814 852 814 852 761 852 c 0,29,30
EndSplineSet
Validated: 1
EndChar

StartChar: q
Encoding: 113 113 82
Width: 1148
Flags: W
HStem: -393 43<588 704.46 994.614 1095> -20 70<459.288 673.178> 861 69<621.551 915.013>
VStem: 135 262<177.883 582.244>
LayerCount: 2
Back
SplineSet
1033 -309 m 1
 1044 -336 1086 -350 1161 -350 c 1
 1161 -393 l 1
 647 -393 l 1
 647 -350 l 1
 722 -350 766 -336 777 -309 c 1
 777 25 l 5
 716 -6 635 -20 544 -20 c 4
 275 -20 66 168 66 448 c 132
 66 747 287 930 574 930 c 132
 757 930 941 917 1033 854 c 5
 1033 -309 l 1
332 459 m 132
 332 255 391 50 574 50 c 132
 652 50 724 63 777 90 c 5
 777 830 l 5
 729 847 666 861 596 861 c 132
 421 861 332 658 332 459 c 132
EndSplineSet
Fore
SplineSet
524 50 m 0,0,1
 703 50 703 50 812 212 c 1,2,-1
 917 839 l 1,3,4
 835 861 835 861 745.5 861 c 128,-1,5
 656 861 656 861 584 801 c 0,6,7
 397 642 397 642 397 285 c 0,8,9
 397 190 397 190 435.5 120 c 128,-1,10
 474 50 474 50 524 50 c 0,0,1
793 94 m 1,11,12
 787 88 787 88 765.5 65.5 c 128,-1,13
 744 43 744 43 707 25 c 0,14,15
 613 -20 613 -20 513 -20 c 128,-1,16
 413 -20 413 -20 344 14 c 0,17,18
 194 90 194 90 149 258 c 0,19,20
 136 307 136 307 135 360 c 1,21,22
 135 554 135 554 251 704 c 0,23,24
 337 814 337 814 461.5 872 c 128,-1,25
 586 930 586 930 723 930 c 128,-1,26
 860 930 860 930 981 893.5 c 128,-1,27
 1102 857 1102 857 1168 806 c 1,28,-1
 981 -309 l 1,29,30
 991 -350 991 -350 1102 -350 c 1,31,-1
 1095 -393 l 1,32,-1
 581 -393 l 1,33,-1
 588 -350 l 1,34,35
 701 -350 701 -350 725 -309 c 1,36,-1
 793 94 l 1,11,12
EndSplineSet
Validated: 1
EndChar

StartChar: r
Encoding: 114 114 83
Width: 892
Flags: W
HStem: 0 21G<178 437.333> 707 214<854.145 1001.67> 786 48<189 304.401> 830 91<710.97 812.263>
AnchorPoint: "below" 311 0 basechar 0
AnchorPoint: "top" 691 1055 basechar 0
LayerCount: 2
Fore
SplineSet
434 0 m 5,0,-1
 178 0 l 5,1,-1
 308 778 l 5,2,3
 192 786 192 786 181 786 c 5,4,-1
 189 834 l 5,5,6
 227 834 227 834 384 878 c 132,-1,7
 541 922 541 922 588 922 c 5,8,-1
 557 738 l 5,9,10
 688 921 688 921 890 921 c 6,11,12
 892 921 l 6,13,14
 1030 921 1030 921 1030 833 c 4,15,16
 1030 774 1030 774 991 740.5 c 132,-1,17
 952 707 952 707 913 707 c 132,-1,18
 874 707 874 707 853.5 721 c 132,-1,19
 833 735 833 735 813.5 782.5 c 132,-1,20
 794 830 794 830 755.5 830 c 132,-1,21
 717 830 717 830 653.5 763.5 c 132,-1,22
 590 697 590 697 534 600 c 5,23,-1
 434 0 l 5,0,-1
EndSplineSet
Validated: 1
EndChar

StartChar: s
Encoding: 115 115 84
Width: 813
Flags: W
HStem: -20 81<327.037 558.414> 0 21G<98 150.5> 852 70<400.049 627.055> 881 20G<780.5 831>
VStem: 130 45<242.221 313> 194 172<675.413 776.34> 593 203<140.464 342> 756 45<602 684.374>
AnchorPoint: "top" 591 1055 basechar 0
AnchorPoint: "below" 358 0 basechar 0
AnchorPoint: "cedilla" 358 0 basechar 0
AnchorPoint: "mid" 477 469 basechar 0
LayerCount: 2
Fore
SplineSet
179 41 m 1,0,1
 154 41 154 41 147 0 c 1,2,-1
 98 0 l 1,3,-1
 130 313 l 1,4,-1
 175 313 l 1,5,6
 180 260 180 260 224 200 c 128,-1,7
 268 140 268 140 327 100.5 c 128,-1,8
 386 61 386 61 432 61 c 0,9,10
 593 61 593 61 593 196 c 0,11,12
 593 240 593 240 515 286 c 0,13,14
 476 308 476 308 430 333 c 0,15,16
 194 460 194 460 194 618 c 0,17,18
 194 619 194 619 194 621 c 0,19,20
 194 772 194 772 316 855 c 0,21,22
 414 922 414 922 516 922 c 128,-1,23
 618 922 618 922 709 876 c 1,24,25
 738 860 738 860 752 860 c 0,26,27
 777 860 777 860 784 901 c 1,28,-1
 831 901 l 1,29,-1
 801 602 l 1,30,-1
 756 602 l 1,31,32
 749 688 749 688 678 770 c 128,-1,33
 607 852 607 852 535 852 c 0,34,35
 366 852 366 852 366 739 c 0,36,37
 366 698 366 698 451 648 c 0,38,39
 492 624 492 624 575 577 c 128,-1,40
 658 530 658 530 727 459.5 c 128,-1,41
 796 389 796 389 796 295 c 0,42,43
 796 144 796 144 664 54 c 0,44,45
 556 -20 556 -20 403 -20 c 0,46,47
 313 -20 313 -20 223 26 c 0,48,49
 193 42 193 42 179 41 c 1,0,1
EndSplineSet
Validated: 1
EndChar

StartChar: t
Encoding: 116 116 85
Width: 724
Flags: MW
AnchorPoint: "top" 594 1270 basechar 0
AnchorPoint: "cedilla" 434 0 basechar 0
AnchorPoint: "below" 434 0 basechar 0
LayerCount: 2
Fore
SplineSet
453 144 m 0,0,1
 454 56 454 56 530 56 c 0,2,3
 578 56 578 56 622.5 93 c 128,-1,4
 667 130 667 130 691 193 c 1,5,-1
 737 168 l 1,6,7
 662 -20 662 -20 460 -20 c 0,8,9
 301 -20 301 -20 240 52 c 0,10,11
 198 102 198 102 198 196 c 0,12,13
 198 239 198 239 207 291 c 2,14,-1
 299 840 l 1,15,-1
 155 840 l 1,16,-1
 165 901 l 1,17,18
 286 901 286 901 391 992 c 128,-1,19
 496 1083 496 1083 515 1198 c 1,20,-1
 626 1198 l 1,21,-1
 577 901 l 1,22,-1
 753 901 l 1,23,-1
 743 840 l 1,24,-1
 567 840 l 1,25,-1
 457 188 l 2,26,27
 453 164 453 164 453 144 c 0,0,1
EndSplineSet
Validated: 1
EndChar

StartChar: u
Encoding: 117 117 86
Width: 1167
Flags: W
HStem: -16 61<382 601.932 887 1139.11> 858 43<171 273.228>
VStem: 189 250<69.4851 334.362> 787 248<45.2708 149 182.005 254.944>
AnchorPoint: "mid" 682.341 504 basechar 0
AnchorPoint: "ogonek" 1071 0 basechar 0
AnchorPoint: "below" 504 0 basechar 0
AnchorPoint: "cedilla" 479 0 basechar 0
AnchorPoint: "top" 779.547 1055 basechar 0
LayerCount: 2
Back
SplineSet
888.69 305.9 m 5
 809.564 119.9 615.153 -20 454.153 -20 c 4
 278.153 -20 162.83 76.667 195.183 270 c 6
 286.719 817 l 5
 279.96 844.333 238.913 858 163.58 858 c 5
 170.775 901 l 5
 556.775 901 l 5
 448.84 256 l 6
 422.411 98.0674 449.7 49 507.7 49 c 132
 597.699 49 764.585 149.9 839.126 336.666 c 5
 888.69 305.9 l 5
904.775 901 m 5
 1160.78 901 l 5
 1038.78 172 l 6
 1028.07 108 1036.53 45 1088.53 45 c 132
 1104.53 45 1123.37 50 1138.71 58 c 5
 1150.18 19 l 5
 1109.33 -4 1046.32 -16 962.322 -16 c 4
 846.322 -16 764.375 62 792.321 229 c 6
 904.775 901 l 5
EndSplineSet
Fore
SplineSet
1035 128 m 0,0,1
 1035 45 1035 45 1083 45 c 0,2,3
 1113 45 1113 45 1139 58 c 1,4,-1
 1150 19 l 1,5,6
 1088 -16 1088 -16 979 -16 c 0,7,8
 795 -16 795 -16 787 149 c 1,9,10
 628 -20 628 -20 447 -20 c 0,11,12
 317 -20 317 -20 253 46 c 128,-1,13
 189 112 189 112 189 205 c 0,14,15
 189 235 189 235 195 270 c 2,16,-1
 287 817 l 1,17,18
 277 858 277 858 164 858 c 1,19,-1
 171 901 l 1,20,-1
 557 901 l 1,21,-1
 449 256 l 2,22,23
 439 198 439 198 439 156 c 0,24,25
 439 49 439 49 502 49 c 0,26,27
 542 49 542 49 587 68 c 0,28,29
 714 122 714 122 796 253 c 1,30,-1
 905 901 l 1,31,-1
 1161 901 l 1,32,-1
 1039 172 l 2,33,34
 1035 148 1035 148 1035 128 c 0,0,1
EndSplineSet
Validated: 1
EndChar

StartChar: v
Encoding: 118 118 87
Width: 1032
Flags: W
HStem: 0 21G<422.02 604.5> 858 43<-25 86.9229 721 835.111>
AnchorPoint: "below" 514 0 basechar 0
AnchorPoint: "top" 736 1055 basechar 0
LayerCount: 2
Back
SplineSet
551 0 m 1
 430 0 l 1
 104 817 l 2
 92.6667 844.333 49.6667 858 -25 858 c 1
 -25 901 l 1
 337 901 l 1
 602 250 l 1
 551 0 l 1
502.88 0 m 5
 528 298 820 568 836 836 c 5
 817.333 850.667 779 858 721 858 c 5
 721 901 l 5
 961 901 l 5
 912 532 616 246 601 0 c 5
 502.88 0 l 5
EndSplineSet
Fore
SplineSet
637 278 m 1,0,1
 664 319 664 319 763.5 455 c 128,-1,2
 863 591 863 591 911.5 676.5 c 128,-1,3
 960 762 960 762 976 836 c 1,4,5
 952 858 952 858 865 858 c 1,6,-1
 872 901 l 1,7,-1
 1112 901 l 1,8,9
 1054 708 1054 708 900 494 c 0,10,11
 836 404 836 404 773 319 c 1,12,13
 627 118 627 118 601 0 c 1,14,-1
 430 0 l 1,15,-1
 241 817 l 2,16,17
 231 858 231 858 119 858 c 1,18,-1
 126 901 l 1,19,-1
 488 901 l 1,20,-1
 637 278 l 1,0,1
EndSplineSet
Validated: 1
EndChar

StartChar: w
Encoding: 119 119 88
Width: 1671
Flags: W
HStem: 0 21G<422.02 609.986 1061.05 1246> 858 43<-25 86.9229 1362 1476.11>
AnchorPoint: "below" 844 0 basechar 0
AnchorPoint: "top" 1006 1055 basechar 0
LayerCount: 2
Back
SplineSet
1143.88 0 m 1
 1169 298 1461 568 1477 836 c 1
 1458.33 850.667 1420 858 1362 858 c 1
 1362 901 l 1
 1602 901 l 1
 1553 532 1257 246 1242 0 c 1
 1143.88 0 l 1
1173 0 m 1
 1069 0 l 1
 836 586 l 1
 602 0 l 1
 430 0 l 1
 104 817 l 2
 93 844 50 858 -25 858 c 1
 -25 901 l 1
 337 901 l 1
 602 250 l 1
 838.5 842.5 l 5
 1002 842 l 5
 1241 250 l 1
 1173 0 l 1
EndSplineSet
Fore
SplineSet
979 842 m 1,0,-1
 1143 842 l 1,1,-1
 1276 276 l 1,2,3
 1303 318 1303 318 1403.5 454.5 c 128,-1,4
 1504 591 1504 591 1552.5 676.5 c 128,-1,5
 1601 762 1601 762 1617 836 c 1,6,7
 1593 858 1593 858 1506 858 c 1,8,-1
 1513 901 l 1,9,-1
 1753 901 l 1,10,11
 1695 708 1695 708 1541 494 c 1,12,13
 1478 404 1478 404 1415 319 c 1,14,15
 1269 118 1269 118 1242 0 c 1,16,-1
 1069 0 l 1,17,-1
 934 586 l 1,18,-1
 602 0 l 1,19,-1
 430 0 l 1,20,-1
 241 817 l 2,21,22
 231 858 231 858 119 858 c 1,23,-1
 126 901 l 1,24,-1
 488 901 l 1,25,-1
 644 250 l 1,26,-1
 979 842 l 1,0,-1
EndSplineSet
Validated: 1
EndChar

StartChar: x
Encoding: 120 120 89
Width: 993
Flags: MW
LayerCount: 2
Back
SplineSet
2 0 m 5
 2 43 l 5
 76 43 122.333 56.6667 141 84 c 5
 391 418 l 5
 135 829 l 6
 123.667 848.333 84 858 16 858 c 5
 16 901 l 5
 485 901 l 5
 485 858 l 5
 452.333 858 426 856 406 852 c 5
 547 625 l 5
 754 900.9 l 5
 944 901 l 5
 944 858 l 5
 870 858 824.333 845 807 819 c 5
 598 543 l 5
 891 72 l 6
 902.333 52.6667 942.667 43 1012 43 c 5
 1012 0 l 5
 543 0 l 5
 543 43 l 5
 577 43 603 45 621 49 c 5
 442 336 l 5
 192.5 0 l 5
 2 0 l 5
EndSplineSet
Fore
SplineSet
2 0 m 1,0,-1
 9 43 l 1,1,2
 120 43 120 43 155 84 c 1,3,-1
 461 418 l 1,4,-1
 274 829 l 1,5,6
 262 858 262 858 160 858 c 1,7,-1
 167 901 l 1,8,-1
 636 901 l 1,9,-1
 629 858 l 1,10,11
 580 858 580 858 549 852 c 1,12,-1
 652 625 l 1,13,-1
 905 901 l 1,14,-1
 1095 901 l 1,15,-1
 1088 858 l 1,16,17
 977 858 977 858 944 819 c 1,18,-1
 689 543 l 1,19,-1
 903 72 l 1,20,21
 915 43 915 43 1019 43 c 1,22,-1
 1012 0 l 1,23,-1
 543 0 l 1,24,-1
 550 43 l 1,25,26
 601 43 601 43 629 49 c 1,27,-1
 498 336 l 1,28,-1
 192 0 l 1,29,-1
 2 0 l 1,0,-1
EndSplineSet
Validated: 1
EndChar

StartChar: y
Encoding: 121 121 90
Width: 1032
Flags: W
HStem: -377 119<180.641 379.452> 858 43<126 227.307 872 975.235>
AnchorPoint: "below" 680 0 basechar 0
AnchorPoint: "ogonek" 750 0 basechar 0
AnchorPoint: "top" 767 1055 basechar 0
LayerCount: 2
Back
SplineSet
154 -279 m 4
 154 -233 188 -197 233 -197 c 4
 309 -197 293 -258 360 -258 c 4
 387 -258 405 -246 414 -221 c 5
 467 -90 l 5
 104 817 l 6
 93 844 50 858 -25 858 c 5
 -25 901 l 5
 337 901 l 5
 602 250 l 5
 836 836 l 5
 817 851 779 858 721 858 c 5
 721 901 l 5
 962 901 l 13
 518 -209 l 6
 479 -306 414 -377 303 -377 c 4
 204 -377 154 -344 154 -279 c 4
EndSplineSet
Fore
SplineSet
106 -298 m 1,0,1
 105 -292 105 -292 105 -287 c 0,2,3
 105 -251 105 -251 135 -224 c 128,-1,4
 165 -197 165 -197 205.5 -197 c 128,-1,5
 246 -197 246 -197 261.5 -227.5 c 128,-1,6
 277 -258 277 -258 317.5 -258 c 128,-1,7
 358 -258 358 -258 377 -221 c 1,8,-1
 452 -90 l 1,9,-1
 241 817 l 2,10,11
 231 858 231 858 119 858 c 1,12,-1
 126 901 l 1,13,-1
 488 901 l 1,14,-1
 644 250 l 1,15,-1
 976 836 l 1,16,17
 952 858 952 858 865 858 c 1,18,-1
 872 901 l 1,19,-1
 1113 901 l 1,20,-1
 483 -209 l 2,21,22
 387 -377 387 -377 246.5 -377 c 128,-1,23
 106 -377 106 -377 106 -298 c 1,0,1
EndSplineSet
Validated: 1
EndChar

StartChar: z
Encoding: 122 122 91
Width: 847
Flags: MW
AnchorPoint: "mid" 511 483 basechar 0
AnchorPoint: "below" 420 0 basechar 0
AnchorPoint: "cedilla" 420 0 basechar 0
AnchorPoint: "top" 609 1055 basechar 0
LayerCount: 2
Fore
SplineSet
782 0 m 1,0,-1
 25 0 l 1,1,-1
 641 840 l 1,2,-1
 346 840 l 1,3,4
 317 829 317 829 288 791.5 c 128,-1,5
 259 754 259 754 249 696 c 1,6,-1
 206 696 l 1,7,-1
 241 901 l 1,8,-1
 950 901 l 1,9,-1
 334 61 l 1,10,-1
 678 61 l 1,11,12
 706 72 706 72 735 112 c 128,-1,13
 764 152 764 152 774 211 c 1,14,-1
 817 211 l 1,15,-1
 782 0 l 1,0,-1
EndSplineSet
Validated: 1
EndChar

StartChar: braceleft
Encoding: 123 123 92
Width: 563
Flags: W
HStem: -313 49<372.216 462> 428 47<108 209.452> 1169 48<603.343 710>
VStem: 141 208<-238.391 41.5> 236 212<240.407 381.009>
LayerCount: 2
Fore
SplineSet
236 354 m 0,0,1
 236 428 236 428 101 428 c 1,2,-1
 108 475 l 1,3,4
 186 475 186 475 228 501.5 c 128,-1,5
 270 528 270 528 282 598 c 1,6,-1
 336 1028 l 1,7,8
 349 1105 349 1105 447 1161 c 128,-1,9
 545 1217 545 1217 718 1217 c 1,10,-1
 710 1169 l 1,11,12
 634 1169 634 1169 599 1143.5 c 128,-1,13
 564 1118 564 1118 552 1047 c 1,14,-1
 502 616 l 1,15,16
 494 571 494 571 429.5 526 c 128,-1,17
 365 481 365 481 281 453 c 1,18,19
 356 426 356 426 402 383 c 128,-1,20
 448 340 448 340 448 301 c 0,21,22
 448 295 448 295 447 289 c 2,23,-1
 353 -143 l 2,24,25
 349 -165 349 -165 349 -193 c 128,-1,26
 349 -221 349 -221 371.5 -242.5 c 128,-1,27
 394 -264 394 -264 470 -264 c 1,28,-1
 462 -313 l 1,29,30
 459 -313 459 -313 456 -313 c 0,31,32
 288 -313 288 -313 214.5 -261.5 c 128,-1,33
 141 -210 141 -210 141 -146 c 0,34,35
 141 -136 141 -136 143 -125 c 2,36,-1
 233 307 l 2,37,38
 236 324 236 324 236 354 c 0,0,1
EndSplineSet
Validated: 1
EndChar

StartChar: bar
Encoding: 124 124 93
Width: 362
Flags: MW
LayerCount: 2
Fore
SplineSet
352 1331 m 1,0,-1
 456 1331 l 1,1,-1
 223 -61 l 1,2,-1
 119 -61 l 1,3,-1
 352 1331 l 1,0,-1
EndSplineSet
Validated: 1
EndChar

StartChar: braceright
Encoding: 125 125 94
Width: 563
Flags: W
HStem: -313 49<5 111.593> 428 47<507.72 607> 1169 48<253 342.442>
VStem: 266 212<524.314 664.285> 365 208<983.951 1141.27>
LayerCount: 2
Fore
SplineSet
365 1098 m 0,0,1
 365 1169 365 1169 252 1169 c 2,2,3
 245 1169 l 1,4,-1
 253 1217 l 1,5,6
 426 1217 426 1217 499.5 1165.5 c 128,-1,7
 573 1114 573 1114 573 1051 c 2,8,9
 573 1044 l 2,10,11
 573 1038 573 1038 571 1028 c 2,12,-1
 481 598 l 2,13,14
 478 580 478 580 478 551 c 128,-1,15
 478 522 478 522 506 499 c 128,-1,16
 534 476 534 476 614 475 c 1,17,-1
 607 428 l 1,18,19
 528 428 528 428 486 402.5 c 128,-1,20
 444 377 444 377 432 307 c 1,21,-1
 378 -125 l 1,22,23
 365 -202 365 -202 267.5 -257.5 c 128,-1,24
 170 -313 170 -313 -3 -313 c 1,25,-1
 5 -264 l 1,26,27
 81 -264 81 -264 115.5 -239 c 128,-1,28
 150 -214 150 -214 162 -143 c 1,29,-1
 212 289 l 1,30,31
 220 334 220 334 285 379.5 c 128,-1,32
 350 425 350 425 434 453 c 1,33,34
 358 481 358 481 312 523 c 128,-1,35
 266 565 266 565 266 604 c 0,36,37
 266 610 266 610 267 616 c 2,38,-1
 361 1047 l 2,39,40
 365 1070 365 1070 365 1098 c 0,0,1
EndSplineSet
Validated: 1
EndChar

StartChar: asciitilde
Encoding: 126 126 95
Width: 1083
Flags: MW
LayerCount: 2
Fore
SplineSet
845 426 m 0,0,1
 785 426 785 426 604.5 486.5 c 128,-1,2
 424 547 424 547 387 547 c 0,3,4
 307 547 307 547 275 521 c 128,-1,5
 243 495 243 495 231 426 c 1,6,-1
 177 426 l 1,7,8
 222 696 222 696 431 696 c 0,9,10
 491 696 491 696 673.5 635.5 c 128,-1,11
 856 575 856 575 893 575 c 0,12,13
 973 575 973 575 1005 601 c 128,-1,14
 1037 627 1037 627 1048 696 c 1,15,-1
 1101 696 l 1,16,17
 1056 426 1056 426 845 426 c 0,0,1
EndSplineSet
Validated: 1
EndChar

StartChar: exclamdown
Encoding: 161 161 97
Width: 481
Flags: W
HStem: 827 258<306.819 417 418 493.944>
VStem: 89 309<-122.123 97.0083> 256 287<875.125 1034.84>
LayerCount: 2
Fore
SplineSet
418 1084 m 1,0,1
 469 1084 469 1084 506 1053 c 128,-1,2
 543 1022 543 1022 543 979 c 0,3,4
 543 907 543 907 489 867 c 128,-1,5
 435 827 435 827 383 827 c 128,-1,6
 331 827 331 827 293.5 858 c 128,-1,7
 256 889 256 889 256 946 c 128,-1,8
 256 1003 256 1003 311 1044 c 128,-1,9
 366 1085 366 1085 417 1085 c 1,10,-1
 418 1084 l 1,0,1
89 -114 m 0,11,12
 89 -31 89 -31 237 454 c 0,13,14
 262 536 262 536 294.5 591 c 128,-1,15
 327 646 327 646 350.5 646 c 128,-1,16
 374 646 374 646 386 596 c 128,-1,17
 398 546 398 546 398 504 c 2,18,-1
 398 446 l 1,19,20
 384 39 384 39 363 -86 c 0,21,22
 351 -155 351 -155 302.5 -190 c 128,-1,23
 254 -225 254 -225 204 -225 c 128,-1,24
 154 -225 154 -225 121.5 -193.5 c 128,-1,25
 89 -162 89 -162 89 -114 c 0,11,12
EndSplineSet
Validated: 1
EndChar

StartChar: cent
Encoding: 162 162 98
Width: 966
Flags: W
HStem: -20 77<513.132 740.121> 602 156<810.269 876.099> 860 62<568.105 685 799 831.168>
VStem: 133 249<163.927 597.085> 791.5 187.5<637.072 746.469>
LayerCount: 2
Fore
SplineSet
793 1178 m 1,0,-1
 884 1159 l 1,1,-1
 799 911 l 1,2,3
 979 877 979 877 979 743 c 0,4,5
 979 670 979 670 945 636 c 128,-1,6
 911 602 911 602 872.5 602 c 128,-1,7
 834 602 834 602 809.5 620.5 c 128,-1,8
 785 639 785 639 791.5 678 c 128,-1,9
 798 717 798 717 823 737.5 c 128,-1,10
 848 758 848 758 877 758 c 1,11,12
 869 832 869 832 780 852 c 1,13,-1
 512 74 l 1,14,15
 548 57 548 57 613 57 c 0,16,17
 762 57 762 57 894 193 c 1,18,-1
 939 168 l 1,19,20
 863 71 863 71 761 25.5 c 128,-1,21
 659 -20 659 -20 503 -20 c 2,22,-1
 480 -20 l 1,23,-1
 396 -262 l 1,24,-1
 303 -244 l 1,25,-1
 386 -6 l 1,26,27
 259 26 259 26 187 134 c 0,28,29
 133 215 133 215 133 345 c 0,30,31
 133 416 133 416 146 496 c 0,32,33
 175 670 175 670 320 796 c 128,-1,34
 465 922 465 922 674 922 c 2,35,-1
 705 922 l 1,36,-1
 793 1178 l 1,0,-1
438 143 m 1,37,-1
 685 860 l 1,38,39
 453 860 453 860 393 504 c 0,40,41
 382 444 382 444 382 394 c 0,42,43
 382 235 382 235 438 143 c 1,37,-1
EndSplineSet
Validated: 1
EndChar

StartChar: sterling
Encoding: 163 163 99
Width: 1087
Flags: W
HStem: -20 69<178.939 318.141> -17 195<584.764 880.643> 262 70<189.543 350.532> 707 90<313 417 688 839> 1157 62<787.051 933.685>
VStem: 81 71<75.8956 225.766> 434 254<797 949.007> 925.5 170.5<981.205 1086.37>
LayerCount: 2
Fore
SplineSet
582 207 m 1,0,1
 655 178 655 178 737.5 178 c 128,-1,2
 820 178 820 178 887 192 c 128,-1,3
 954 206 954 206 982.5 222 c 128,-1,4
 1011 238 1011 238 1030.5 252 c 128,-1,5
 1050 266 1050 266 1055 266 c 0,6,7
 1070 266 1070 266 1070 248.5 c 128,-1,8
 1070 231 1070 231 1029.5 167 c 128,-1,9
 989 103 989 103 905 43.5 c 128,-1,10
 821 -16 821 -16 700 -16 c 1,11,12
 697 -17 697 -17 693 -17 c 0,13,14
 646 -17 646 -17 482 80 c 1,15,16
 375 -20 375 -20 267.5 -20 c 128,-1,17
 160 -20 160 -20 120.5 30 c 128,-1,18
 81 80 81 80 81 131 c 0,19,20
 81 215 81 215 153 273.5 c 128,-1,21
 225 332 225 332 277 332 c 128,-1,22
 329 332 329 332 384 313 c 1,23,24
 394 374 394 374 399.5 497.5 c 128,-1,25
 405 621 405 621 417 707 c 1,26,-1
 298 707 l 1,27,-1
 313 797 l 1,28,-1
 434 797 l 1,29,30
 522 1219 522 1219 816 1219 c 0,31,32
 952 1219 952 1219 1024 1175.5 c 128,-1,33
 1096 1132 1096 1132 1096 1065 c 0,34,35
 1096 1053 1096 1053 1092 1028 c 128,-1,36
 1088 1003 1088 1003 1056.5 980.5 c 128,-1,37
 1025 958 1025 958 992 958 c 128,-1,38
 959 958 959 958 939.5 980.5 c 128,-1,39
 920 1003 920 1003 925.5 1035 c 128,-1,40
 931 1067 931 1067 954 1087 c 1,41,42
 960 1121 960 1121 926 1139 c 128,-1,43
 892 1157 892 1157 841.5 1157 c 128,-1,44
 791 1157 791 1157 758 1081 c 128,-1,45
 725 1005 725 1005 688 797 c 1,46,-1
 854 797 l 1,47,-1
 839 707 l 1,48,-1
 675 707 l 1,49,50
 669 658 669 658 658.5 548 c 128,-1,51
 648 438 648 438 635.5 360.5 c 128,-1,52
 623 283 623 283 582 207 c 1,0,1
366 213 m 1,53,54
 318 262 318 262 276 262 c 128,-1,55
 234 262 234 262 193 230.5 c 128,-1,56
 152 199 152 199 152 153.5 c 128,-1,57
 152 108 152 108 180 78.5 c 128,-1,58
 208 49 208 49 251.5 49 c 128,-1,59
 295 49 295 49 320 85.5 c 128,-1,60
 345 122 345 122 366 213 c 1,53,54
EndSplineSet
Validated: 1
EndChar

StartChar: currency
Encoding: 164 164 100
Width: 1030
Flags: W
HStem: 152 92<407.866 721.005> 829 93<494.304 803.872>
VStem: 215 93<344.627 649.321> 903 94<424.436 729.53>
LayerCount: 2
Fore
SplineSet
848 744 m 0,0,1
 778 829 778 829 655.5 829 c 128,-1,2
 533 829 533 829 423.5 735.5 c 128,-1,3
 314 642 314 642 308 485 c 1,4,5
 308 397 308 397 364 330 c 0,6,7
 435 244 435 244 557 244 c 128,-1,8
 679 244 679 244 779 330 c 0,9,10
 903 437 903 437 903 589 c 0,11,12
 903 678 903 678 848 744 c 0,0,1
997 605 m 0,13,14
 997 435 997 435 869 299 c 1,15,-1
 960 193 l 1,16,-1
 883 127 l 1,17,-1
 795 236 l 1,18,19
 672 152 672 152 538 152 c 128,-1,20
 404 152 404 152 313 236 c 1,21,-1
 187 127 l 1,22,-1
 132 193 l 1,23,-1
 261 301 l 1,24,25
 215 381 215 381 215 473 c 0,26,27
 215 637 215 637 345 776 c 1,28,-1
 249 889 l 1,29,-1
 326 954 l 1,30,-1
 420 840 l 1,31,32
 539 922 539 922 668.5 922 c 128,-1,33
 798 922 798 922 893 842 c 1,34,-1
 1022 954 l 1,35,-1
 1077 889 l 1,36,-1
 947 778 l 1,37,38
 997 699 997 699 997 605 c 0,13,14
EndSplineSet
Validated: 1
EndChar

StartChar: yen
Encoding: 165 165 101
Width: 1144
Flags: MW
LayerCount: 2
Fore
SplineSet
704 84 m 1,0,1
 714 43 714 43 826 43 c 1,2,-1
 819 0 l 1,3,-1
 373 0 l 1,4,-1
 380 43 l 1,5,6
 492 43 492 43 516 84 c 1,7,-1
 528 156 l 1,8,-1
 350 156 l 1,9,-1
 365 246 l 1,10,-1
 543 246 l 1,11,-1
 551 293 l 1,12,-1
 535 360 l 1,13,-1
 384 360 l 1,14,-1
 399 451 l 1,15,-1
 513 451 l 1,16,-1
 360 1114 l 2,17,18
 350 1155 350 1155 238 1155 c 1,19,-1
 245 1198 l 1,20,-1
 714 1198 l 1,21,-1
 707 1155 l 1,22,23
 648 1155 648 1155 620 1147 c 1,24,-1
 755 584 l 1,25,-1
 1064 1133 l 1,26,27
 1040 1155 1040 1155 953 1155 c 1,28,-1
 960 1198 l 1,29,-1
 1296 1198 l 1,30,-1
 1289 1155 l 1,31,32
 1176 1155 1176 1155 1156 1116 c 1,33,-1
 777 451 l 1,34,-1
 939 451 l 1,35,-1
 924 360 l 1,36,-1
 750 360 l 1,37,-1
 731 246 l 1,38,-1
 905 246 l 1,39,-1
 890 156 l 1,40,-1
 716 156 l 1,41,-1
 704 84 l 1,0,1
EndSplineSet
Validated: 1
EndChar

StartChar: brokenbar
Encoding: 166 166 102
Width: 374
Flags: MW
LayerCount: 2
Fore
SplineSet
358 1331 m 1,0,-1
 463 1331 l 1,1,-1
 364 741 l 1,2,-1
 259 741 l 1,3,-1
 358 1331 l 1,0,-1
223 528 m 1,4,-1
 328 528 l 1,5,-1
 230 -61 l 1,6,-1
 125 -61 l 1,7,-1
 223 528 l 1,4,-1
EndSplineSet
Validated: 1
EndChar

StartChar: section
Encoding: 167 167 103
Width: 823
Flags: W
HStem: -385 41<277.904 422.173> 1180 41<540.242 685.934>
VStem: 95 141<-295.048 -122.111> 143 193<350.939 566.047> 292 197<939.646 1101.93> 474 197<-267.681 -103.157> 627 193<269.867 485.121> 723 146<958.111 1131.07>
LayerCount: 2
Fore
SplineSet
316 -385 m 0,0,1
 312 -385 312 -385 308 -385 c 0,2,3
 218 -385 218 -385 156.5 -316 c 128,-1,4
 95 -247 95 -247 95 -203 c 128,-1,5
 95 -159 95 -159 121 -130.5 c 128,-1,6
 147 -102 147 -102 178 -102 c 128,-1,7
 209 -102 209 -102 224.5 -121.5 c 128,-1,8
 240 -141 240 -141 240 -168 c 1,9,-1
 236 -214 l 1,10,11
 236 -248 236 -248 257 -296 c 128,-1,12
 278 -344 278 -344 337 -344 c 128,-1,13
 396 -344 396 -344 428.5 -319.5 c 128,-1,14
 461 -295 461 -295 473 -221 c 0,15,16
 474 -217 474 -217 474 -212 c 0,17,18
 474 -150 474 -150 356 2 c 0,19,20
 303 70 303 70 252 142 c 0,21,22
 144 293 144 293 143 399 c 0,23,24
 143 415 143 415 146 430 c 0,25,26
 187 674 187 674 389 745 c 1,27,28
 292 873 292 873 292 971 c 0,29,30
 292 988 292 988 295 1002 c 0,31,32
 313 1110 313 1110 411 1165.5 c 128,-1,33
 509 1221 509 1221 653 1221 c 2,34,-1
 656 1221 l 2,35,36
 746 1221 746 1221 807.5 1152 c 128,-1,37
 869 1083 869 1083 869 1040 c 2,38,-1
 869 1036 l 2,39,40
 869 1034 869 1034 868 1030 c 0,41,42
 853 938 853 938 784 938 c 0,43,44
 755 938 755 938 739 957.5 c 128,-1,45
 723 977 723 977 723 1005 c 1,46,-1
 727 1050 l 1,47,48
 727 1084 727 1084 706 1132 c 128,-1,49
 685 1180 685 1180 625.5 1180 c 128,-1,50
 566 1180 566 1180 534 1155.5 c 128,-1,51
 502 1131 502 1131 490 1057 c 0,52,53
 489 1053 489 1053 489 1049 c 0,54,55
 489 987 489 987 608 834 c 0,56,57
 661 766 661 766 712 694 c 0,58,59
 820 543 820 543 820 437 c 0,60,61
 820 421 820 421 818 406 c 0,62,63
 777 161 777 161 574 90 c 1,64,65
 671 -41 671 -41 671 -133 c 0,66,67
 670 -262 670 -262 552 -330 c 0,68,69
 456 -385 456 -385 316 -385 c 0,0,1
436 684 m 1,70,71
 336 633 336 633 336 503 c 0,72,73
 336 426 336 426 381.5 349 c 128,-1,74
 427 272 427 272 527 152 c 1,75,76
 621 199 621 199 627 331 c 1,77,-1
 627 333 l 2,78,79
 627 455 627 455 486 624 c 0,80,81
 442 676 442 676 436 684 c 1,70,71
EndSplineSet
Validated: 1
EndChar

StartChar: dieresis
Encoding: 168 168 104
Width: 823
Flags: W
HStem: 1024 242<328.151 488.352 718.334 872.046>
VStem: 285 243<1063.99 1222.96> 677 243<1066.53 1224.22>
LayerCount: 2
Fore
SplineSet
777 1024 m 128,-1,1
 727 1024 727 1024 702 1055.5 c 128,-1,2
 677 1087 677 1087 677 1136 c 128,-1,3
 677 1185 677 1185 722.5 1225.5 c 128,-1,4
 768 1266 768 1266 818 1266 c 128,-1,5
 868 1266 868 1266 894 1234 c 128,-1,6
 920 1202 920 1202 920 1179 c 0,7,8
 920 1104 920 1104 873.5 1064 c 128,-1,0
 827 1024 827 1024 777 1024 c 128,-1,1
388 1024 m 128,-1,10
 339 1024 339 1024 312 1055.5 c 128,-1,11
 285 1087 285 1087 285 1135 c 0,12,13
 285 1185 285 1185 332.5 1225.5 c 128,-1,14
 380 1266 380 1266 429 1266 c 128,-1,15
 478 1266 478 1266 504 1234 c 128,-1,16
 530 1202 530 1202 529.5 1179.5 c 128,-1,17
 529 1157 529 1157 528 1145 c 0,18,19
 520 1095 520 1095 478.5 1059.5 c 128,-1,9
 437 1024 437 1024 388 1024 c 128,-1,10
EndSplineSet
Validated: 1
EndChar

StartChar: copyright
Encoding: 169 169 105
Width: 1302
Flags: W
HStem: -16 55<498.895 826.661> 238 69<652.745 843.41> 808 71<717.463 909.742> 1059 55<659.103 988.842>
VStem: 170 55<311.148 626.069> 436 168<359.147 672.249> 937 41<694 764.181> 950 45<848.005 868> 1260 57<472.462 791.445>
LayerCount: 2
Fore
SplineSet
344 804 m 0,0,1
 229 651 229 651 225 463 c 1,2,3
 225 374 225 374 259 294 c 0,4,5
 308 176 308 176 414 107.5 c 128,-1,6
 520 39 520 39 658 39 c 128,-1,7
 796 39 796 39 925 107.5 c 128,-1,8
 1054 176 1054 176 1142 294 c 0,9,10
 1260 452 1260 452 1260 635 c 0,11,12
 1260 724 1260 724 1227 804 c 0,13,14
 1178 922 1178 922 1072 990.5 c 128,-1,15
 966 1059 966 1059 828 1059 c 128,-1,16
 690 1059 690 1059 561 990.5 c 128,-1,17
 432 922 432 922 344 804 c 0,0,1
170 453 m 0,18,19
 170 657 170 657 302 832 c 0,20,21
 400 962 400 962 542 1038 c 128,-1,22
 684 1114 684 1114 837 1114 c 128,-1,23
 990 1114 990 1114 1108 1038 c 128,-1,24
 1226 962 1226 962 1280 832 c 0,25,26
 1317 744 1317 744 1317 671 c 2,27,-1
 1317 668 l 2,28,29
 1317 440 1317 440 1186 266 c 0,30,31
 1088 136 1088 136 944.5 60 c 128,-1,32
 801 -16 801 -16 648 -16 c 128,-1,33
 495 -16 495 -16 378 60 c 128,-1,34
 261 136 261 136 207 266 c 0,35,36
 170 354 170 354 170 453 c 0,18,19
937 694 m 1,37,38
 931 747 931 747 908.5 777.5 c 128,-1,39
 886 808 886 808 815 808 c 128,-1,40
 744 808 744 808 688 746 c 0,41,42
 609 659 609 659 604 480 c 1,43,44
 604 414 604 414 629 372 c 0,45,46
 667 308 667 308 733 307 c 1,47,48
 848 307 848 307 905 414 c 1,49,-1
 964 387 l 1,50,51
 881 238 881 238 722.5 238 c 128,-1,52
 564 238 564 238 491 322 c 0,53,54
 436 386 436 386 436 483 c 0,55,56
 436 514 436 514 442 549 c 0,57,58
 475 749 475 749 640 834 c 0,59,60
 728 879 728 879 837 879 c 0,61,62
 885 879 885 879 913.5 863.5 c 128,-1,63
 942 848 942 848 944.5 848 c 128,-1,64
 947 848 947 848 950 868 c 1,65,-1
 995 868 l 1,66,-1
 978 694 l 1,67,-1
 937 694 l 1,37,38
EndSplineSet
Validated: 1
EndChar

StartChar: ordfeminine
Encoding: 170 170 106
Width: 823
Flags: W
HStem: 264 53<168 767> 430 38<386.352 511.418 630 767.141> 907 41<418.549 572.426>
VStem: 208 155<473.148 628.771> 283 124<783.986 853.989> 594 152<711.715 893.725> 785 21<479.469 494>
LayerCount: 2
Fore
SplineSet
168 317 m 1,0,-1
 776 317 l 1,1,-1
 767 264 l 1,2,-1
 159 264 l 1,3,-1
 168 317 l 1,0,-1
594 820 m 1,4,5
 594 907 594 907 524 907 c 2,6,-1
 522 907 l 2,7,8
 410 907 410 907 387 854 c 1,9,10
 415 854 415 854 407 807 c 0,11,12
 400 768 400 768 336 768 c 0,13,14
 311 768 311 768 295 783.5 c 128,-1,15
 279 799 279 799 283 823 c 0,16,17
 293 880 293 880 361 914 c 128,-1,18
 429 948 429 948 537 948 c 128,-1,19
 645 948 645 948 695.5 900 c 128,-1,20
 746 852 746 852 746 791 c 0,21,22
 746 776 746 776 743 760 c 2,23,-1
 706 537 l 2,24,25
 700 502 700 502 710 484.5 c 128,-1,26
 720 467 720 467 736.5 467 c 128,-1,27
 753 467 753 467 768 475 c 128,-1,28
 783 483 783 483 785 494 c 1,29,-1
 806 494 l 1,30,31
 796 432 796 432 660 432 c 0,32,33
 600 432 600 432 571 473 c 1,34,35
 484 430 484 430 394 430 c 0,36,37
 208 430 208 430 208 541 c 0,38,39
 208 622 208 622 301 652.5 c 128,-1,40
 394 683 394 683 476.5 698 c 128,-1,41
 559 713 559 713 583 719 c 1,42,43
 593 780 593 780 594 820 c 1,4,5
363 547 m 0,44,45
 365 468 365 468 440 468 c 0,46,47
 486 468 486 468 559 500 c 1,48,49
 555 514 555 514 555 531 c 128,-1,50
 555 548 555 548 558 567 c 2,51,-1
 579 694 l 1,52,53
 515 683 515 683 459 658 c 1,54,-1
 434 646 l 2,55,56
 411 635 411 635 387 609.5 c 128,-1,57
 363 584 363 584 363 547 c 0,44,45
EndSplineSet
Validated: 1
EndChar

StartChar: guillemotleft
Encoding: 171 171 107
Width: 899
Flags: W
HStem: 322 581
LayerCount: 2
Back
SplineSet
522 547 m 1
 505.333 559.667 496.833 580.5 496.5 609.5 c 2
 496.495 610.414 l 2
 496.495 638.98 511.996 661.509 543 678 c 1
 937 903 l 1
 923 817 l 1
 684 612 l 1
 854 408 l 1
 840 322 l 1
 522 547 l 1
194 547 m 2
 177.663 559.253 169.495 580.192 169.495 609.819 c 128
 169.495 639.445 184.663 662.172 215 678 c 1
 610 903 l 1
 596 817 l 1
 356 612 l 1
 527 408 l 1
 513 322 l 1
 194 547 l 2
EndSplineSet
Fore
SplineSet
522 547 m 2,0,1
 497 565 497 565 497 609 c 128,-1,2
 497 653 497 653 543 678 c 1,3,-1
 938 903 l 1,4,-1
 924 817 l 1,5,-1
 684 612 l 1,6,-1
 855 408 l 1,7,-1
 841 322 l 1,8,-1
 522 547 l 2,0,1
194 547 m 2,9,10
 169 565 169 565 169 609 c 128,-1,11
 169 653 169 653 215 678 c 1,12,-1
 610 903 l 1,13,-1
 596 817 l 1,14,-1
 356 612 l 1,15,-1
 527 408 l 1,16,-1
 513 322 l 1,17,-1
 194 547 l 2,9,10
EndSplineSet
Validated: 1
EndChar

StartChar: logicalnot
Encoding: 172 172 108
Width: 851
Flags: MW
LayerCount: 2
Fore
SplineSet
738 606 m 1,0,-1
 226 606 l 1,1,-1
 241 696 l 1,2,-1
 839 696 l 1,3,-1
 794 426 l 1,4,-1
 708 426 l 1,5,-1
 738 606 l 1,0,-1
EndSplineSet
Validated: 1
EndChar

StartChar: uni00AD
Encoding: 173 173 109
Width: 761
Flags: MW
LayerCount: 2
Fore
SplineSet
227 696 m 1,0,-1
 767 696 l 1,1,-1
 752 606 l 1,2,-1
 212 606 l 1,3,-1
 227 696 l 1,0,-1
EndSplineSet
Validated: 1
EndChar

StartChar: registered
Encoding: 174 174 110
Width: 1302
Flags: W
HStem: -16 55<498.895 826.661> 250 41<414 478.646 626.138 681 958.073 1000> 522 56<672 710> 815 53<510 563.862 711 837.196> 1059 55<659.103 988.842>
VStem: 170 55<311.148 626.069> 870 155<613.018 792.402> 1260 57<472.462 791.445>
LayerCount: 2
Fore
SplineSet
344 804 m 0,0,1
 229 651 229 651 225 463 c 1,2,3
 225 374 225 374 259 294 c 0,4,5
 308 176 308 176 414 107.5 c 128,-1,6
 520 39 520 39 658 39 c 128,-1,7
 796 39 796 39 925 107.5 c 128,-1,8
 1054 176 1054 176 1142 294 c 0,9,10
 1260 452 1260 452 1260 635 c 0,11,12
 1260 724 1260 724 1227 804 c 0,13,14
 1178 922 1178 922 1072 990.5 c 128,-1,15
 966 1059 966 1059 828 1059 c 128,-1,16
 690 1059 690 1059 561 990.5 c 128,-1,17
 432 922 432 922 344 804 c 0,0,1
170 453 m 0,18,19
 170 657 170 657 302 832 c 0,20,21
 400 962 400 962 542 1038 c 128,-1,22
 684 1114 684 1114 837 1114 c 128,-1,23
 990 1114 990 1114 1108 1038 c 128,-1,24
 1226 962 1226 962 1280 832 c 0,25,26
 1317 744 1317 744 1317 671 c 2,27,-1
 1317 668 l 2,28,29
 1317 440 1317 440 1186 266 c 0,30,31
 1088 136 1088 136 944.5 60 c 128,-1,32
 801 -16 801 -16 648 -16 c 128,-1,33
 495 -16 495 -16 378 60 c 128,-1,34
 261 136 261 136 207 266 c 0,35,36
 170 354 170 354 170 453 c 0,18,19
1024 709 m 0,37,38
 1003 586 1003 586 867 541 c 1,39,-1
 958 307 l 1,40,41
 960 291 960 291 1007 291 c 1,42,-1
 1000 250 l 1,43,-1
 947 250 l 2,44,45
 871 250 871 250 840.5 261 c 128,-1,46
 810 272 810 272 795 309 c 2,47,-1
 710 522 l 1,48,-1
 662 522 l 1,49,-1
 626 305 l 1,50,51
 630 291 630 291 688 291 c 1,52,-1
 681 250 l 1,53,-1
 407 250 l 1,54,-1
 414 291 l 1,55,56
 468 291 468 291 479 305 c 1,57,-1
 564 815 l 1,58,59
 560 827 560 827 503 827 c 1,60,-1
 510 868 l 1,61,-1
 768 868 l 2,62,63
 901 868 901 868 963 823 c 128,-1,64
 1025 778 1025 778 1025 726 c 0,65,66
 1025 717 1025 717 1024 709 c 0,37,38
711 815 m 1,67,-1
 672 578 l 1,68,-1
 715 578 l 2,69,70
 870 578 870 578 870 725 c 0,71,72
 870 762 870 762 839 788.5 c 128,-1,73
 808 815 808 815 742 815 c 2,74,-1
 711 815 l 1,67,-1
EndSplineSet
Validated: 1
EndChar

StartChar: macron
Encoding: 175 175 111
Width: 786
Flags: MW
LayerCount: 2
Fore
SplineSet
318 1163 m 1,0,-1
 859 1163 l 1,1,-1
 840 1053 l 1,2,-1
 299 1053 l 1,3,-1
 318 1163 l 1,0,-1
EndSplineSet
Validated: 1
EndChar

StartChar: degree
Encoding: 176 176 112
Width: 606
Flags: W
HStem: 826 82<362.007 441 442 563.094> 1206 84<396.526 599.651>
VStem: 243 86<942.049 1142.92> 632 85<973.387 1171.45>
LayerCount: 2
Fore
SplineSet
505.5 1206 m 128,-1,1
 444 1206 444 1206 386.5 1157 c 128,-1,2
 329 1108 329 1108 329 1031 c 0,3,4
 329 986 329 986 361 947 c 128,-1,5
 393 908 393 908 454.5 908 c 128,-1,6
 516 908 516 908 574 957 c 128,-1,7
 632 1006 632 1006 632 1083 c 0,8,9
 632 1128 632 1128 599.5 1167 c 128,-1,0
 567 1206 567 1206 505.5 1206 c 128,-1,1
243 1017 m 1,10,11
 249 1140 249 1140 336.5 1215 c 128,-1,12
 424 1290 424 1290 519 1290 c 128,-1,13
 614 1290 614 1290 665.5 1228.5 c 128,-1,14
 717 1167 717 1167 717 1097 c 0,15,16
 716 978 716 978 626 902 c 128,-1,17
 536 826 536 826 442 825 c 1,18,-1
 441 826 l 1,19,20
 346 826 346 826 295 887 c 128,-1,21
 244 948 244 948 243 1017 c 1,10,11
EndSplineSet
Validated: 1
EndChar

StartChar: plusminus
Encoding: 177 177 113
Width: 835
Flags: MW
LayerCount: 2
Fore
SplineSet
186 365 m 1,0,-1
 772 365 l 1,1,-1
 757 274 l 1,2,-1
 171 274 l 1,3,-1
 186 365 l 1,0,-1
582 713 m 1,4,-1
 548 506 l 1,5,-1
 458 506 l 1,6,-1
 492 713 l 1,7,-1
 244 713 l 1,8,-1
 259 803 l 1,9,-1
 507 803 l 1,10,-1
 542 1010 l 1,11,-1
 632 1010 l 1,12,-1
 597 803 l 1,13,-1
 845 803 l 1,14,-1
 830 713 l 1,15,-1
 582 713 l 1,4,-1
EndSplineSet
Validated: 1
EndChar

StartChar: uni00B2
Encoding: 178 178 114
Width: 720
Flags: MW
LayerCount: 2
Fore
SplineSet
630 1153 m 0,0,1
 630 1250 630 1250 538 1250 c 0,2,3
 428 1249 428 1249 374 1203 c 0,4,5
 352 1184 352 1184 336 1164.5 c 128,-1,6
 320 1145 320 1145 308.5 1131.5 c 128,-1,7
 297 1118 297 1118 287 1118 c 0,8,9
 267 1118 267 1118 272 1147.5 c 128,-1,10
 277 1177 277 1177 314 1220.5 c 128,-1,11
 351 1264 351 1264 384 1290 c 0,12,13
 462 1352 462 1352 586 1352 c 128,-1,14
 710 1352 710 1352 759.5 1302 c 128,-1,15
 809 1252 809 1252 809 1184 c 0,16,17
 809 1102 809 1102 743 1022.5 c 128,-1,18
 677 943 677 943 611.5 888.5 c 128,-1,19
 546 834 546 834 477.5 779.5 c 128,-1,20
 409 725 409 725 395 709 c 1,21,-1
 649 709 l 1,22,23
 716 731 716 731 738 776 c 1,24,-1
 783 776 l 1,25,-1
 692 573 l 1,26,-1
 162 573 l 1,27,-1
 164 584 l 2,28,29
 169 614 169 614 331.5 749 c 128,-1,30
 494 884 494 884 556 971 c 0,31,32
 630 1076 630 1076 630 1153 c 0,0,1
EndSplineSet
Validated: 1
EndChar

StartChar: uni00B3
Encoding: 179 179 115
Width: 708
Flags: W
HStem: 565 61<333.496 522.333> 942 50<433.438 538.048> 1249 103<414.423 607.613>
VStem: 183 115.5<646.76 756.53> 610 159<698.73 939.347> 626 163<1070.58 1229.23>
LayerCount: 2
Fore
SplineSet
530 950 m 1,0,-1
 461 942 l 1,1,2
 447 942 447 942 433 955 c 128,-1,3
 419 968 419 968 430.5 978 c 128,-1,4
 442 988 442 988 462 992 c 0,5,6
 545 1008 545 1008 585.5 1051 c 128,-1,7
 626 1094 626 1094 626 1145 c 128,-1,8
 626 1196 626 1196 604 1222.5 c 128,-1,9
 582 1249 582 1249 528 1249 c 128,-1,10
 474 1249 474 1249 432.5 1236 c 128,-1,11
 391 1223 391 1223 360.5 1182 c 128,-1,12
 330 1141 330 1141 317 1141 c 0,13,14
 295 1141 295 1141 300.5 1174 c 128,-1,15
 306 1207 306 1207 353 1256 c 0,16,17
 444 1352 444 1352 558 1352 c 0,18,19
 788 1352 788 1352 789 1196 c 0,20,21
 789 1176 789 1176 785 1153 c 0,22,23
 771 1067 771 1067 660 1006 c 1,24,25
 718 982 718 982 743.5 938 c 128,-1,26
 769 894 769 894 769 866 c 0,27,28
 769 732 769 732 685.5 648.5 c 128,-1,29
 602 565 602 565 435 565 c 0,30,31
 433 565 433 565 431 565 c 0,32,33
 267 565 267 565 197 655 c 0,34,35
 183 673 183 673 183 699 c 128,-1,36
 183 725 183 725 203 748.5 c 128,-1,37
 223 772 223 772 248 772 c 128,-1,38
 273 772 273 772 282.5 757 c 128,-1,39
 292 742 292 742 298.5 721 c 128,-1,40
 305 700 305 700 315 678 c 0,41,42
 341 626 341 626 421 626 c 2,43,-1
 423 626 l 2,44,45
 503 626 503 626 556.5 686.5 c 128,-1,46
 610 747 610 747 610 825 c 0,47,48
 610 862 610 862 595 898 c 0,49,50
 574 950 574 950 530 950 c 1,0,-1
EndSplineSet
Validated: 1
EndChar

StartChar: acute
Encoding: 180 180 116
Width: 614
Flags: MW
LayerCount: 2
Fore
SplineSet
397 1356 m 1,0,-1
 655 1356 l 1,1,-1
 325 1024 l 1,2,-1
 230 1024 l 1,3,-1
 397 1356 l 1,0,-1
EndSplineSet
Validated: 1
EndChar

StartChar: uni00B5
Encoding: 181 181 117
Width: 1251
Flags: W
HStem: -20 69<491.285 711.441 913.5 1161.47> 881 20G<299.647 559 915.647 1175>
VStem: 103 119<-339 -79.375> 799 249<80.2864 407.945> 1182 37<62.7148 92>
LayerCount: 2
Fore
SplineSet
978 -20 m 0,0,1
 849 -20 849 -20 813 84 c 1,2,3
 703 -20 703 -20 564 -20 c 0,4,5
 346 -20 346 -20 251 76 c 1,6,-1
 227 -68 l 2,7,8
 222 -96 222 -96 222 -133.5 c 128,-1,9
 222 -171 222 -171 246 -192.5 c 128,-1,10
 270 -214 270 -214 296.5 -235 c 128,-1,11
 323 -256 323 -256 323 -292 c 2,12,13
 323 -295 l 2,14,15
 323 -354 323 -354 282.5 -382 c 128,-1,16
 242 -410 242 -410 200 -410 c 128,-1,17
 158 -410 158 -410 130.5 -382 c 128,-1,18
 103 -354 103 -354 103 -324 c 128,-1,19
 103 -294 103 -294 106 -274 c 2,20,-1
 303 901 l 1,21,-1
 559 901 l 1,22,-1
 451 256 l 2,23,24
 446 224 446 224 445 197 c 1,25,26
 445 49 445 49 604 49 c 0,27,28
 703 49 703 49 800 141 c 1,29,30
 799 148 799 148 799 166.5 c 128,-1,31
 799 185 799 185 806 227 c 2,32,-1
 919 901 l 1,33,-1
 1175 901 l 1,34,-1
 1052 170 l 2,35,36
 1048 144 1048 144 1048 118.5 c 128,-1,37
 1048 93 1048 93 1061.5 67 c 128,-1,38
 1075 41 1075 41 1103.5 41 c 128,-1,39
 1132 41 1132 41 1155.5 56 c 128,-1,40
 1179 71 1179 71 1182 92 c 1,41,-1
 1219 92 l 1,42,43
 1201 -20 1201 -20 978 -20 c 0,0,1
EndSplineSet
Validated: 1
EndChar

StartChar: paragraph
Encoding: 182 182 118
Width: 1087
Flags: W
HStem: 0 43<265 380.539 895.693 997> 1128 70<764 869> 1155 43<1074.46 1190>
LayerCount: 2
Fore
SplineSet
882 84 m 1,0,1
 892 43 892 43 1004 43 c 1,2,-1
 997 0 l 1,3,-1
 680 0 l 1,4,-1
 869 1128 l 1,5,-1
 764 1128 l 1,6,-1
 575 0 l 1,7,-1
 258 0 l 1,8,-1
 265 43 l 1,9,10
 377 43 377 43 401 84 c 1,11,-1
 479 549 l 1,12,13
 327 564 327 564 254 651 c 0,14,15
 200 716 200 716 200 809 c 0,16,17
 200 945 200 945 295 1046 c 0,18,19
 436 1198 436 1198 706 1198 c 2,20,-1
 1197 1198 l 1,21,-1
 1190 1155 l 1,22,23
 1078 1155 1078 1155 1054 1114 c 1,24,-1
 882 84 l 1,0,1
EndSplineSet
Validated: 1
EndChar

StartChar: periodcentered
Encoding: 183 183 119
Width: 471
Flags: MW
LayerCount: 2
Fore
SplineSet
321.5 492 m 128,-1,1
 270 492 270 492 233 522.5 c 128,-1,2
 196 553 196 553 196 597 c 0,3,4
 196 669 196 669 250 709.5 c 128,-1,5
 304 750 304 750 356 750 c 128,-1,6
 408 750 408 750 445.5 719 c 128,-1,7
 483 688 483 688 483 645 c 0,8,9
 483 575 483 575 428 533.5 c 128,-1,0
 373 492 373 492 321.5 492 c 128,-1,1
EndSplineSet
Validated: 1
EndChar

StartChar: cedilla
Encoding: 184 184 120
Width: 622
Flags: MW
LayerCount: 2
Fore
SplineSet
248 25 m 1,0,-1
 346 25 l 1,1,-1
 286 -113 l 1,2,3
 346 -113 346 -113 395 -135 c 0,4,5
 480 -173 480 -173 480 -230 c 0,6,7
 480 -303 480 -303 406.5 -355.5 c 128,-1,8
 333 -408 333 -408 206 -408 c 0,9,10
 144 -408 144 -408 57 -393 c 1,11,-1
 63 -358 l 1,12,13
 98 -362 98 -362 113 -362 c 0,14,15
 192 -362 192 -362 226 -334 c 0,16,17
 268 -299 268 -299 268 -248 c 0,18,19
 268 -176 268 -176 157 -176 c 1,20,-1
 248 25 l 1,0,-1
EndSplineSet
Validated: 1
EndChar

StartChar: uni00B9
Encoding: 185 185 121
Width: 497
Flags: MW
LayerCount: 2
Fore
SplineSet
246 1040 m 1,0,1
 469 1341 469 1341 513 1341 c 2,2,-1
 560 1341 l 1,3,-1
 443 641 l 1,4,5
 450 621 450 621 528 621 c 1,6,-1
 520 573 l 1,7,-1
 180 573 l 1,8,-1
 188 621 l 1,9,10
 262 621 262 621 277 641 c 1,11,-1
 352 1085 l 1,12,13
 330 1073 330 1073 277 1022 c 1,14,-1
 246 1040 l 1,0,1
EndSplineSet
Validated: 1
EndChar

StartChar: ordmasculine
Encoding: 186 186 122
Width: 815
Flags: W
HStem: 264 53<164 749> 430 33<442.436 563.342> 913 35<485.797 613.851>
VStem: 223 162<516.768 805.843> 667 158<576.634 870.378>
LayerCount: 2
Fore
SplineSet
164 317 m 1,0,-1
 758 317 l 1,1,-1
 749 264 l 1,2,-1
 155 264 l 1,3,-1
 164 317 l 1,0,-1
446 857 m 0,4,5
 385 770 385 770 385 616.5 c 128,-1,6
 385 463 385 463 507 463 c 0,7,8
 623 463 623 463 659 684 c 0,9,10
 667 732 667 732 667 776 c 128,-1,11
 667 820 667 820 653 854 c 0,12,13
 628 912 628 912 538 913 c 0,14,15
 486 913 486 913 446 857 c 0,4,5
825 741 m 0,16,17
 825 595 825 595 716 503 c 0,18,19
 630 430 630 430 488.5 430 c 128,-1,20
 347 430 347 430 285 495.5 c 128,-1,21
 223 561 223 561 223 645 c 0,22,23
 223 787 223 787 332 877 c 0,24,25
 418 948 418 948 564.5 948 c 128,-1,26
 711 948 711 948 775 877 c 0,27,28
 825 822 825 822 825 741 c 0,16,17
EndSplineSet
Validated: 1
EndChar

StartChar: guillemotright
Encoding: 187 187 123
Width: 899
Flags: W
HStem: 322 581
LayerCount: 2
Back
SplineSet
910 678 m 2
 926.667 666 935 645.167 935 615.5 c 128
 935 585.833 919.667 563 889 547 c 1
 494 322 l 1
 508 408 l 1
 747 612 l 1
 577 817 l 1
 591 903 l 1
 910 678 l 2
582 678 m 2
 599.333 666 608 645.333 608 616 c 2
 608 615 l 2
 608 586.333 592.333 563.667 561 547 c 1
 167 322 l 1
 181 408 l 1
 419 612 l 1
 250 817 l 1
 264 903 l 1
 582 678 l 2
EndSplineSet
Fore
SplineSet
910 678 m 2,0,1
 935 660 935 660 935 615.5 c 128,-1,2
 935 571 935 571 889 547 c 1,3,-1
 494 322 l 1,4,-1
 508 408 l 1,5,-1
 747 612 l 1,6,-1
 577 817 l 1,7,-1
 591 903 l 1,8,-1
 910 678 l 2,0,1
582 678 m 2,9,10
 607 660 607 660 607 616 c 128,-1,11
 607 572 607 572 561 547 c 1,12,-1
 166 322 l 1,13,-1
 180 408 l 1,14,-1
 419 612 l 1,15,-1
 249 817 l 1,16,-1
 263 903 l 1,17,-1
 582 678 l 2,9,10
EndSplineSet
Validated: 1
EndChar

StartChar: onequarter
Encoding: 188 188 124
Width: 1335
Flags: W
LayerCount: 2
Back
SplineSet
235 1040 m 1
 383.667 1240.67 473 1341 503 1341 c 2
 550 1341 l 1
 433 641 l 1
 437.667 627.667 466 621 518 621 c 1
 510 573 l 1
 170 573 l 1
 178 621 l 1
 227.333 621 257 627.667 267 641 c 1
 342 1085 l 1
 327.333 1077 302.333 1056 267 1022 c 1
 235 1040 l 1
1311 768 m 1
 1228 274 l 1
 1320 274 l 1
 1310 215 l 1
 1218 215 l 1
 1193 68 l 1
 1198.33 54 1226 47 1276 47 c 1
 1268 0 l 1
 932 0 l 1
 940 47 l 1
 990.669 47 1020.34 54 1029 68 c 1
 1054 215 l 1
 724 215 l 1
 1204 768 l 1
 1311 768 l 1
1064 274 m 1
 1115 582 l 1
 849 274 l 1
 1064 274 l 1
196 -20 m 1
 1205 1253 l 1
 1300 1217 l 1
 289 -57 l 1
 196 -20 l 1
EndSplineSet
Fore
Refer: 681 8324 N 1 0 0 1 705 256 2
Refer: 121 185 N 1 0 0 1 -10 0 2
Refer: 16 47 N 1 0 0 1 162 0 2
Validated: 1
EndChar

StartChar: onehalf
Encoding: 189 189 125
Width: 1390
Flags: W
LayerCount: 2
Back
SplineSet
242 1040 m 1
 390.667 1240.67 479.667 1341 509 1341 c 2
 556 1341 l 1
 439 641 l 1
 443.667 627.667 472 621 524 621 c 1
 516 573 l 1
 176 573 l 1
 184 621 l 1
 233.333 621 263 627.667 273 641 c 1
 348 1085 l 1
 333.333 1077 308.333 1056 273 1022 c 1
 242 1040 l 1
1214 580 m 0
 1214 644 1183.33 676 1122 676 c 0
 1049.33 676 994.667 660.667 958 630 c 0
 942.663 616.667 929.83 603.667 919.5 591 c 128
 909.167 578.333 900.167 567.5 892.5 558.5 c 128
 884.833 549.5 877.667 545 871 545 c 0
 857.667 545 852.667 554.667 856 574 c 128
 859.333 593.333 873.333 617.5 898 646.5 c 128
 922.667 675.5 946 698.667 968 716 c 0
 1020 757.333 1087.33 778 1170 778 c 128
 1252.67 778 1310.5 761.333 1343.5 728 c 128
 1376.5 694.666 1393 655.333 1393 610 c 0
 1393 555.333 1371 501.5 1327 448.5 c 128
 1283 395.5 1239.17 350.833 1195.5 314.5 c 128
 1151.83 278.167 1107.16 241.833 1061.5 205.5 c 128
 1015.83 169.167 988.333 145.667 979 135 c 1
 1233 135 l 1
 1277.67 150.333 1307.33 173 1322 203 c 1
 1367 203 l 1
 1276 0 l 1
 745 0 l 1
 747 10 l 2
 750.333 30 803 82.6667 905 168 c 0
 947.669 204 990.835 241.833 1034.5 281.5 c 128
 1078.17 321.167 1116.83 365 1150.5 413 c 128
 1184.17 461 1203.17 498.167 1207.5 524.5 c 128
 1211.83 550.833 1214 569.333 1214 580 c 0
153 -20 m 1
 1162 1253 l 1
 1257 1217 l 1
 246 -57 l 1
 153 -20 l 1
EndSplineSet
Fore
Refer: 679 8322 N 1 0 0 1 723 256 2
Refer: 16 47 N 1 0 0 1 120 0 2
Refer: 121 185 N 1 0 0 1 -4 0 2
Validated: 1
EndChar

StartChar: threequarters
Encoding: 190 190 126
Width: 1413
Flags: W
HStem: 565 61<322.496 511.333> 942 50<422.438 527.048> 1249 103<403.423 596.613>
VStem: 172 115.5<646.76 756.53> 599 159<698.73 939.347> 615 163<1070.58 1229.23>
LayerCount: 2
Back
SplineSet
519 950 m 1
 451 942 l 1
 441.667 942 433.667 945 427 951 c 0
 415 962.333 412.833 971.333 420.5 978 c 128
 428.167 984.667 438.667 989.5 452 992.5 c 0
 465.333 994.833 477.333 998 488 1002 c 0
 530 1016.67 560 1033.67 578 1053 c 0
 603.333 1079.67 616 1110.17 616 1144.5 c 128
 616 1178.84 608.667 1204.68 594 1222 c 128
 579.333 1239.35 554.333 1248.19 519 1248.5 c 128
 483.667 1248.83 454.167 1245.33 430.5 1238 c 128
 406.833 1230.67 389.166 1221.67 377.5 1211 c 128
 365.833 1200.32 356 1189.65 348 1179 c 0
 329.333 1153.67 315.666 1141 307 1141 c 0
 292.333 1141 286.833 1152 290.5 1174 c 128
 294.167 1196 311.667 1223.33 343 1256 c 0
 403.667 1320 472 1352 548 1352 c 0
 701.333 1352 778.333 1300 779 1196 c 0
 779 1182.67 777.667 1168.33 775 1153 c 0
 765.667 1095.67 723.667 1046.67 649 1006 c 1
 687.667 990 715.5 967.5 732.5 938.5 c 128
 749.5 909.5 758 885.5 758 866.5 c 128
 758 847.5 756 826 752 802 c 0
 742 741.333 712.833 686.667 664.5 638 c 128
 616.166 589.333 536.333 565 425 565 c 0
 423 565 423 565 421 565 c 0
 313 565 234.667 595 186 655 c 0
 176.667 666.333 172 680.833 172 698.5 c 128
 172 716.169 178.667 732.836 192 748.5 c 128
 205.333 764.167 220.5 772 237.5 772 c 128
 254.5 772 266.167 767 272.5 757 c 128
 278.833 747 284 735 288 721 c 128
 292 707 297.333 692.667 304 678 c 0
 320.667 643.333 355.667 626 409 626 c 2
 411 626 l 2
 465 626 508 644 540 680 c 0
 580 725.333 600 773 600 823 c 0
 600 848.333 593.833 875.833 581.5 905.5 c 128
 569.166 935.167 548.332 950 519 950 c 1
1380 768 m 1
 1297 274 l 1
 1389 274 l 1
 1379 215 l 1
 1287 215 l 1
 1262 68 l 1
 1267.33 54 1295 47 1345 47 c 1
 1337 0 l 1
 1001 0 l 1
 1009 47 l 1
 1059 47 1088.67 54 1098 68 c 1
 1123 215 l 1
 794 215 l 1
 1274 768 l 1
 1380 768 l 1
1133 274 m 1
 1184 582 l 1
 918 274 l 1
 1133 274 l 1
286 -20 m 1
 1295 1253 l 1
 1390 1217 l 1
 379 -57 l 1
 286 -20 l 1
EndSplineSet
Fore
Refer: 115 179 N 1 0 0 1 -11 0 2
Refer: 16 47 N 1 0 0 1 252 0 2
Refer: 681 8324 N 1 0 0 1 774 256 2
Validated: 1
EndChar

StartChar: questiondown
Encoding: 191 191 127
Width: 872
Flags: W
HStem: -226 62<380.684 568.045> 827 258<546.162 656 658 733.49>
VStem: 71 255<-109.443 204.416> 496 287<875.608 1035.68> 638 189<-47.5515 151.497>
LayerCount: 2
Fore
SplineSet
658 1084 m 1,0,1
 710 1084 710 1084 746.5 1053 c 128,-1,2
 783 1022 783 1022 783 979 c 0,3,4
 783 907 783 907 728.5 867 c 128,-1,5
 674 827 674 827 622 827 c 128,-1,6
 570 827 570 827 533 857.5 c 128,-1,7
 496 888 496 888 496 945.5 c 128,-1,8
 496 1003 496 1003 550.5 1044 c 128,-1,9
 605 1085 605 1085 656 1085 c 1,10,-1
 658 1084 l 1,0,1
632 655 m 0,11,12
 614 550 614 550 545 470 c 128,-1,13
 476 390 476 390 435 336 c 0,14,15
 326 192 326 192 326 15 c 0,16,17
 326 -50 326 -50 348 -94 c 0,18,19
 383 -164 383 -164 462.5 -164 c 128,-1,20
 542 -164 542 -164 585.5 -119 c 128,-1,21
 629 -74 629 -74 633.5 -46.5 c 128,-1,22
 638 -19 638 -19 638 -1 c 128,-1,23
 638 17 638 17 629 39 c 128,-1,24
 620 61 620 61 625 89.5 c 128,-1,25
 630 118 630 118 663.5 146 c 128,-1,26
 697 174 697 174 743.5 174 c 128,-1,27
 790 174 790 174 808.5 145 c 128,-1,28
 827 116 827 116 827 92 c 0,29,30
 827 22 827 22 784 -46 c 0,31,32
 672 -226 672 -226 415 -226 c 2,33,-1
 414 -226 l 2,34,35
 232 -226 232 -226 142 -140 c 0,36,37
 71 -72 71 -72 71 33 c 0,38,39
 71 184 71 184 189 303 c 0,40,41
 259 375 259 375 339.5 433 c 128,-1,42
 420 491 420 491 460 523 c 0,43,44
 549 595 549 595 559 655 c 0,45,46
 561 665 561 665 575.5 674.5 c 128,-1,47
 590 684 590 684 599 684 c 128,-1,48
 608 684 608 684 621 674.5 c 128,-1,49
 634 665 634 665 632 655 c 0,11,12
EndSplineSet
Validated: 1
EndChar

StartChar: Agrave
Encoding: 192 192 128
Width: 1159
Flags: MW
AnchorPoint: "mid" 607 590 basechar 0
AnchorPoint: "below" 524 0 basechar 0
AnchorPoint: "cedilla" 909 0 basechar 0
AnchorPoint: "ogonek" 1020 0 basechar 0
AnchorPoint: "top" 855 1638 basechar 0
LayerCount: 2
Back
SplineSet
191.388 80 m 1
 200.593 55.3333 240.862 43 312.195 43 c 1
 305 0 l 1
 -31 0 l 1
 -23.8047 43 l 1
 51.5286 43 96.9274 57.3333 112.392 86 c 2
 696.477 1198 l 1
 862.477 1198 l 1
 1077.39 86 l 2
 1082.6 57.3333 1123.87 43 1201.2 43 c 1
 1194 0 l 1
 674 0 l 1
 681.195 43 l 1
 743.862 43 784.923 51.3333 804.379 68 c 1
 741.758 381 l 1
 348.758 381 l 1
 191.388 80 l 1
633.959 926 m 1
 384.137 449 l 1
 728.137 449 l 1
 633.959 926 l 1
792.083 1602 m 25
 847.525 1270 l 1
 753.525 1270 l 1
 534.083 1602 l 1
 792.083 1602 l 25
EndSplineSet
Fore
Refer: 444 768 N 1 0 0 1 1143 246 2
Refer: 34 65 N 1 0 0 1 0 0 3
Validated: 1
EndChar

StartChar: Aacute
Encoding: 193 193 129
Width: 1159
Flags: MW
AnchorPoint: "mid" 607 590 basechar 0
AnchorPoint: "below" 524 0 basechar 0
AnchorPoint: "cedilla" 909 0 basechar 0
AnchorPoint: "ogonek" 1020 0 basechar 0
AnchorPoint: "top" 855 1638 basechar 0
LayerCount: 2
Back
SplineSet
191.388 80 m 1
 200.593 55.3333 240.862 43 312.195 43 c 1
 305 0 l 1
 -31 0 l 1
 -23.8047 43 l 1
 51.5286 43 96.9274 57.3333 112.392 86 c 2
 696.477 1198 l 1
 862.477 1198 l 1
 1077.39 86 l 2
 1082.6 57.3333 1123.87 43 1201.2 43 c 1
 1194 0 l 1
 674 0 l 1
 681.195 43 l 1
 743.862 43 784.923 51.3333 804.379 68 c 1
 741.758 381 l 1
 348.758 381 l 1
 191.388 80 l 1
633.959 926 m 1
 384.137 449 l 1
 728.137 449 l 1
 633.959 926 l 1
870.083 1602 m 25
 1128.08 1602 l 1
 798.525 1270 l 1
 704.525 1270 l 1
 870.083 1602 l 25
EndSplineSet
Fore
Refer: 445 769 N 1 0 0 1 1143 246 2
Refer: 34 65 N 1 0 0 1 0 0 3
Validated: 1
EndChar

StartChar: Acircumflex
Encoding: 194 194 130
Width: 1159
Flags: MW
AnchorPoint: "mid" 607 590 basechar 0
AnchorPoint: "below" 524 0 basechar 0
AnchorPoint: "cedilla" 909 0 basechar 0
AnchorPoint: "ogonek" 1020 0 basechar 0
AnchorPoint: "top" 855 1638 basechar 0
LayerCount: 2
Back
SplineSet
191.388 80 m 1
 200.593 55.3333 240.862 43 312.195 43 c 1
 305 0 l 1
 -31 0 l 1
 -23.8047 43 l 1
 51.5286 43 96.9274 57.3333 112.392 86 c 2
 696.477 1198 l 1
 862.477 1198 l 1
 1077.39 86 l 2
 1082.6 57.3333 1123.87 43 1201.2 43 c 1
 1194 0 l 1
 674 0 l 1
 681.195 43 l 1
 743.862 43 784.923 51.3333 804.379 68 c 1
 741.758 381 l 1
 348.758 381 l 1
 191.388 80 l 1
633.959 926 m 1
 384.137 449 l 1
 728.137 449 l 1
 633.959 926 l 1
901.083 1602 m 1
 1068.53 1270 l 1
 994.525 1270 l 1
 817.451 1407 l 1
 594.525 1270 l 1
 520.525 1270 l 1
 799.083 1602 l 1
 901.083 1602 l 1
EndSplineSet
Fore
Refer: 446 770 N 1 0 0 1 1144 246 2
Refer: 34 65 N 1 0 0 1 0 0 3
Validated: 1
EndChar

StartChar: Atilde
Encoding: 195 195 131
Width: 1159
Flags: MW
AnchorPoint: "mid" 607 590 basechar 0
AnchorPoint: "below" 524 0 basechar 0
AnchorPoint: "cedilla" 909 0 basechar 0
AnchorPoint: "ogonek" 1020 0 basechar 0
AnchorPoint: "top" 842.285 1560 basechar 0
LayerCount: 2
Back
SplineSet
191.388 80 m 1
 200.593 55.3333 240.862 43 312.195 43 c 1
 305 0 l 1
 -31 0 l 1
 -23.8047 43 l 1
 51.5286 43 96.9274 57.3333 112.392 86 c 2
 696.477 1198 l 1
 862.477 1198 l 1
 1077.39 86 l 2
 1082.6 57.3333 1123.87 43 1201.2 43 c 1
 1194 0 l 1
 674 0 l 1
 681.195 43 l 1
 743.862 43 784.923 51.3333 804.379 68 c 1
 741.758 381 l 1
 348.758 381 l 1
 191.388 80 l 1
633.959 926 m 1
 384.137 449 l 1
 728.137 449 l 1
 633.959 926 l 1
1066.88 1308 m 128
 1030.41 1269.33 993.344 1250 955.678 1250 c 128
 918.011 1250 861.858 1270 787.219 1310 c 128
 712.579 1350 665.926 1370 647.26 1370 c 0
 606.593 1370 578.255 1363 562.245 1349 c 128
 546.235 1335 534.995 1308.67 528.525 1270 c 1
 489.525 1270 l 1
 504.475 1359.33 529.851 1423.33 565.655 1462 c 128
 601.459 1500.67 638.027 1520 675.36 1520 c 128
 712.694 1520 769.152 1499.83 844.736 1459.5 c 128
 920.32 1419.17 967.446 1399 986.112 1399 c 0
 1026.78 1399 1055.12 1406 1071.13 1420 c 128
 1087.14 1434 1098.38 1460.33 1104.85 1499 c 1
 1143.85 1499 l 1
 1129.01 1410.33 1103.35 1346.66 1066.88 1308 c 128
EndSplineSet
Fore
Refer: 447 771 N 1 0 0 1 1144 246 2
Refer: 34 65 N 1 0 0 1 0 0 3
Validated: 1
EndChar

StartChar: Adieresis
Encoding: 196 196 132
Width: 1159
Flags: MW
AnchorPoint: "mid" 607 590 basechar 0
AnchorPoint: "below" 524 0 basechar 0
AnchorPoint: "cedilla" 909 0 basechar 0
AnchorPoint: "ogonek" 1020 0 basechar 0
AnchorPoint: "top" 842.419 1560 basechar 0
LayerCount: 2
Back
SplineSet
191.388 80 m 1
 200.593 55.3333 240.862 43 312.195 43 c 1
 305 0 l 1
 -31 0 l 1
 -23.8047 43 l 1
 51.5286 43 96.9274 57.3333 112.392 86 c 2
 696.477 1198 l 1
 862.477 1198 l 1
 1077.39 86 l 2
 1082.6 57.3333 1123.87 43 1201.2 43 c 1
 1194 0 l 1
 674 0 l 1
 681.195 43 l 1
 743.862 43 784.923 51.3333 804.379 68 c 1
 741.758 381 l 1
 348.758 381 l 1
 191.388 80 l 1
633.959 926 m 1
 384.137 449 l 1
 728.137 449 l 1
 633.959 926 l 1
890.773 1391 m 0
 896.24 1423.67 912.315 1452 938.998 1476 c 128
 965.681 1500 995.689 1512 1029.02 1512 c 128
 1062.35 1512 1088.85 1500 1108.5 1476 c 128
 1128.15 1452 1135.24 1423.67 1129.77 1391 c 128
 1124.31 1358.33 1107.73 1330 1080.05 1306 c 128
 1052.37 1282 1021.86 1270 988.525 1270 c 128
 955.19 1270 929.17 1281.83 910.466 1305.5 c 128
 891.759 1329.17 885.195 1357.67 890.773 1391 c 0
498.773 1391 m 128
 504.24 1423.67 520.982 1452 548.998 1476 c 128
 577.015 1500 607.357 1512 640.022 1512 c 128
 672.689 1512 698.709 1500.17 718.081 1476.5 c 128
 737.454 1452.83 744.352 1424.33 738.773 1391 c 128
 733.195 1357.67 716.759 1329.17 689.466 1305.5 c 128
 662.172 1281.83 632.192 1270 599.525 1270 c 128
 566.859 1270 540.534 1282 520.55 1306 c 128
 500.566 1330 493.307 1358.33 498.773 1391 c 128
EndSplineSet
Fore
Refer: 452 776 N 1 0 0 1 1144 246 2
Refer: 34 65 N 1 0 0 1 0 0 3
Validated: 1
EndChar

StartChar: Aring
Encoding: 197 197 133
Width: 1159
UnlinkRmOvrlpSave: 1
Flags: MW
AnchorPoint: "mid" 607 590 basechar 0
AnchorPoint: "below" 524 0 basechar 0
AnchorPoint: "cedilla" 909 0 basechar 0
AnchorPoint: "ogonek" 1020 0 basechar 0
AnchorPoint: "top" 842 1560 basechar 0
LayerCount: 2
Back
SplineSet
191.388 80 m 1
 200.593 55.3333 240.862 43 312.195 43 c 1
 305 0 l 1
 -31 0 l 1
 -23.8047 43 l 1
 51.5286 43 96.9274 57.3333 112.392 86 c 2
 696.477 1198 l 1
 862.477 1198 l 1
 1077.39 86 l 2
 1082.6 57.3333 1123.87 43 1201.2 43 c 1
 1194 0 l 1
 674 0 l 1
 681.195 43 l 1
 743.862 43 784.923 51.3333 804.379 68 c 1
 741.758 381 l 1
 348.758 381 l 1
 191.388 80 l 1
633.959 926 m 1
 384.137 449 l 1
 728.137 449 l 1
 633.959 926 l 1
732.12 1411 m 128
 728.216 1387.67 733.341 1367.5 747.496 1350.5 c 128
 761.651 1333.5 780.395 1325 803.729 1325 c 128
 827.062 1325 848.651 1333.5 868.496 1350.5 c 128
 888.341 1367.5 900.216 1387.67 904.12 1411 c 128
 908.011 1434.33 902.886 1454.5 888.744 1471.5 c 128
 874.589 1488.5 855.845 1497 832.512 1497 c 128
 809.178 1497 787.588 1488.5 767.744 1471.5 c 128
 747.9 1454.5 736.025 1434.33 732.12 1411 c 128
691.631 1303.5 m 128
 667.484 1332.5 659.008 1368.5 666.204 1411.5 c 128
 673.403 1454.5 694.094 1490.5 728.277 1519.5 c 128
 762.465 1548.5 800.891 1563 843.557 1563 c 128
 886.225 1563 919.632 1548.5 943.777 1519.5 c 128
 967.924 1490.5 976.372 1454.33 969.12 1411 c 128
 961.869 1367.67 941.345 1331.67 907.548 1303 c 128
 873.75 1274.33 835.352 1260 792.352 1260 c 128
 749.352 1260 715.778 1274.5 691.631 1303.5 c 128
EndSplineSet
Fore
Refer: 454 778 N 1 0 0 1 1129 166 2
Refer: 34 65 N 1 0 0 1 0 0 3
Validated: 5
EndChar

StartChar: AE
Encoding: 198 198 134
Width: 1519
Flags: W
HStem: 0 70<985 1427.22> 0 43<-52 61.9941 172.762 276 591 706.539> 381 68<431 777> 588 69<1083 1309.88> 1128 70<1162 1537.63> 1155 43<741 846.326>
VStem: 1533 43<999 1074.75>
AnchorPoint: "below" 854 0 basechar 0
AnchorPoint: "cedilla" 853 0 basechar 0
AnchorPoint: "ogonek" 1400 0 basechar 0
AnchorPoint: "mid" 985 804 basechar 0
AnchorPoint: "top" 1061 1270 basechar 0
LayerCount: 2
Back
SplineSet
591 43 m 1
 665.667 43 711 56.6667 727 84 c 1
 777 381 l 1
 381 381 l 1
 163 80 l 1
 167.667 66 178.667 56.3333 196 51 c 128
 213.333 45.6667 242.333 43 283 43 c 1
 276 0 l 1
 121 0 l 1
 131.667 23.3333 142 45.3333 152 66 c 1
 104 0 l 1
 -59 0 l 1
 -52 43 l 1
 22.6667 43 68 57.3333 84 86 c 1
 84 84 l 1
 847 1133 l 1
 833 1147.67 795.333 1155 734 1155 c 1
 741 1198 l 1
 1609 1198 l 1
 1576 999 l 1
 1533 999 l 1
 1537 1023.67 1539 1049.33 1539 1076 c 0
 1539 1102.67 1530.67 1120 1514 1128 c 1
 1162 1128 l 1
 1083 657 l 1
 1298 657 l 1
 1327.33 668.333 1348.33 711.333 1361 786 c 1
 1404 786 l 1
 1349 459 l 1
 1306 459 l 1
 1310 483.667 1312 509.333 1312 536 c 0
 1312 562.667 1303.33 580 1286 588 c 1
 1071 588 l 1
 985 70 l 1
 1380 70 l 1
 1414.67 83.3333 1452.33 126.333 1493 199 c 1
 1534 199 l 1
 1452 0 l 1
 584 0 l 1
 591 43 l 1
431 449 m 1
 788 449 l 1
 895 1085 l 1
 431 449 l 1
EndSplineSet
Fore
SplineSet
-59 0 m 1,0,-1
 -52 43 l 1,1,2
 60 43 60 43 84 86 c 1,3,-1
 84 84 l 1,4,-1
 847 1133 l 1,5,6
 826 1155 826 1155 734 1155 c 1,7,-1
 741 1198 l 1,8,-1
 1609 1198 l 1,9,-1
 1576 999 l 1,10,-1
 1533 999 l 1,11,12
 1539 1036 1539 1036 1539 1076 c 128,-1,13
 1539 1116 1539 1116 1514 1128 c 1,14,-1
 1162 1128 l 1,15,-1
 1083 657 l 1,16,-1
 1298 657 l 1,17,18
 1342 674 1342 674 1361 786 c 1,19,-1
 1404 786 l 1,20,-1
 1349 459 l 1,21,-1
 1306 459 l 1,22,23
 1312 496 1312 496 1312 536 c 128,-1,24
 1312 576 1312 576 1286 588 c 1,25,-1
 1071 588 l 1,26,-1
 985 70 l 1,27,-1
 1380 70 l 1,28,29
 1432 90 1432 90 1493 199 c 1,30,-1
 1534 199 l 1,31,-1
 1452 0 l 1,32,-1
 584 0 l 1,33,-1
 591 43 l 1,34,35
 703 43 703 43 727 84 c 1,36,-1
 777 381 l 1,37,-1
 381 381 l 1,38,-1
 163 80 l 1,39,40
 170 59 170 59 196 51 c 128,-1,41
 222 43 222 43 283 43 c 1,42,-1
 276 0 l 1,43,-1
 -59 0 l 1,0,-1
431 449 m 1,44,-1
 788 449 l 1,45,-1
 895 1085 l 1,46,-1
 431 449 l 1,44,-1
EndSplineSet
Validated: 1
EndChar

StartChar: Ccedilla
Encoding: 199 199 135
Width: 1150
UnlinkRmOvrlpSave: 1
Flags: MW
AnchorPoint: "top" 918 1270 basechar 0
LayerCount: 2
Back
SplineSet
909 1149 m 1
 909 1147 l 1
 795 1147 698.667 1099.67 620 1005 c 128
 541.333 910.333 487.667 777 459 605 c 0
 448.333 542.333 443.333 484.667 444 432 c 1
 444 339.333 460 261 492 197 c 0
 542.667 97 623 47 733 47 c 0
 799.667 47 864.5 69.8333 927.5 115.5 c 128
 990.5 161.167 1037 212 1067 268 c 1
 1147 244 l 1
 1107.67 176.667 1054.33 118.5 987 69.5 c 128
 919.666 20.5 837.333 -8.66667 740 -18 c 1
 700 -113 l 1
 740 -113 776.333 -120.333 809 -135 c 0
 865.667 -160.333 894 -192 894 -230 c 0
 894 -278.978 869.5 -320.889 820.5 -355.733 c 128
 771.5 -390.578 704.667 -408 620 -408 c 0
 578.667 -408 529 -403 471 -393 c 1
 477 -358 l 1
 500.333 -360.667 517 -362 527 -362 c 0
 579 -362 616.5 -352.5 639.5 -333.5 c 0
 667.833 -310.094 682 -281.594 682 -248 c 0
 682 -200 645 -176 571 -176 c 1
 642 -18 l 1
 556 -13.3333 479.5 6.33333 412.5 41 c 128
 345.5 75.6667 292.333 120.667 253 176 c 1
 192.333 264.667 162 363.667 162 473 c 0
 162 605.88 198 730.88 270 848 c 0
 320.667 929.333 380.667 996.667 450 1050 c 0
 596 1162.67 752.333 1219 919 1219 c 0
 959 1219 1006.83 1208.67 1062.5 1188 c 128
 1118.17 1167.33 1149.67 1157 1157 1157 c 0
 1173 1157 1183 1170.67 1187 1198 c 1
 1234 1198 l 1
 1203 909 l 1
 1158 909 l 1
 1159.33 965 1132.83 1019 1078.5 1071 c 128
 1024.17 1123 967.667 1149 909 1149 c 1
EndSplineSet
Fore
Refer: 473 807 S 1 0 0 1 1220 0 2
Refer: 36 67 N 1 0 0 1 0 0 3
Validated: 5
EndChar

StartChar: Egrave
Encoding: 200 200 136
Width: 1030
Flags: MW
AnchorPoint: "mid" 390 336 basechar 0
AnchorPoint: "below" 571 0 basechar 0
AnchorPoint: "cedilla" 571 0 basechar 0
AnchorPoint: "ogonek" 819 0 basechar 0
AnchorPoint: "top" 839 1638 basechar 0
LayerCount: 2
Back
SplineSet
816 459 m 1
 820 483.667 822 509.333 822 536 c 0
 822 562.667 813.333 580 796 588 c 1
 561 588 l 1
 475 70 l 1
 891 70 l 1
 925.668 83.3333 963.335 126.333 1004 199 c 1
 1045 199 l 1
 963 0 l 1
 74 0 l 1
 81 43 l 1
 155.667 43 201 56.6667 217 84 c 1
 389 1114 l 1
 382.333 1141.33 341.666 1155 267 1155 c 1
 274 1198 l 1
 1120 1198 l 1
 1087 999 l 1
 1044 999 l 1
 1048 1023.67 1050 1049.33 1050 1076 c 0
 1050 1102.67 1041.67 1120 1025 1128 c 1
 652 1128 l 1
 573 657 l 1
 808 657 l 1
 837.333 668.333 858.333 711.333 871 786 c 1
 914 786 l 1
 859 459 l 1
 816 459 l 1
777 1602 m 25
 833 1270 l 1
 739 1270 l 1
 519 1602 l 1
 777 1602 l 25
EndSplineSet
Fore
Refer: 444 768 N 1 0 0 1 1129 246 2
Refer: 38 69 N 1 0 0 1 0 0 3
Validated: 1
EndChar

StartChar: Eacute
Encoding: 201 201 137
Width: 1030
Flags: MW
AnchorPoint: "mid" 390 336 basechar 0
AnchorPoint: "below" 571 0 basechar 0
AnchorPoint: "cedilla" 571 0 basechar 0
AnchorPoint: "ogonek" 819 0 basechar 0
AnchorPoint: "top" 839 1638 basechar 0
LayerCount: 2
Back
SplineSet
816 459 m 1
 820 483.667 822 509.333 822 536 c 0
 822 562.667 813.333 580 796 588 c 1
 561 588 l 1
 475 70 l 1
 891 70 l 1
 925.668 83.3333 963.335 126.333 1004 199 c 1
 1045 199 l 1
 963 0 l 1
 74 0 l 1
 81 43 l 1
 155.667 43 201 56.6667 217 84 c 1
 389 1114 l 1
 382.333 1141.33 341.666 1155 267 1155 c 1
 274 1198 l 1
 1120 1198 l 1
 1087 999 l 1
 1044 999 l 1
 1048 1023.67 1050 1049.33 1050 1076 c 0
 1050 1102.67 1041.67 1120 1025 1128 c 1
 652 1128 l 1
 573 657 l 1
 808 657 l 1
 837.333 668.333 858.333 711.333 871 786 c 1
 914 786 l 1
 859 459 l 1
 816 459 l 1
855 1602 m 25
 1113 1602 l 1
 784 1270 l 1
 690 1270 l 1
 855 1602 l 25
EndSplineSet
Fore
Refer: 445 769 N 1 0 0 1 1129 246 2
Refer: 38 69 N 1 0 0 1 0 0 3
Validated: 1
EndChar

StartChar: Ecircumflex
Encoding: 202 202 138
Width: 1030
Flags: MW
AnchorPoint: "mid" 390 336 basechar 0
AnchorPoint: "below" 571 0 basechar 0
AnchorPoint: "cedilla" 571 0 basechar 0
AnchorPoint: "ogonek" 819 0 basechar 0
AnchorPoint: "top" 839 1638 basechar 0
LayerCount: 2
Back
SplineSet
816 459 m 1
 820 483.667 822 509.333 822 536 c 0
 822 562.667 813.333 580 796 588 c 1
 561 588 l 1
 475 70 l 1
 891 70 l 1
 925.668 83.3333 963.335 126.333 1004 199 c 1
 1045 199 l 1
 963 0 l 1
 74 0 l 1
 81 43 l 1
 155.667 43 201 56.6667 217 84 c 1
 389 1114 l 1
 382.333 1141.33 341.666 1155 267 1155 c 1
 274 1198 l 1
 1120 1198 l 1
 1087 999 l 1
 1044 999 l 1
 1048 1023.67 1050 1049.33 1050 1076 c 0
 1050 1102.67 1041.67 1120 1025 1128 c 1
 652 1128 l 1
 573 657 l 1
 808 657 l 1
 837.333 668.333 858.333 711.333 871 786 c 1
 914 786 l 1
 859 459 l 1
 816 459 l 1
886 1602 m 1
 1054 1270 l 1
 980 1270 l 1
 802 1407 l 1
 580 1270 l 1
 506 1270 l 1
 784 1602 l 1
 886 1602 l 1
EndSplineSet
Fore
Refer: 446 770 N 1 0 0 1 1130 246 2
Refer: 38 69 N 1 0 0 1 0 0 3
Validated: 1
EndChar

StartChar: Edieresis
Encoding: 203 203 139
Width: 1030
Flags: MW
AnchorPoint: "mid" 390 336 basechar 0
AnchorPoint: "below" 571 0 basechar 0
AnchorPoint: "cedilla" 571 0 basechar 0
AnchorPoint: "ogonek" 819 0 basechar 0
AnchorPoint: "top" 826.419 1560 basechar 0
LayerCount: 2
Back
SplineSet
816 459 m 1
 820 483.667 822 509.333 822 536 c 128
 822 562.667 813.333 580 796 588 c 1
 561 588 l 1
 475 70 l 1
 891 70 l 1
 925.668 83.3333 963.335 126.333 1004 199 c 1
 1045 199 l 1
 963 0 l 1
 74 0 l 1
 81 43 l 1
 155.667 43 201 56.6667 217 84 c 1
 389 1114 l 1
 382.333 1141.33 341.666 1155 267 1155 c 1
 274 1198 l 1
 1120 1198 l 1
 1087 999 l 1
 1044 999 l 1
 1048 1023.67 1050 1049.33 1050 1076 c 128
 1050 1102.67 1041.67 1120 1025 1128 c 1
 652 1128 l 1
 573 657 l 1
 808 657 l 1
 837.333 668.333 858.333 711.333 871 786 c 1
 914 786 l 1
 859 459 l 1
 816 459 l 1
919 1471.5 m 128
 949 1498.5 980.667 1512 1014 1512 c 128
 1047.34 1512 1072.67 1501.33 1090 1480 c 0
 1112.67 1452.67 1121.17 1422.83 1115.5 1390.5 c 128
 1109.82 1358.17 1093.16 1330 1065.5 1306 c 128
 1037.83 1282 1007.33 1270 974 1270 c 128
 940.667 1270 915.5 1280.5 898.5 1301.5 c 128
 881.5 1322.5 873.167 1349.33 873.5 1382 c 128
 873.833 1414.67 889 1444.5 919 1471.5 c 128
585 1270 m 128
 552.333 1270 527 1280.67 509 1302 c 128
 491 1323.34 482 1350.18 482 1382.5 c 128
 482 1414.83 497.667 1444.5 529 1471.5 c 128
 560.333 1498.5 592.333 1512 625 1512 c 128
 657.667 1512 682.667 1501.33 700 1480 c 128
 717.333 1458.67 726 1440.67 726 1426 c 0
 726 1375.33 710.667 1336.66 680 1310 c 128
 649.333 1283.33 617.667 1270 585 1270 c 128
EndSplineSet
Fore
Refer: 452 776 N 1 0 0 1 1130 246 2
Refer: 38 69 N 1 0 0 1 0 0 3
Validated: 1
EndChar

StartChar: Igrave
Encoding: 204 204 140
Width: 665
Flags: MW
AnchorPoint: "below" 342 0 basechar 0
AnchorPoint: "cedilla" 344 0 basechar 0
AnchorPoint: "ogonek" 449 0 basechar 0
AnchorPoint: "mid" 451 602 basechar 0
AnchorPoint: "top" 616 1638 basechar 0
LayerCount: 2
Back
SplineSet
477 84 m 1
 483.667 56.6667 524.333 43 599 43 c 1
 592 0 l 1
 74 0 l 1
 81 43 l 1
 155.667 43 201 56.6667 217 84 c 1
 389 1114 l 1
 382.333 1141.33 341.666 1155 267 1155 c 1
 274 1198 l 1
 792 1198 l 1
 785 1155 l 1
 710.333 1155 665 1141.33 649 1114 c 1
 477 84 l 1
552 1602 m 25
 608 1270 l 1
 514 1270 l 1
 294 1602 l 1
 552 1602 l 25
EndSplineSet
Fore
Refer: 444 768 N 1 0 0 1 904 246 2
Refer: 42 73 N 1 0 0 1 0 0 3
Validated: 1
EndChar

StartChar: Iacute
Encoding: 205 205 141
Width: 665
Flags: MW
AnchorPoint: "below" 342 0 basechar 0
AnchorPoint: "cedilla" 344 0 basechar 0
AnchorPoint: "ogonek" 449 0 basechar 0
AnchorPoint: "mid" 451 602 basechar 0
AnchorPoint: "top" 616 1638 basechar 0
LayerCount: 2
Back
SplineSet
477 84 m 1
 483.667 56.6667 524.333 43 599 43 c 1
 592 0 l 1
 74 0 l 1
 81 43 l 1
 155.667 43 201 56.6667 217 84 c 1
 389 1114 l 1
 382.333 1141.33 341.666 1155 267 1155 c 1
 274 1198 l 1
 792 1198 l 1
 785 1155 l 1
 710.333 1155 665 1141.33 649 1114 c 1
 477 84 l 1
630 1602 m 25
 888 1602 l 1
 559 1270 l 1
 465 1270 l 1
 630 1602 l 25
EndSplineSet
Fore
Refer: 445 769 N 1 0 0 1 904 246 2
Refer: 42 73 N 1 0 0 1 0 0 3
Validated: 1
EndChar

StartChar: Icircumflex
Encoding: 206 206 142
Width: 665
Flags: MW
AnchorPoint: "below" 342 0 basechar 0
AnchorPoint: "cedilla" 344 0 basechar 0
AnchorPoint: "ogonek" 449 0 basechar 0
AnchorPoint: "mid" 451 602 basechar 0
AnchorPoint: "top" 616 1638 basechar 0
LayerCount: 2
Back
SplineSet
477 84 m 1
 483.667 56.6667 524.333 43 599 43 c 1
 592 0 l 1
 74 0 l 1
 81 43 l 1
 155.667 43 201 56.6667 217 84 c 1
 389 1114 l 1
 382.333 1141.33 341.666 1155 267 1155 c 1
 274 1198 l 1
 792 1198 l 1
 785 1155 l 1
 710.333 1155 665 1141.33 649 1114 c 1
 477 84 l 1
661 1602 m 1
 829 1270 l 1
 755 1270 l 1
 577 1407 l 1
 355 1270 l 1
 281 1270 l 1
 559 1602 l 1
 661 1602 l 1
EndSplineSet
Fore
Refer: 446 770 N 1 0 0 1 905 246 2
Refer: 42 73 N 1 0 0 1 0 0 3
Validated: 1
EndChar

StartChar: Idieresis
Encoding: 207 207 143
Width: 665
Flags: MW
AnchorPoint: "below" 342 0 basechar 0
AnchorPoint: "cedilla" 344 0 basechar 0
AnchorPoint: "ogonek" 449 0 basechar 0
AnchorPoint: "mid" 451 602 basechar 0
AnchorPoint: "top" 604.416 1560 basechar 0
LayerCount: 2
Back
SplineSet
477 84 m 1
 483.667 56.6667 524.333 43 599 43 c 1
 592 0 l 1
 74 0 l 1
 81 43 l 1
 155.667 43 201 56.6667 217 84 c 1
 389 1114 l 1
 382.333 1141.33 341.666 1155 267 1155 c 1
 274 1198 l 1
 792 1198 l 1
 785 1155 l 1
 710.333 1155 665 1141.33 649 1114 c 1
 477 84 l 1
694 1471.5 m 128
 724 1498.5 755.667 1512 789 1512 c 128
 822.333 1512 847.667 1501.33 865 1480 c 0
 887.434 1452.39 895.876 1422.49 890.326 1390.29 c 128
 884.775 1358.1 868.167 1330 840.5 1306 c 128
 812.833 1282 782.333 1270 749 1270 c 128
 715.667 1270 690.5 1280.5 673.5 1301.5 c 128
 656.5 1322.5 648.167 1349.33 648.5 1382 c 128
 648.833 1414.67 664 1444.5 694 1471.5 c 128
360 1270 m 128
 327.333 1270 302 1280.67 284 1302 c 128
 266 1323.33 257 1350.24 257 1382.71 c 128
 257 1415.19 272.667 1444.86 304 1471.71 c 128
 335.333 1498.57 367.333 1512 400 1512 c 128
 432.667 1512 457.667 1501.33 475 1480 c 128
 492.333 1458.67 501 1440.5 501 1425.5 c 0
 501 1374.94 485.667 1336.38 455 1309.83 c 128
 424.333 1283.28 392.666 1270 360 1270 c 128
EndSplineSet
Fore
Refer: 452 776 N 1 0 0 1 905 246 2
Refer: 42 73 N 1 0 0 1 0 0 3
Validated: 1
EndChar

StartChar: Eth
Encoding: 208 208 144
Width: 1220
Flags: MW
AnchorPoint: "top" 725 1413 basechar 0
LayerCount: 2
Back
SplineSet
75 41 m 1
 149.667 41 195 54.6667 211 82 c 1
 250 315 l 2
 296 590.334 433.667 773.334 663 864 c 0
 747 897.333 845.667 919.333 959 930 c 1
 937.665 998.667 903.332 1050.33 856 1085 c 128
 808.667 1119.67 754 1137 692 1137 c 2
 575 1137 l 1
 546 963 l 1
 464 963 l 1
 493 1137 l 1
 323 1137 l 1
 305 1130.33 285.667 1111.83 265 1081.5 c 128
 244.333 1051.17 230.667 1016.33 224 977 c 1
 181 977 l 1
 218 1198 l 1
 503 1198 l 1
 527 1341 l 1
 609 1341 l 1
 585 1198 l 1
 739 1198 l 2
 921 1198 1058 1142.67 1150 1032 c 0
 1219.33 948.667 1254 846 1254 724 c 0
 1254 685.333 1250.33 644 1243 600 c 0
 1213 422.667 1135 278 1009 166 c 128
 883 54 734.333 -2 563 -2 c 2
 68 -2 l 1
 75 41 l 1
974 868 m 1
 754.667 837.333 614.667 724 554 528 c 0
 542 488 531.667 443 523 393 c 2
 468 68 l 1
 537 68 l 2
 651 68 750.333 126.667 835 244 c 0
 897.667 330.667 939.667 438 961 566 c 0
 974.333 646.667 981 710.5 981 757.5 c 0
 981 804.5 978.667 841.333 974 868 c 1
EndSplineSet
Fore
SplineSet
75 41 m 1,0,1
 187 41 187 41 211 82 c 1,2,-1
 250 315 l 2,3,4
 319 728 319 728 663 864 c 0,5,6
 789 914 789 914 959 930 c 1,7,8
 927 1033 927 1033 856 1085 c 128,-1,9
 785 1137 785 1137 692 1137 c 2,10,-1
 575 1137 l 1,11,-1
 546 963 l 1,12,-1
 464 963 l 1,13,-1
 493 1137 l 1,14,-1
 323 1137 l 1,15,16
 296 1127 296 1127 265 1081.5 c 128,-1,17
 234 1036 234 1036 224 977 c 1,18,-1
 181 977 l 1,19,-1
 218 1198 l 1,20,-1
 503 1198 l 1,21,-1
 527 1341 l 1,22,-1
 609 1341 l 1,23,-1
 585 1198 l 1,24,-1
 739 1198 l 2,25,26
 1012 1198 1012 1198 1150 1032 c 0,27,28
 1254 907 1254 907 1254 724 c 0,29,30
 1254 666 1254 666 1243 600 c 0,31,32
 1198 334 1198 334 1009 166 c 128,-1,33
 820 -2 820 -2 563 -2 c 2,34,-1
 68 -2 l 1,35,-1
 75 41 l 1,0,1
974 868 m 1,36,37
 645 822 645 822 554 528 c 0,38,39
 536 468 536 468 523 393 c 2,40,-1
 468 68 l 1,41,-1
 537 68 l 2,42,43
 708 68 708 68 835 244 c 0,44,45
 929 374 929 374 961 566 c 0,46,47
 981 688 981 688 981 758 c 0,48,49
 981 828 981 828 974 868 c 1,36,37
EndSplineSet
Validated: 1
Substitution2: "'ss09' D with stroke through bowl subtable" Eth.ss09
Substitution2: "'locl' Localized Eth Forms subtable" Dafrican
EndChar

StartChar: Ntilde
Encoding: 209 209 145
Width: 1275
Flags: MW
LayerCount: 2
Back
SplineSet
286 84 m 1
 292.667 56.6667 333.333 43 408 43 c 1
 401 0 l 1
 74 0 l 1
 81 43 l 1
 155.667 43 201 56.6667 217 84 c 1
 389 1114 l 1
 382.333 1141.33 341.666 1155 267 1155 c 1
 274 1198 l 1
 620 1198 l 1
 1088 369 l 1
 1212 1114 l 1
 1205.33 1141.33 1164.66 1155 1090 1155 c 1
 1097 1198 l 1
 1425 1198 l 1
 1418 1155 l 1
 1343.33 1155 1298 1141.33 1282 1114 c 1
 1096 0 l 1
 1006 0 l 1
 442 1014 l 1
 286 84 l 1
1124 1308 m 128
 1087.33 1269.33 1050.16 1250 1012.5 1250 c 128
 974.833 1250 918.667 1270 844 1310 c 128
 769.333 1350 722.667 1370 704 1370 c 0
 663.333 1370 635 1363 619 1349 c 128
 603 1335 592 1308.67 586 1270 c 1
 547 1270 l 1
 561.667 1359.33 586.834 1423.33 622.5 1462 c 128
 658.167 1500.67 694.667 1520 732 1520 c 128
 769.333 1520 825.833 1499.83 901.5 1459.5 c 128
 977.167 1419.17 1024.33 1399 1043 1399 c 0
 1083.67 1399 1112 1406 1128 1420 c 128
 1144 1434 1155.33 1460.33 1162 1499 c 1
 1201 1499 l 1
 1186.32 1410.33 1160.66 1346.66 1124 1308 c 128
EndSplineSet
Fore
Refer: 447 771 N 1 0 0 1 1201 246 2
Refer: 47 78 N 1 0 0 1 0 0 3
Validated: 1
EndChar

StartChar: Ograve
Encoding: 210 210 146
Width: 1359
Flags: MW
AnchorPoint: "mid" 801 602 basechar 0
AnchorPoint: "below" 690 0 basechar 0
AnchorPoint: "cedilla" 690 0 basechar 0
AnchorPoint: "ogonek" 750 0 basechar 0
AnchorPoint: "top" 962 1638 basechar 0
LayerCount: 2
Back
SplineSet
435 458 m 0
 435 447 435 447 435 408.5 c 128
 435 382.833 439 346.666 447 300 c 128
 455 253.333 468.333 211.5 487 174.5 c 128
 505.667 137.5 532.833 107.333 568.5 84 c 128
 604.167 60.6667 649.5 49 704.5 49 c 128
 759.5 49 811.833 65.1667 861.5 97.5 c 128
 911.167 129.833 952 173.333 984 228 c 0
 1045.33 331.333 1087 449.333 1109 582 c 0
 1119 640.667 1124 702 1124 766 c 128
 1124 830 1115.5 892.5 1098.5 953.5 c 128
 1081.5 1014.5 1053.17 1062.33 1013.5 1097 c 128
 973.833 1131.67 926.667 1149 872 1149 c 128
 817.333 1149 768.833 1137.83 726.5 1115.5 c 128
 684.165 1093.17 648.332 1064.5 619 1029.5 c 0
 561.249 960.593 516.788 872.538 485.615 765.334 c 128
 454.442 658.131 437.571 555.686 435 458 c 0
168.062 579.458 m 128
 184.687 673.819 215.333 759.167 260 835.5 c 128
 304.667 911.833 358.667 978 422 1034 c 128
 485.333 1090 557.5 1134.83 638.5 1168.5 c 128
 719.5 1202.17 801.333 1219 884 1219 c 128
 966.667 1219 1042.83 1202.17 1112.5 1168.5 c 0
 1251.54 1101.31 1340.7 990.477 1380 836 c 0
 1390.67 794.665 1396 752.332 1396 709 c 128
 1396 665.667 1392.33 622 1385 578 c 0
 1369 482 1325.83 386.5 1255.5 291.5 c 128
 1185.17 196.5 1098.5 120.833 995.5 64.5 c 128
 892.5 8.16667 785.833 -20 675.5 -20 c 128
 565.167 -20 467.833 8.16667 383.5 64.5 c 128
 299.167 120.833 238.021 197.153 200.062 293.458 c 128
 162.103 389.763 151.437 485.097 168.062 579.458 c 128
898 1602 m 25
 954 1270 l 1
 860 1270 l 1
 640 1602 l 1
 898 1602 l 25
EndSplineSet
Fore
Refer: 444 768 S 1 0 0 1 1249 246 2
Refer: 48 79 N 1 0 0 1 0 0 3
Validated: 1
EndChar

StartChar: Oacute
Encoding: 211 211 147
Width: 1359
Flags: MW
AnchorPoint: "mid" 801 602 basechar 0
AnchorPoint: "below" 690 0 basechar 0
AnchorPoint: "cedilla" 690 0 basechar 0
AnchorPoint: "ogonek" 750 0 basechar 0
AnchorPoint: "top" 962 1638 basechar 0
LayerCount: 2
Back
SplineSet
435 458 m 0
 435 447 435 447 435 408.5 c 128
 435 382.833 439 346.666 447 300 c 128
 455 253.333 468.333 211.5 487 174.5 c 128
 505.667 137.5 532.833 107.333 568.5 84 c 128
 604.167 60.6667 649.5 49 704.5 49 c 128
 759.5 49 811.833 65.1667 861.5 97.5 c 128
 911.167 129.833 952 173.333 984 228 c 0
 1045.33 331.333 1087 449.333 1109 582 c 0
 1119 640.667 1124 702 1124 766 c 128
 1124 830 1115.5 892.5 1098.5 953.5 c 128
 1081.5 1014.5 1053.17 1062.33 1013.5 1097 c 128
 973.833 1131.67 926.667 1149 872 1149 c 128
 817.333 1149 768.833 1137.83 726.5 1115.5 c 128
 684.165 1093.17 648.332 1064.5 619 1029.5 c 0
 561.249 960.593 516.788 872.538 485.615 765.334 c 128
 454.442 658.131 437.571 555.686 435 458 c 0
168.062 579.458 m 128
 184.687 673.819 215.333 759.167 260 835.5 c 128
 304.667 911.833 358.667 978 422 1034 c 128
 485.333 1090 557.5 1134.83 638.5 1168.5 c 128
 719.5 1202.17 801.333 1219 884 1219 c 128
 966.667 1219 1042.83 1202.17 1112.5 1168.5 c 0
 1251.54 1101.31 1340.7 990.477 1380 836 c 0
 1390.67 794.665 1396 752.332 1396 709 c 128
 1396 665.667 1392.33 622 1385 578 c 0
 1369 482 1325.83 386.5 1255.5 291.5 c 128
 1185.17 196.5 1098.5 120.833 995.5 64.5 c 128
 892.5 8.16667 785.833 -20 675.5 -20 c 128
 565.167 -20 467.833 8.16667 383.5 64.5 c 128
 299.167 120.833 238.021 197.153 200.062 293.458 c 128
 162.103 389.763 151.437 485.097 168.062 579.458 c 128
976 1602 m 25
 1234 1602 l 1
 905 1270 l 1
 811 1270 l 1
 976 1602 l 25
EndSplineSet
Fore
Refer: 445 769 S 1 0 0 1 1249 246 2
Refer: 48 79 N 1 0 0 1 0 0 3
Validated: 1
EndChar

StartChar: Ocircumflex
Encoding: 212 212 148
Width: 1359
Flags: MW
AnchorPoint: "mid" 801 602 basechar 0
AnchorPoint: "below" 690 0 basechar 0
AnchorPoint: "cedilla" 690 0 basechar 0
AnchorPoint: "ogonek" 750 0 basechar 0
AnchorPoint: "top" 962 1638 basechar 0
LayerCount: 2
Back
SplineSet
435 458 m 0
 435 447 435 447 435 408.5 c 128
 435 382.833 439 346.666 447 300 c 128
 455 253.333 468.333 211.5 487 174.5 c 128
 505.667 137.5 532.833 107.333 568.5 84 c 128
 604.167 60.6667 649.5 49 704.5 49 c 128
 759.5 49 811.833 65.1667 861.5 97.5 c 128
 911.167 129.833 952 173.333 984 228 c 0
 1045.33 331.333 1087 449.333 1109 582 c 0
 1119 640.667 1124 702 1124 766 c 128
 1124 830 1115.5 892.5 1098.5 953.5 c 128
 1081.5 1014.5 1053.17 1062.33 1013.5 1097 c 128
 973.833 1131.67 926.667 1149 872 1149 c 128
 817.333 1149 768.833 1137.83 726.5 1115.5 c 128
 684.165 1093.17 648.332 1064.5 619 1029.5 c 0
 561.249 960.593 516.788 872.538 485.615 765.334 c 128
 454.442 658.131 437.571 555.686 435 458 c 0
168.062 579.458 m 128
 184.687 673.819 215.333 759.167 260 835.5 c 128
 304.667 911.833 358.667 978 422 1034 c 128
 485.333 1090 557.5 1134.83 638.5 1168.5 c 128
 719.5 1202.17 801.333 1219 884 1219 c 128
 966.667 1219 1042.83 1202.17 1112.5 1168.5 c 0
 1251.54 1101.31 1340.7 990.477 1380 836 c 0
 1390.67 794.665 1396 752.332 1396 709 c 128
 1396 665.667 1392.33 622 1385 578 c 0
 1369 482 1325.83 386.5 1255.5 291.5 c 128
 1185.17 196.5 1098.5 120.833 995.5 64.5 c 128
 892.5 8.16667 785.833 -20 675.5 -20 c 128
 565.167 -20 467.833 8.16667 383.5 64.5 c 128
 299.167 120.833 238.021 197.153 200.062 293.458 c 128
 162.103 389.763 151.437 485.097 168.062 579.458 c 128
1007 1602 m 1
 1175 1270 l 1
 1101 1270 l 1
 923 1407 l 1
 701 1270 l 1
 627 1270 l 1
 905 1602 l 1
 1007 1602 l 1
EndSplineSet
Fore
Refer: 446 770 N 1 0 0 1 1250 246 2
Refer: 48 79 N 1 0 0 1 0 0 3
Validated: 1
EndChar

StartChar: Otilde
Encoding: 213 213 149
Width: 1359
Flags: MW
AnchorPoint: "mid" 801 602 basechar 0
AnchorPoint: "below" 690 0 basechar 0
AnchorPoint: "cedilla" 690 0 basechar 0
AnchorPoint: "ogonek" 750 0 basechar 0
AnchorPoint: "top" 947.752 1560 basechar 0
LayerCount: 2
Back
SplineSet
435 458 m 0
 435 447 435 447 435 408.5 c 128
 435 382.833 439 346.666 447 300 c 128
 455 253.333 468.333 211.5 487 174.5 c 128
 505.667 137.5 532.833 107.333 568.5 84 c 128
 604.167 60.6667 649.5 49 704.5 49 c 128
 759.5 49 811.833 65.1667 861.5 97.5 c 128
 911.167 129.833 952 173.333 984 228 c 0
 1045.33 331.333 1087 449.333 1109 582 c 0
 1119 640.667 1124 702 1124 766 c 128
 1124 830 1115.5 892.5 1098.5 953.5 c 128
 1081.5 1014.5 1053.17 1062.33 1013.5 1097 c 128
 973.833 1131.67 926.667 1149 872 1149 c 128
 817.333 1149 768.833 1137.83 726.5 1115.5 c 128
 684.165 1093.17 648.332 1064.5 619 1029.5 c 0
 561.249 960.593 516.788 872.538 485.615 765.334 c 128
 454.442 658.131 437.571 555.686 435 458 c 0
168.062 579.458 m 128
 184.687 673.819 215.333 759.167 260 835.5 c 128
 304.667 911.833 358.667 978 422 1034 c 128
 485.333 1090 557.5 1134.83 638.5 1168.5 c 128
 719.5 1202.17 801.333 1219 884 1219 c 128
 966.667 1219 1042.83 1202.17 1112.5 1168.5 c 0
 1251.54 1101.31 1340.7 990.477 1380 836 c 0
 1390.67 794.665 1396 752.332 1396 709 c 128
 1396 665.667 1392.33 622 1385 578 c 0
 1369 482 1325.83 386.5 1255.5 291.5 c 128
 1185.17 196.5 1098.5 120.833 995.5 64.5 c 128
 892.5 8.16667 785.833 -20 675.5 -20 c 128
 565.167 -20 467.833 8.16667 383.5 64.5 c 128
 299.167 120.833 238.021 197.153 200.062 293.458 c 128
 162.103 389.763 151.437 485.097 168.062 579.458 c 128
1173 1308 m 128
 1136.33 1269.33 1099.16 1250 1061.5 1250 c 128
 1023.83 1250 967.667 1270 893 1310 c 128
 818.333 1350 771.667 1370 753 1370 c 0
 712.333 1370 684 1363 668 1349 c 128
 652 1335 641 1308.67 635 1270 c 1
 596 1270 l 1
 610.668 1359.33 635.835 1423.33 671.5 1462 c 128
 707.167 1500.67 743.667 1520 781 1520 c 128
 818.333 1520 874.833 1499.83 950.5 1459.5 c 128
 1026.17 1419.17 1073.33 1399 1092 1399 c 0
 1132.67 1399 1161 1406 1177 1420 c 128
 1193 1434 1204.33 1460.33 1211 1499 c 1
 1250 1499 l 1
 1235.32 1410.33 1209.66 1346.66 1173 1308 c 128
EndSplineSet
Fore
Refer: 447 771 N 1 0 0 1 1250 246 2
Refer: 48 79 N 1 0 0 1 0 0 3
Validated: 1
EndChar

StartChar: Odieresis
Encoding: 214 214 150
Width: 1359
Flags: MW
AnchorPoint: "mid" 801 602 basechar 0
AnchorPoint: "below" 690 0 basechar 0
AnchorPoint: "cedilla" 690 0 basechar 0
AnchorPoint: "ogonek" 750 0 basechar 0
AnchorPoint: "top" 947.752 1560 basechar 0
LayerCount: 2
Back
SplineSet
435 458 m 0
 435 447 435 447 435 408.5 c 128
 435 382.833 439 346.666 447 300 c 128
 455 253.333 468.333 211.5 487 174.5 c 128
 505.667 137.5 532.833 107.333 568.5 84 c 128
 604.167 60.6667 649.5 49 704.5 49 c 128
 759.5 49 811.833 65.1667 861.5 97.5 c 128
 911.167 129.833 952 173.333 984 228 c 0
 1045.33 331.333 1087 449.333 1109 582 c 0
 1119 640.667 1124 702 1124 766 c 128
 1124 830 1115.5 892.5 1098.5 953.5 c 128
 1081.5 1014.5 1053.17 1062.33 1013.5 1097 c 128
 973.833 1131.67 926.667 1149 872 1149 c 128
 817.333 1149 768.833 1137.83 726.5 1115.5 c 128
 684.165 1093.17 648.332 1064.5 619 1029.5 c 0
 561.249 960.593 516.788 872.538 485.615 765.334 c 128
 454.442 658.131 437.571 555.686 435 458 c 0
168.062 579.458 m 128
 184.687 673.819 215.333 759.167 260 835.5 c 128
 304.667 911.833 358.667 978 422 1034 c 128
 485.333 1090 557.5 1134.83 638.5 1168.5 c 128
 719.5 1202.17 801.333 1219 884 1219 c 128
 966.667 1219 1042.83 1202.17 1112.5 1168.5 c 0
 1251.54 1101.31 1340.7 990.477 1380 836 c 0
 1390.67 794.665 1396 752.332 1396 709 c 128
 1396 665.667 1392.33 622 1385 578 c 0
 1369 482 1325.83 386.5 1255.5 291.5 c 128
 1185.17 196.5 1098.5 120.833 995.5 64.5 c 128
 892.5 8.16667 785.833 -20 675.5 -20 c 128
 565.167 -20 467.833 8.16667 383.5 64.5 c 128
 299.167 120.833 238.021 197.153 200.062 293.458 c 128
 162.103 389.763 151.437 485.097 168.062 579.458 c 128
1040 1471.5 m 128
 1070 1498.5 1101.67 1512 1135 1512 c 128
 1168.34 1512 1193.67 1501.33 1211 1480 c 0
 1233.43 1452.38 1241.88 1422.48 1236.33 1390.29 c 128
 1230.77 1358.1 1214.16 1330 1186.5 1306 c 128
 1158.83 1282 1128.33 1270 1095 1270 c 128
 1061.67 1270 1036.5 1280.5 1019.5 1301.5 c 128
 1002.5 1322.5 994.167 1349.33 994.5 1382 c 128
 994.833 1414.67 1010 1444.5 1040 1471.5 c 128
706 1270 m 128
 673.333 1270 648 1280.67 630 1302 c 128
 612 1323.33 603 1350.24 603 1382.71 c 128
 603 1415.19 618.667 1444.86 650 1471.71 c 128
 681.333 1498.57 713.333 1512 746 1512 c 128
 778.667 1512 803.667 1501.33 821 1480 c 128
 838.333 1458.67 847 1440.5 847 1425.5 c 0
 847 1374.94 831.667 1336.38 801 1309.83 c 128
 770.333 1283.28 738.667 1270 706 1270 c 128
EndSplineSet
Fore
Refer: 452 776 N 1 0 0 1 1250 246 2
Refer: 48 79 N 1 0 0 1 0 0 3
Validated: 1
EndChar

StartChar: multiply
Encoding: 215 215 151
Width: 843
Flags: MW
LayerCount: 2
Back
SplineSet
594 651 m 1
 813 389 l 1
 739 326 l 1
 520 588 l 1
 215 326 l 1
 161 389 l 1
 467 651 l 1
 249 913 l 1
 323 977 l 1
 542 715 l 1
 847 977 l 1
 901 913 l 1
 594 651 l 1
EndSplineSet
Fore
SplineSet
594 651 m 1,0,-1
 813 389 l 1,1,-1
 739 326 l 1,2,-1
 520 588 l 1,3,-1
 215 326 l 1,4,-1
 161 389 l 1,5,-1
 467 651 l 1,6,-1
 249 913 l 1,7,-1
 323 977 l 1,8,-1
 542 715 l 1,9,-1
 847 977 l 1,10,-1
 901 913 l 1,11,-1
 594 651 l 1,0,-1
EndSplineSet
Validated: 1
EndChar

StartChar: Oslash
Encoding: 216 216 152
Width: 1359
UnlinkRmOvrlpSave: 1
Flags: MW
AnchorPoint: "below" 690 0 basechar 0
AnchorPoint: "cedilla" 690 0 basechar 0
AnchorPoint: "ogonek" 750 0 basechar 0
AnchorPoint: "top" 901 1270 basechar 0
LayerCount: 2
Back
SplineSet
320 -57 m 1
 267 -20 l 1
 352 86 l 1
 279.333 143.333 227 217.333 195 308 c 0
 173 369.333 162 422.833 162 468.5 c 0
 162 602.907 194.5 725.241 259.5 835.5 c 0
 350.845 990.449 477.179 1101.45 638.5 1168.5 c 0
 719.5 1202.17 807.833 1219 903.5 1219 c 128
 999.167 1219 1090.67 1189.33 1178 1130 c 1
 1277 1253 l 1
 1330 1217 l 1
 1231 1090 l 1
 1295.67 1032.67 1342.33 960.667 1371 874 c 0
 1397.98 790.971 1403.06 696.881 1386.24 591.729 c 128
 1369.41 486.576 1325.83 386.5 1255.5 291.5 c 128
 1185.17 196.5 1098.5 120.833 995.5 64.5 c 128
 892.5 8.16667 788.667 -20 684 -20 c 128
 579.333 -20 486.667 3.66667 406 51 c 1
 320 -57 l 1
1104 932 m 1
 494 162 l 1
 538.667 86.6667 606 49 696 49 c 0
 756.668 49 811.835 65.1667 861.5 97.5 c 128
 911.167 129.833 952 173.333 984 228 c 0
 1075.59 382.308 1122.59 558.308 1125 756 c 1
 1125 819.333 1118 878 1104 932 c 1
1079 1006 m 1
 1036.33 1101.33 964.667 1149 864 1149 c 0
 767.795 1149 686.128 1109.33 619 1030 c 1
 589.667 994 558.667 942.333 526 875 c 128
 493.333 807.667 466.333 709.333 445 580 c 1
 423.157 453.982 429.49 336.982 464 229 c 1
 1079 1006 l 1
EndSplineSet
Fore
SplineSet
684 -20 m 0
320 -57 m 1
 267 -20 l 1
 1277 1253 l 1
 1330 1217 l 1
 320 -57 l 1
EndSplineSet
Refer: 48 79 N 1 0 0 1 0 0 2
Validated: 5
EndChar

StartChar: Ugrave
Encoding: 217 217 153
Width: 1236
Flags: MW
AnchorPoint: "cedilla" 662 0 basechar 0
AnchorPoint: "below" 662 0 basechar 0
AnchorPoint: "ogonek" 662 0 basechar 0
AnchorPoint: "mid" 823 694 basechar 0
AnchorPoint: "top" 993 1638 basechar 0
LayerCount: 2
Back
SplineSet
748 1155 m 1
 673.333 1155 628 1141.33 612 1114 c 1
 506 479 l 2
 496.667 423.667 492 367.5 492 310.5 c 0
 492 253.5 503 203 525 159 c 0
 561 85.6667 624.333 49 715 49 c 128
 805.667 49 883.667 86.5 949 161.5 c 128
 1014.33 236.5 1057.67 338.333 1079 467 c 2
 1187 1114 l 1
 1180.33 1141.33 1139.66 1155 1065 1155 c 1
 1072 1198 l 1
 1400 1198 l 1
 1393 1155 l 1
 1318.33 1155 1273 1141.33 1257 1114 c 1
 1156 508 l 2
 1112 248 998.667 82 816 10 c 0
 764.667 -10 710.667 -20 654 -20 c 0
 376.667 -20 238 106.333 238 359 c 0
 238 404.333 242.333 454 251 508 c 2
 352 1114 l 1
 345.333 1141.33 304.666 1155 230 1155 c 1
 237 1198 l 1
 755 1198 l 1
 748 1155 l 1
929 1602 m 25
 985 1270 l 1
 891 1270 l 1
 671 1602 l 1
 929 1602 l 25
EndSplineSet
Fore
Refer: 444 768 S 1 0 0 1 1281 246 2
Refer: 54 85 N 1 0 0 1 0 0 3
Validated: 1
EndChar

StartChar: Uacute
Encoding: 218 218 154
Width: 1236
Flags: MW
AnchorPoint: "cedilla" 662 0 basechar 0
AnchorPoint: "below" 662 0 basechar 0
AnchorPoint: "ogonek" 662 0 basechar 0
AnchorPoint: "mid" 823 694 basechar 0
AnchorPoint: "top" 993 1638 basechar 0
LayerCount: 2
Back
SplineSet
748 1155 m 1
 673.333 1155 628 1141.33 612 1114 c 1
 506 479 l 2
 496.667 423.667 492 367.5 492 310.5 c 0
 492 253.5 503 203 525 159 c 0
 561 85.6667 624.333 49 715 49 c 128
 805.667 49 883.667 86.5 949 161.5 c 128
 1014.33 236.5 1057.67 338.333 1079 467 c 2
 1187 1114 l 1
 1180.33 1141.33 1139.66 1155 1065 1155 c 1
 1072 1198 l 1
 1400 1198 l 1
 1393 1155 l 1
 1318.33 1155 1273 1141.33 1257 1114 c 1
 1156 508 l 2
 1112 248 998.667 82 816 10 c 0
 764.667 -10 710.667 -20 654 -20 c 0
 376.667 -20 238 106.333 238 359 c 0
 238 404.333 242.333 454 251 508 c 2
 352 1114 l 1
 345.333 1141.33 304.666 1155 230 1155 c 1
 237 1198 l 1
 755 1198 l 1
 748 1155 l 1
1007 1602 m 25
 1265 1602 l 1
 936 1270 l 1
 842 1270 l 1
 1007 1602 l 25
EndSplineSet
Fore
Refer: 445 769 S 1 0 0 1 1281 246 2
Refer: 54 85 N 1 0 0 1 0 0 3
Validated: 1
EndChar

StartChar: Ucircumflex
Encoding: 219 219 155
Width: 1236
Flags: MW
AnchorPoint: "cedilla" 662 0 basechar 0
AnchorPoint: "below" 662 0 basechar 0
AnchorPoint: "ogonek" 662 0 basechar 0
AnchorPoint: "mid" 823 694 basechar 0
AnchorPoint: "top" 993 1638 basechar 0
LayerCount: 2
Back
SplineSet
748 1155 m 1
 673.333 1155 628 1141.33 612 1114 c 1
 506 479 l 2
 496.667 423.667 492 367.5 492 310.5 c 0
 492 253.5 503 203 525 159 c 0
 561 85.6667 624.333 49 715 49 c 128
 805.667 49 883.667 86.5 949 161.5 c 128
 1014.33 236.5 1057.67 338.333 1079 467 c 2
 1187 1114 l 1
 1180.33 1141.33 1139.66 1155 1065 1155 c 1
 1072 1198 l 1
 1400 1198 l 1
 1393 1155 l 1
 1318.33 1155 1273 1141.33 1257 1114 c 1
 1156 508 l 2
 1112 248 998.667 82 816 10 c 0
 764.667 -10 710.667 -20 654 -20 c 0
 376.667 -20 238 106.333 238 359 c 0
 238 404.333 242.333 454 251 508 c 2
 352 1114 l 1
 345.333 1141.33 304.666 1155 230 1155 c 1
 237 1198 l 1
 755 1198 l 1
 748 1155 l 1
1038 1602 m 1
 1206 1270 l 1
 1132 1270 l 1
 954 1407 l 1
 732 1270 l 1
 658 1270 l 1
 936 1602 l 1
 1038 1602 l 1
EndSplineSet
Fore
Refer: 446 770 N 1 0 0 1 1282 246 2
Refer: 54 85 N 1 0 0 1 0 0 3
Validated: 1
EndChar

StartChar: Udieresis
Encoding: 220 220 156
Width: 1236
Flags: MW
AnchorPoint: "cedilla" 662 0 basechar 0
AnchorPoint: "below" 662 0 basechar 0
AnchorPoint: "ogonek" 662 0 basechar 0
AnchorPoint: "mid" 823 694 basechar 0
AnchorPoint: "top" 978.755 1560 basechar 0
LayerCount: 2
Back
SplineSet
748 1155 m 1
 673.333 1155 628 1141.33 612 1114 c 1
 506 479 l 2
 496.667 423.667 492 367.5 492 310.5 c 128
 492 253.5 503 203 525 159 c 0
 561 85.6667 624.333 49 715 49 c 128
 805.667 49 883.667 86.5 949 161.5 c 128
 1014.33 236.5 1057.67 338.333 1079 467 c 2
 1187 1114 l 1
 1180.33 1141.33 1139.66 1155 1065 1155 c 1
 1072 1198 l 1
 1400 1198 l 1
 1393 1155 l 1
 1318.33 1155 1273 1141.33 1257 1114 c 1
 1156 508 l 2
 1112 248 998.667 82 816 10 c 0
 764.667 -10 710.667 -20 654 -20 c 0
 376.667 -20 238 106.333 238 359 c 0
 238 404.333 242.333 454 251 508 c 2
 352 1114 l 1
 345.333 1141.33 304.666 1155 230 1155 c 1
 237 1198 l 1
 755 1198 l 1
 748 1155 l 1
1071 1471.5 m 128
 1101 1498.5 1132.67 1512 1166 1512 c 128
 1199.34 1512 1224.67 1501.33 1242 1480 c 0
 1264.43 1452.38 1272.88 1422.48 1267.33 1390.29 c 128
 1261.77 1358.1 1245.16 1330 1217.5 1306 c 128
 1189.83 1282 1159.33 1270 1126 1270 c 128
 1092.67 1270 1067.5 1280.5 1050.5 1301.5 c 128
 1033.5 1322.5 1025.17 1349.33 1025.5 1382 c 128
 1025.83 1414.67 1041 1444.5 1071 1471.5 c 128
737 1270 m 128
 704.333 1270 679 1280.67 661 1302 c 128
 643 1323.33 634 1350.24 634 1382.71 c 128
 634 1415.19 649.667 1444.86 681 1471.71 c 128
 712.333 1498.57 744.333 1512 777 1512 c 128
 809.667 1512 834.667 1501.33 852 1480 c 128
 869.333 1458.67 878 1440.5 878 1425.5 c 0
 878 1374.94 862.667 1336.38 832 1309.83 c 128
 801.333 1283.28 769.667 1270 737 1270 c 128
EndSplineSet
Fore
Refer: 452 776 N 1 0 0 1 1282 246 2
Refer: 54 85 N 1 0 0 1 0 0 3
Validated: 1
EndChar

StartChar: Yacute
Encoding: 221 221 157
Width: 1196
Flags: MW
AnchorPoint: "top" 971 1638 basechar 0
AnchorPoint: "below" 618 0 basechar 0
AnchorPoint: "mid" 683 410 basechar 0
AnchorPoint: "cedilla" 623 0 basechar 0
AnchorPoint: "ogonek" 684 0 basechar 0
LayerCount: 2
Back
SplineSet
355 43 m 1
 429.667 43 475 56.6667 491 84 c 1
 552 451 l 1
 284 1114 l 2
 273.333 1141.33 232 1155 160 1155 c 1
 167 1198 l 1
 687 1198 l 1
 680 1155 l 1
 616 1155 575.333 1146.67 558 1130 c 1
 782 575 l 1
 1201 1118 l 1
 1191 1142.67 1150.67 1155 1080 1155 c 1
 1087 1198 l 1
 1423 1198 l 1
 1416 1155 l 1
 1348.67 1155 1308.33 1146 1295 1128 c 2
 823 516 l 1
 751 84 l 1
 757.668 56.6667 798.335 43 873 43 c 1
 866 0 l 1
 348 0 l 1
 355 43 l 1
989 1602 m 25
 1247 1602 l 1
 918 1270 l 1
 824 1270 l 1
 989 1602 l 25
EndSplineSet
Fore
Refer: 445 769 N 1 0 0 1 1263 246 2
Refer: 58 89 N 1 0 0 1 0 0 3
Validated: 1
EndChar

StartChar: Thorn
Encoding: 222 222 158
Width: 1081
Flags: MW
LayerCount: 2
Back
SplineSet
477 84 m 1
 483.667 56.6667 524.333 43 599 43 c 1
 592 0 l 1
 74 0 l 1
 81 43 l 1
 155.667 43 201 56.6667 217 84 c 1
 389 1114 l 1
 382.333 1141.33 341.666 1155 267 1155 c 1
 274 1198 l 1
 792 1198 l 1
 785 1155 l 1
 710.333 1155 665 1141.33 649 1114 c 1
 626 973 l 1
 661 973 l 2
 749 973 827.667 963 897 943 c 128
 966.333 923 1020.67 896.667 1060 864 c 0
 1129.33 806 1164 741.333 1164 670 c 0
 1164 657.333 1163 644.333 1161 631 c 0
 1144.33 530.333 1082.83 443 976.5 369 c 0
 870.167 295 733 258 565 258 c 2
 506 258 l 1
 477 84 l 1
614 903 m 1
 518 328 l 1
 629.333 328 713.667 352 771 400 c 128
 828.333 448 865.667 524.334 883 629 c 0
 887 653 889 675.667 889 697 c 0
 889 791.667 848 853.334 766 882 c 0
 725.333 896 674.667 903 614 903 c 1
EndSplineSet
Fore
SplineSet
477 84 m 1,0,1
 487 43 487 43 599 43 c 1,2,-1
 592 0 l 1,3,-1
 74 0 l 1,4,-1
 81 43 l 1,5,6
 193 43 193 43 217 84 c 1,7,-1
 389 1114 l 1,8,9
 379 1155 379 1155 267 1155 c 1,10,-1
 274 1198 l 1,11,-1
 792 1198 l 1,12,-1
 785 1155 l 1,13,14
 673 1155 673 1155 649 1114 c 1,15,-1
 626 973 l 1,16,-1
 661 973 l 2,17,18
 793 973 793 973 897 943 c 128,-1,19
 1001 913 1001 913 1060 864 c 0,20,21
 1164 777 1164 777 1164 670 c 0,22,23
 1164 651 1164 651 1161 631 c 0,24,25
 1136 480 1136 480 976 369 c 0,26,27
 816 258 816 258 565 258 c 2,28,-1
 506 258 l 1,29,-1
 477 84 l 1,0,1
614 903 m 1,30,-1
 518 328 l 1,31,32
 685 328 685 328 771 400 c 128,-1,33
 857 472 857 472 883 629 c 0,34,35
 889 665 889 665 889 697 c 0,36,37
 889 839 889 839 766 882 c 0,38,39
 705 903 705 903 614 903 c 1,30,-1
EndSplineSet
Validated: 1
EndChar

StartChar: germandbls
Encoding: 223 223 159
Width: 1103
Flags: MW
LayerCount: 2
Back
SplineSet
706 -20 m 0
 641.333 -20 589 -4.83333 549 25.5 c 128
 509 55.8333 489 93.3333 489 138 c 0
 489 148.667 489.667 159.334 491 170 c 0
 501 228.667 528.333 258 573 258 c 0
 611.667 258 632.667 232.667 636 182 c 0
 638 160.667 639.333 139.333 640 118 c 0
 642.667 66.6667 663.667 41 703 41 c 0
 785 41 843 143.333 877 348 c 0
 881.667 374.667 884 400.667 884 426 c 0
 884 489.333 869.333 546.667 840 598 c 0
 799.333 669.333 736 705 650 705 c 0
 628.667 705 619 711.333 621 724 c 128
 623 736.667 635.333 746.667 658 754 c 1
 694.667 767.333 731.5 802.333 768.5 859 c 128
 805.5 915.668 827.5 964.835 834.5 1006.5 c 128
 841.5 1048.17 845 1081 845 1105 c 0
 845 1187.67 814.333 1229 753 1229 c 0
 709.665 1229 672.832 1206.17 642.5 1160.5 c 128
 612.167 1114.83 591.667 1061 581 999 c 2
 441 162 l 2
 417.667 23.3333 364.667 -86 282 -166 c 128
 199.333 -246 99 -286 -19 -286 c 1
 -12 -243 l 1
 53.3333 -243 107 -161.667 149 1 c 0
 166.333 67 183 148.667 199 246 c 2
 320 971 l 2
 331.333 1037 358 1094.67 400 1144 c 0
 483.333 1241.33 589.167 1290 717.5 1290 c 128
 845.833 1290 937.833 1270.83 993.5 1232.5 c 128
 1049.17 1194.17 1077 1142.33 1077 1077 c 0
 1077 992.766 1045 920.708 981 860.825 c 128
 917 800.942 853 758.333 789 733 c 1
 875 716.333 954.333 677.333 1027 616 c 1
 1095 559.547 1129 495.214 1129 423 c 0
 1129 411.667 1128 400.333 1126 389 c 0
 1106 269.667 1058.33 171.667 983 95 c 128
 907.666 18.3334 815.333 -20 706 -20 c 0
EndSplineSet
Fore
SplineSet
706 -20 m 0,0,1
 609 -20 609 -20 549 25.5 c 128,-1,2
 489 71 489 71 489 138 c 0,3,4
 489 154 489 154 491 170 c 0,5,6
 506 258 506 258 573 258 c 0,7,8
 631 258 631 258 636 182 c 0,9,10
 639 150 639 150 640 118 c 0,11,12
 644 41 644 41 703 41 c 0,13,14
 826 41 826 41 877 348 c 0,15,16
 884 388 884 388 884 426 c 0,17,18
 884 521 884 521 840 598 c 0,19,20
 779 705 779 705 650 705 c 0,21,22
 618 705 618 705 621 724 c 128,-1,23
 624 743 624 743 658 754 c 1,24,25
 713 774 713 774 768.5 859 c 128,-1,26
 824 944 824 944 834.5 1006.5 c 128,-1,27
 845 1069 845 1069 845 1105 c 0,28,29
 845 1229 845 1229 753 1229 c 0,30,31
 688 1229 688 1229 642.5 1160.5 c 128,-1,32
 597 1092 597 1092 581 999 c 2,33,-1
 441 162 l 2,34,35
 406 -46 406 -46 282 -166 c 128,-1,36
 158 -286 158 -286 -19 -286 c 1,37,-1
 -12 -243 l 1,38,39
 86 -243 86 -243 149 1 c 0,40,41
 175 100 175 100 199 246 c 2,42,-1
 320 971 l 2,43,44
 337 1070 337 1070 400 1144 c 0,45,46
 525 1290 525 1290 717.5 1290 c 128,-1,47
 910 1290 910 1290 993.5 1232.5 c 128,-1,48
 1077 1175 1077 1175 1077 1077 c 0,49,50
 1077 951 1077 951 981 861 c 128,-1,51
 885 771 885 771 789 733 c 1,52,53
 918 708 918 708 1027 616 c 1,54,55
 1129 531 1129 531 1129 423 c 0,56,57
 1129 406 1129 406 1126 389 c 0,58,59
 1096 210 1096 210 983 95 c 128,-1,60
 870 -20 870 -20 706 -20 c 0,0,1
EndSplineSet
Validated: 1
EndChar

StartChar: agrave
Encoding: 224 224 160
Width: 1030
Flags: MW
AnchorPoint: "below" 506 0 basechar 0
AnchorPoint: "cedilla" 426 0 basechar 0
AnchorPoint: "ogonek" 864 0 basechar 0
AnchorPoint: "mid" 507 242 basechar 0
AnchorPoint: "top" 717 1420 basechar 0
LayerCount: 2
Back
SplineSet
347 176 m 0
 347 91.3333 380 49 446 49 c 4
 485.333 49 531.667 56.5 585 71.5 c 132
 638.333 86.5 680.667 108 712 136 c 5
 751 100 l 5
 717.665 64.6667 664.332 35.8333 591 13.5 c 132
 517.666 -8.83333 450.666 -20 390 -20 c 4
 186.667 -20 85 46 85 178 c 0
 85 223.167 92.5 256.792 107.5 278.875 c 132
 122.5 300.958 141 319.5 163 334.5 c 132
 185 349.5 207 363 229 375 c 132
 251 387 278.667 398.5 312 409.5 c 132
 345.334 420.5 374.167 429.667 398.5 437 c 132
 422.833 444.335 454.333 452.168 493 460.5 c 132
 531.667 468.833 560.667 475 580 479 c 4
 629.3 489.2 679.3 498.2 730 506 c 5
 720 461 l 5
 584.601 428.871 492.267 395.871 443 362 c 4
 391.012 326.258 360.678 283.591 352 234 c 4
 348.667 213.333 347 194 347 176 c 0
964 45 m 4
 928 46 910 73.6667 910 128 c 0
 910 141.333 911.333 156 914 172 c 6
 982 578 l 6
 986 600 987.667 621 987 641 c 1
 987 716.333 961.333 778.667 910 828 c 4
 844.666 890.667 755.333 922 642 922 c 4
 451.744 922 322.41 876 254 784 c 4
 228 749.033 215 717.625 215 689.776 c 128
 215 661.925 222.667 639 238 621 c 132
 253.333 603 275 594 303 594 c 132
 331 594 357.333 600.333 382 613 c 132
 406.667 625.669 420.333 640.836 423 658.5 c 132
 425.667 676.167 427.333 690 428 700 c 1
 428 733.333 416 750 392 750 c 5
 404.667 781.333 431.333 805.5 472 822.5 c 132
 512.668 839.5 557.334 848 606 848 c 4
 673.333 848 713.333 822.667 726 772 c 4
 739.039 719.846 735.039 631.179 714 506 c 6
 667 229 l 6
 663 205.667 661 176.667 661 142 c 128
 661 107.333 672.667 75.3333 696 46 c 4
 728.668 4.66667 781.335 -16 854 -16 c 132
 926.667 -16 983.667 -4.33333 1025 19 c 5
 1014 58 l 5
 997.333 49.3333 980.667 45 964 45 c 4
649 1387 m 25
 705 1055 l 1
 611 1055 l 1
 391 1387 l 1
 649 1387 l 25
EndSplineSet
Fore
Refer: 444 768 N 1 0 0 1 1001 31 2
Refer: 66 97 N 1 0 0 1 0 0 3
Validated: 1
EndChar

StartChar: aacute
Encoding: 225 225 161
Width: 1030
Flags: MW
AnchorPoint: "below" 506 0 basechar 0
AnchorPoint: "cedilla" 426 0 basechar 0
AnchorPoint: "ogonek" 864 0 basechar 0
AnchorPoint: "mid" 507 242 basechar 0
AnchorPoint: "top" 717 1420 basechar 0
LayerCount: 2
Back
SplineSet
347 176 m 0
 347 91.3333 380 49 446 49 c 4
 485.333 49 531.667 56.5 585 71.5 c 132
 638.333 86.5 680.667 108 712 136 c 5
 751 100 l 5
 717.665 64.6667 664.332 35.8333 591 13.5 c 132
 517.666 -8.83333 450.666 -20 390 -20 c 4
 186.667 -20 85 46 85 178 c 0
 85 223.167 92.5 256.792 107.5 278.875 c 132
 122.5 300.958 141 319.5 163 334.5 c 132
 185 349.5 207 363 229 375 c 132
 251 387 278.667 398.5 312 409.5 c 132
 345.334 420.5 374.167 429.667 398.5 437 c 132
 422.833 444.335 454.333 452.168 493 460.5 c 132
 531.667 468.833 560.667 475 580 479 c 4
 629.3 489.2 679.3 498.2 730 506 c 5
 720 461 l 5
 584.601 428.871 492.267 395.871 443 362 c 4
 391.012 326.258 360.678 283.591 352 234 c 4
 348.667 213.333 347 194 347 176 c 0
964 45 m 4
 928 46 910 73.6667 910 128 c 0
 910 141.333 911.333 156 914 172 c 6
 982 578 l 6
 986 600 987.667 621 987 641 c 1
 987 716.333 961.333 778.667 910 828 c 4
 844.666 890.667 755.333 922 642 922 c 4
 451.744 922 322.41 876 254 784 c 4
 228 749.033 215 717.625 215 689.776 c 128
 215 661.925 222.667 639 238 621 c 132
 253.333 603 275 594 303 594 c 132
 331 594 357.333 600.333 382 613 c 132
 406.667 625.669 420.333 640.836 423 658.5 c 132
 425.667 676.167 427.333 690 428 700 c 1
 428 733.333 416 750 392 750 c 5
 404.667 781.333 431.333 805.5 472 822.5 c 132
 512.668 839.5 557.334 848 606 848 c 4
 673.333 848 713.333 822.667 726 772 c 4
 739.039 719.846 735.039 631.179 714 506 c 6
 667 229 l 6
 663 205.667 661 176.667 661 142 c 128
 661 107.333 672.667 75.3333 696 46 c 4
 728.668 4.66667 781.335 -16 854 -16 c 132
 926.667 -16 983.667 -4.33333 1025 19 c 5
 1014 58 l 5
 997.333 49.3333 980.667 45 964 45 c 4
727 1387 m 25
 985 1387 l 1
 656 1055 l 1
 562 1055 l 1
 727 1387 l 25
EndSplineSet
Fore
Refer: 445 769 N 1 0 0 1 1001 31 2
Refer: 66 97 N 1 0 0 1 0 0 3
Validated: 1
EndChar

StartChar: acircumflex
Encoding: 226 226 162
Width: 1030
Flags: MW
AnchorPoint: "below" 506 0 basechar 0
AnchorPoint: "cedilla" 426 0 basechar 0
AnchorPoint: "ogonek" 864 0 basechar 0
AnchorPoint: "mid" 507 242 basechar 0
AnchorPoint: "top" 717 1420 basechar 0
LayerCount: 2
Back
SplineSet
347 176 m 0
 347 91.3333 380 49 446 49 c 4
 485.333 49 531.667 56.5 585 71.5 c 132
 638.333 86.5 680.667 108 712 136 c 5
 751 100 l 5
 717.665 64.6667 664.332 35.8333 591 13.5 c 132
 517.666 -8.83333 450.666 -20 390 -20 c 4
 186.667 -20 85 46 85 178 c 0
 85 223.167 92.5 256.792 107.5 278.875 c 132
 122.5 300.958 141 319.5 163 334.5 c 132
 185 349.5 207 363 229 375 c 132
 251 387 278.667 398.5 312 409.5 c 132
 345.334 420.5 374.167 429.667 398.5 437 c 132
 422.833 444.335 454.333 452.168 493 460.5 c 132
 531.667 468.833 560.667 475 580 479 c 4
 629.3 489.2 679.3 498.2 730 506 c 5
 720 461 l 5
 584.601 428.871 492.267 395.871 443 362 c 4
 391.012 326.258 360.678 283.591 352 234 c 4
 348.667 213.333 347 194 347 176 c 0
964 45 m 4
 928 46 910 73.6667 910 128 c 0
 910 141.333 911.333 156 914 172 c 6
 982 578 l 6
 986 600 987.667 621 987 641 c 1
 987 716.333 961.333 778.667 910 828 c 4
 844.666 890.667 755.333 922 642 922 c 4
 451.744 922 322.41 876 254 784 c 4
 228 749.033 215 717.625 215 689.776 c 128
 215 661.925 222.667 639 238 621 c 132
 253.333 603 275 594 303 594 c 132
 331 594 357.333 600.333 382 613 c 132
 406.667 625.669 420.333 640.836 423 658.5 c 132
 425.667 676.167 427.333 690 428 700 c 1
 428 733.333 416 750 392 750 c 5
 404.667 781.333 431.333 805.5 472 822.5 c 132
 512.668 839.5 557.334 848 606 848 c 4
 673.333 848 713.333 822.667 726 772 c 4
 739.039 719.846 735.039 631.179 714 506 c 6
 667 229 l 6
 663 205.667 661 176.667 661 142 c 128
 661 107.333 672.667 75.3333 696 46 c 4
 728.668 4.66667 781.335 -16 854 -16 c 132
 926.667 -16 983.667 -4.33333 1025 19 c 5
 1014 58 l 5
 997.333 49.3333 980.667 45 964 45 c 4
758 1387 m 1
 926 1055 l 1
 852 1055 l 1
 674 1192 l 1
 452 1055 l 1
 378 1055 l 1
 656 1387 l 1
 758 1387 l 1
EndSplineSet
Fore
Refer: 446 770 N 1 0 0 1 1001 31 2
Refer: 66 97 N 1 0 0 1 0 0 3
Validated: 1
EndChar

StartChar: atilde
Encoding: 227 227 163
Width: 1030
Flags: MW
AnchorPoint: "below" 506 0 basechar 0
AnchorPoint: "cedilla" 426 0 basechar 0
AnchorPoint: "ogonek" 864 0 basechar 0
AnchorPoint: "mid" 507 242 basechar 0
AnchorPoint: "top" 717 1420 basechar 0
LayerCount: 2
Back
SplineSet
347 176 m 0
 347 91.3333 380 49 446 49 c 4
 485.333 49 531.667 56.5 585 71.5 c 132
 638.333 86.5 680.667 108 712 136 c 5
 751 100 l 5
 717.665 64.6667 664.332 35.8333 591 13.5 c 132
 517.666 -8.83333 450.666 -20 390 -20 c 4
 186.667 -20 85 46 85 178 c 0
 85 223.167 92.5 256.792 107.5 278.875 c 132
 122.5 300.958 141 319.5 163 334.5 c 132
 185 349.5 207 363 229 375 c 132
 251 387 278.667 398.5 312 409.5 c 132
 345.334 420.5 374.167 429.667 398.5 437 c 132
 422.833 444.335 454.333 452.168 493 460.5 c 132
 531.667 468.833 560.667 475 580 479 c 4
 629.3 489.2 679.3 498.2 730 506 c 5
 720 461 l 5
 584.601 428.871 492.267 395.871 443 362 c 4
 391.012 326.258 360.678 283.591 352 234 c 4
 348.667 213.333 347 194 347 176 c 0
964 45 m 4
 928 46 910 73.6667 910 128 c 0
 910 141.333 911.333 156 914 172 c 6
 982 578 l 6
 986 600 987.667 621 987 641 c 1
 987 716.333 961.333 778.667 910 828 c 4
 844.666 890.667 755.333 922 642 922 c 4
 451.744 922 322.41 876 254 784 c 4
 228 749.033 215 717.625 215 689.776 c 128
 215 661.925 222.667 639 238 621 c 132
 253.333 603 275 594 303 594 c 132
 331 594 357.333 600.333 382 613 c 132
 406.667 625.669 420.333 640.836 423 658.5 c 132
 425.667 676.167 427.333 690 428 700 c 1
 428 733.333 416 750 392 750 c 5
 404.667 781.333 431.333 805.5 472 822.5 c 132
 512.668 839.5 557.334 848 606 848 c 4
 673.333 848 713.333 822.667 726 772 c 4
 739.039 719.846 735.039 631.179 714 506 c 6
 667 229 l 6
 663 205.667 661 176.667 661 142 c 128
 661 107.333 672.667 75.3333 696 46 c 4
 728.668 4.66667 781.335 -16 854 -16 c 132
 926.667 -16 983.667 -4.33333 1025 19 c 5
 1014 58 l 5
 997.333 49.3333 980.667 45 964 45 c 4
924 1093 m 128
 887.333 1054.33 850.167 1035 812.5 1035 c 128
 774.833 1035 718.667 1055 644 1095 c 128
 569.333 1135 522.667 1155 504 1155 c 0
 463.333 1155 435 1148 419 1134 c 128
 403 1120 392 1093.67 386 1055 c 1
 347 1055 l 1
 361.667 1144.33 386.833 1208.33 422.5 1247 c 128
 458.167 1285.67 494.667 1305 532 1305 c 128
 569.333 1305 625.833 1284.83 701.5 1244.5 c 128
 777.167 1204.17 824.334 1184 843 1184 c 0
 883.667 1184 912 1191 928 1205 c 128
 944 1219 955.333 1245.33 962 1284 c 1
 1001 1284 l 1
 986.333 1195.33 960.667 1131.66 924 1093 c 128
EndSplineSet
Fore
Refer: 447 771 S 1 0 0 1 1001 31 2
Refer: 66 97 N 1 0 0 1 0 0 3
Validated: 1
EndChar

StartChar: adieresis
Encoding: 228 228 164
Width: 1030
Flags: MW
AnchorPoint: "below" 506 0 basechar 0
AnchorPoint: "cedilla" 426 0 basechar 0
AnchorPoint: "ogonek" 864 0 basechar 0
AnchorPoint: "mid" 507 242 basechar 0
AnchorPoint: "top" 717 1420 basechar 0
LayerCount: 2
Back
SplineSet
347 176 m 0
 347 91.3333 380 49 446 49 c 4
 485.333 49 531.667 56.5 585 71.5 c 132
 638.333 86.5 680.667 108 712 136 c 5
 751 100 l 5
 717.665 64.6667 664.332 35.8333 591 13.5 c 132
 517.666 -8.83333 450.666 -20 390 -20 c 4
 186.667 -20 85 46 85 178 c 0
 85 223.167 92.5 256.792 107.5 278.875 c 132
 122.5 300.958 141 319.5 163 334.5 c 132
 185 349.5 207 363 229 375 c 132
 251 387 278.667 398.5 312 409.5 c 132
 345.334 420.5 374.167 429.667 398.5 437 c 132
 422.833 444.335 454.333 452.168 493 460.5 c 132
 531.667 468.833 560.667 475 580 479 c 4
 629.3 489.2 679.3 498.2 730 506 c 5
 720 461 l 5
 584.601 428.871 492.267 395.871 443 362 c 4
 391.012 326.258 360.678 283.591 352 234 c 4
 348.667 213.333 347 194 347 176 c 0
964 45 m 4
 928 46 910 73.6667 910 128 c 0
 910 141.333 911.333 156 914 172 c 6
 982 578 l 6
 986 600 987.667 621 987 641 c 1
 987 716.333 961.333 778.667 910 828 c 4
 844.666 890.667 755.333 922 642 922 c 4
 451.744 922 322.41 876 254 784 c 4
 228 749.033 215 717.625 215 689.776 c 128
 215 661.925 222.667 639 238 621 c 132
 253.333 603 275 594 303 594 c 132
 331 594 357.333 600.333 382 613 c 132
 406.667 625.669 420.333 640.836 423 658.5 c 132
 425.667 676.167 427.333 690 428 700 c 1
 428 733.333 416 750 392 750 c 5
 404.667 781.333 431.333 805.5 472 822.5 c 132
 512.668 839.5 557.334 848 606 848 c 4
 673.333 848 713.333 822.667 726 772 c 4
 739.039 719.846 735.039 631.179 714 506 c 6
 667 229 l 6
 663 205.667 661 176.667 661 142 c 128
 661 107.333 672.667 75.3333 696 46 c 4
 728.668 4.66667 781.335 -16 854 -16 c 132
 926.667 -16 983.667 -4.33333 1025 19 c 5
 1014 58 l 5
 997.333 49.3333 980.667 45 964 45 c 4
846 1054.5 m 128
 812.667 1054.17 787.5 1064.5 770.5 1085.5 c 128
 753.5 1106.5 745.167 1133.5 745.5 1166.5 c 128
 745.833 1199.5 761 1229.5 791 1256.5 c 128
 821 1283.5 852.667 1297 886 1297 c 128
 919.333 1297 944.833 1286.33 962.5 1265 c 128
 980.167 1243.67 989 1225.33 989 1210 c 0
 989 1160.45 973.5 1122.22 942.5 1095.34 c 128
 911.5 1068.45 879.333 1054.83 846 1054.5 c 128
457 1055 m 128
 424.333 1055 399 1065.67 381 1087 c 128
 363 1108.33 354 1135.24 354 1167.71 c 128
 354 1200.19 369.667 1229.86 401 1256.71 c 128
 432.333 1283.57 464.333 1297.17 497 1297.5 c 128
 529.667 1297.83 554.667 1287.33 572 1266 c 128
 589.333 1244.67 598 1226.33 598 1211 c 0
 598 1160.11 582.667 1121.38 552 1094.83 c 128
 521.333 1068.28 489.667 1055 457 1055 c 128
EndSplineSet
Fore
Refer: 452 776 S 1 0 0 1 1000 31 2
Refer: 66 97 N 1 0 0 1 0 0 3
Validated: 1
EndChar

StartChar: aring
Encoding: 229 229 165
Width: 1030
Flags: MW
AnchorPoint: "below" 506 0 basechar 0
AnchorPoint: "cedilla" 426 0 basechar 0
AnchorPoint: "ogonek" 864 0 basechar 0
AnchorPoint: "mid" 507 242 basechar 0
AnchorPoint: "top" 696 1307 basechar 0
LayerCount: 2
Back
SplineSet
347 176 m 0
 347 91.3333 380 49 446 49 c 4
 485.333 49 531.667 56.5 585 71.5 c 132
 638.333 86.5 680.667 108 712 136 c 5
 751 100 l 5
 717.665 64.6667 664.332 35.8333 591 13.5 c 132
 517.666 -8.83333 450.666 -20 390 -20 c 4
 186.667 -20 85 46 85 178 c 0
 85 223.167 92.5 256.792 107.5 278.875 c 132
 122.5 300.958 141 319.5 163 334.5 c 132
 185 349.5 207 363 229 375 c 132
 251 387 278.667 398.5 312 409.5 c 132
 345.334 420.5 374.167 429.667 398.5 437 c 132
 422.833 444.335 454.333 452.168 493 460.5 c 132
 531.667 468.833 560.667 475 580 479 c 4
 629.3 489.2 679.3 498.2 730 506 c 5
 720 461 l 5
 584.601 428.871 492.267 395.871 443 362 c 4
 391.012 326.258 360.678 283.591 352 234 c 4
 348.667 213.333 347 194 347 176 c 0
964 45 m 4
 928 46 910 73.6667 910 128 c 0
 910 141.333 911.333 156 914 172 c 6
 982 578 l 6
 986 600 987.667 621 987 641 c 1
 987 716.333 961.333 778.667 910 828 c 4
 844.666 890.667 755.333 922 642 922 c 4
 451.744 922 322.41 876 254 784 c 4
 228 749.033 215 717.625 215 689.776 c 128
 215 661.925 222.667 639 238 621 c 132
 253.333 603 275 594 303 594 c 132
 331 594 357.333 600.333 382 613 c 132
 406.667 625.669 420.333 640.836 423 658.5 c 132
 425.667 676.167 427.333 690 428 700 c 1
 428 733.333 416 750 392 750 c 5
 404.667 781.333 431.333 805.5 472 822.5 c 132
 512.668 839.5 557.334 848 606 848 c 4
 673.333 848 713.333 822.667 726 772 c 4
 739.039 719.846 735.039 631.179 714 506 c 6
 667 229 l 6
 663 205.667 661 176.667 661 142 c 128
 661 107.333 672.667 75.3333 696 46 c 4
 728.668 4.66667 781.335 -16 854 -16 c 132
 926.667 -16 983.667 -4.33333 1025 19 c 5
 1014 58 l 5
 997.333 49.3333 980.667 45 964 45 c 4
690 1282 m 128
 666.665 1282 643.832 1272.51 621.5 1253.53 c 128
 599.167 1234.54 588 1213.54 588 1190.53 c 128
 588 1167.51 594.333 1148.33 607 1133 c 128
 619.667 1117.67 637.667 1110 661 1110 c 128
 684.333 1110 705.833 1118.5 725.5 1135.5 c 0
 749.833 1156.53 762 1178.54 762 1201.53 c 128
 762 1224.51 755.833 1243.67 743.5 1259 c 128
 731.164 1274.33 713.331 1282 690 1282 c 128
649.5 1044.5 m 128
 606.5 1044.17 574.333 1057 553 1083 c 128
 531.667 1109 521 1132 521 1152 c 0
 521 1216.6 540.333 1265.41 579 1298.45 c 128
 617.667 1331.48 658.333 1348 701 1348 c 128
 743.667 1348 775.667 1335.17 797 1309.5 c 128
 818.333 1283.83 829 1261 829 1241 c 0
 829 1175.61 809.833 1126.6 771.5 1093.96 c 128
 733.167 1061.32 692.5 1044.83 649.5 1044.5 c 128
EndSplineSet
Fore
Refer: 454 778 N 1 0 0 1 982 -69 2
Refer: 66 97 N 1 0 0 1 0 0 3
Validated: 1
EndChar

StartChar: ae
Encoding: 230 230 166
Width: 1589
Flags: MW
HStem: -20 69<368.953 659.081 995.516 1315.84> 458 45<546.629 629> 848 74<313.42 560.151 996.414 1205.28>
VStem: 51 262<93.3677 331.034> 100 213<624.942 749.918> 629 265<496.768 728.922> 1282 225<539.635 749.002>
AnchorPoint: "below" 830 0 basechar 0
AnchorPoint: "mid" 878 620 basechar 0
AnchorPoint: "cedilla" 1098 0 basechar 0
AnchorPoint: "ogonek" 1264 0 basechar 0
AnchorPoint: "top" 957 1055 basechar 0
LayerCount: 2
Back
SplineSet
347 180 m 0
 347 92.6667 395.667 49 493 49 c 128xf6
 590.333 49 682 76.3333 768 131 c 1
 723.333 197 701 277.667 701 373 c 0
 701 400.334 703 428.667 707 458 c 1
 619 436.667 558.333 419.667 525 407 c 0
 422.333 367 364.666 309.333 352 234 c 0
 348.667 214.667 347 196.667 347 180 c 0
804 87 m 1
 706 15.6667 585.667 -20 443 -20 c 128
 300.333 -20 205 -1.83333 157 34.5 c 128
 109 70.8333 85 119 85 179 c 0
 85 195 86.3333 211.667 89 229 c 0xf6
 95.6667 274.333 122.167 313.333 168.5 346 c 128
 214.833 378.667 258.333 401.333 299 414 c 128
 339.667 426.667 378.333 438.667 415 450 c 128
 451.667 461.333 551 479 713 503 c 1
 722 556 l 2
 731.333 615.333 736 661.167 736 693.5 c 128
 736 725.833 731.333 754 722 778 c 128
 712.667 802 699 819.667 681 831 c 128
 663 842.333 634 848 594 848 c 128
 554 848 513.5 839.667 472.5 823 c 128
 431.5 806.333 404.667 782 392 750 c 1
 416 750 428 733.333 428 700 c 0
 428 690 426.5 676.167 423.5 658.5 c 128
 420.5 640.833 406.667 625.667 382 613 c 128
 357.333 600.333 331 594 303 594 c 128
 275 594 253.333 602.833 238 620.5 c 128
 222.667 638.169 215 654.336 215 669 c 0
 215 779 284 854 422 894 c 0
 486.667 912.667 560 922 642 922 c 0
 760 922 852 887.667 918 819 c 1
 1012.67 887.667 1115.83 922 1227.5 922 c 128
 1339.17 922 1419.83 905.167 1469.5 871.5 c 128
 1519.17 837.833 1555.83 801.5 1579.5 762.5 c 128
 1603.17 723.5 1615 688.667 1615 658 c 0
 1615 614 1598.83 576 1566.5 544 c 128
 1534.17 512 1498.33 492.333 1459 485 c 2
 970 401 l 1
 970 397 970 397 970 393 c 0
 970 277.667 996.667 187.667 1050 123 c 0
 1086.67 79 1133 57 1189 57 c 0
 1303 57 1403.67 102.333 1491 193 c 1
 1536 168 l 1
 1484 102 1424.33 54.1667 1357 24.5 c 128
 1289.67 -5.16667 1197.83 -20 1081.5 -20 c 128
 965.167 -20 872.667 15.6666 804 87 c 1
974 464 m 1
 1301 520 l 2
 1328.33 524.671 1348 534.337 1360 549 c 0
 1378 571.668 1387 606.334 1387 653 c 0
 1387 737.667 1364.33 798 1319 834 c 0
 1297.67 851.333 1269.67 860 1235 860 c 128
 1200.33 860 1164 842.333 1126 807 c 0
 1038.67 725 988 610.667 974 464 c 1
EndSplineSet
Fore
SplineSet
347 180 m 0,0,1
 347 49 347 49 493 49 c 128,-1,2
 639 49 639 49 768 131 c 1,3,4
 701 230 701 230 701 373 c 0,5,6
 701 414 701 414 707 458 c 1,7,8
 575 426 575 426 525 407 c 0,9,10
 371 347 371 347 352 234 c 0,11,12
 347 205 347 205 347 180 c 0,0,1
804 87 m 1,13,14
 657 -20 657 -20 443 -20 c 128,-1,15
 229 -20 229 -20 157 34.5 c 128,-1,16
 85 89 85 89 85 179 c 0,17,18
 85 203 85 203 89 229 c 0,19,20
 99 297 99 297 168.5 346 c 128,-1,21
 238 395 238 395 299 414 c 128,-1,22
 360 433 360 433 415 450 c 128,-1,23
 470 467 470 467 713 503 c 1,24,-1
 722 556 l 2,25,26
 736 645 736 645 736 693.5 c 128,-1,27
 736 742 736 742 722 778 c 128,-1,28
 708 814 708 814 681 831 c 128,-1,29
 654 848 654 848 594 848 c 128,-1,30
 534 848 534 848 472.5 823 c 128,-1,31
 411 798 411 798 392 750 c 1,32,33
 428 750 428 750 428 700 c 0,34,35
 428 685 428 685 423.5 658.5 c 128,-1,36
 419 632 419 632 382 613 c 128,-1,37
 345 594 345 594 303 594 c 128,-1,38
 261 594 261 594 238 620.5 c 128,-1,39
 215 647 215 647 215 669 c 0,40,41
 215 834 215 834 422 894 c 0,42,43
 519 922 519 922 642 922 c 0,44,45
 819 922 819 922 918 819 c 1,46,47
 1060 922 1060 922 1227.5 922 c 128,-1,48
 1395 922 1395 922 1469.5 871.5 c 128,-1,49
 1544 821 1544 821 1579.5 762.5 c 128,-1,50
 1615 704 1615 704 1615 658 c 0,51,52
 1615 592 1615 592 1566.5 544 c 128,-1,53
 1518 496 1518 496 1459 485 c 2,54,-1
 970 401 l 1,55,56
 970 397 970 397 970 393 c 0,57,58
 970 220 970 220 1050 123 c 0,59,60
 1105 57 1105 57 1189 57 c 0,61,62
 1360 57 1360 57 1491 193 c 1,63,-1
 1536 168 l 1,64,65
 1458 69 1458 69 1357 24.5 c 128,-1,66
 1256 -20 1256 -20 1081.5 -20 c 128,-1,67
 907 -20 907 -20 804 87 c 1,13,14
974 464 m 1,68,-1
 1301 520 l 2,69,70
 1342 527 1342 527 1360 549 c 0,71,72
 1387 583 1387 583 1387 653 c 0,73,74
 1387 780 1387 780 1319 834 c 0,75,76
 1287 860 1287 860 1235 860 c 128,-1,77
 1183 860 1183 860 1126 807 c 0,78,79
 995 684 995 684 974 464 c 1,68,-1
EndSplineSet
Validated: 1
EndChar

